<?xml version="1.0" encoding="UTF-8" standalone="no"?>
<svg
   xmlns:dc="http://purl.org/dc/elements/1.1/"
   xmlns:cc="http://creativecommons.org/ns#"
   xmlns:rdf="http://www.w3.org/1999/02/22-rdf-syntax-ns#"
   xmlns:svg="http://www.w3.org/2000/svg"
   xmlns="http://www.w3.org/2000/svg"
   xmlns:sodipodi="http://sodipodi.sourceforge.net/DTD/sodipodi-0.dtd"
   xmlns:inkscape="http://www.inkscape.org/namespaces/inkscape"
   viewBox="0 0 2160 3840"
   height="3840"
   width="2160"
   id="svg3803"
   version="1.1"
   sodipodi:docname="404 Mobile.svg"
   inkscape:version="0.92.1 r15371">
  <title
     id="title4347">[White] SOLIS Snowflake Mobile Website Landing</title>
  <sodipodi:namedview
     pagecolor="#888888"
     bordercolor="#666666"
     borderopacity="1"
     objecttolerance="10"
     gridtolerance="10"
     guidetolerance="10"
     inkscape:pageopacity="0"
     inkscape:pageshadow="2"
     inkscape:window-width="1920"
     inkscape:window-height="1017"
     id="namedview3802"
     showgrid="true"
     inkscape:zoom="0.07806608"
     inkscape:cx="1628.7364"
     inkscape:cy="181.78765"
     inkscape:window-x="877"
     inkscape:window-y="2152"
     inkscape:window-maximized="1"
     inkscape:current-layer="svg3803"
     inkscape:snap-bbox="true"
     inkscape:bbox-nodes="true">
    <inkscape:grid
       type="xygrid"
       id="grid3788"
       empspacing="16"
       dotted="true" />
  </sodipodi:namedview>
  <metadata
     id="metadata3809">
    <rdf:RDF>
      <cc:Work
         rdf:about="">
        <dc:format>image/svg+xml</dc:format>
        <dc:type
           rdf:resource="http://purl.org/dc/dcmitype/StillImage" />
        <dc:title>[White] SOLIS Snowflake Mobile Website Landing</dc:title>
        <dc:date>04.19.17</dc:date>
        <dc:creator>
          <cc:Agent>
            <dc:title>Trevor Kerney</dc:title>
          </cc:Agent>
        </dc:creator>
      </cc:Work>
    </rdf:RDF>
  </metadata>
  <defs
     id="defs3807" />
  <rect
     style="opacity:1;fill:#000000;fill-opacity:1;stroke:none;stroke-width:70;stroke-miterlimit:4;stroke-dasharray:none"
     id="rect4787"
     width="2176"
     height="3840"
     x="0"
     y="0" />
  <path
     id="rect3815"
     d="m 1876.9762,1891.7571 -278.24,372.3883 -145.7631,-252.4662 -241.9658,139.6984 145.7615,252.4667 -461.6194,54.7699 33.315,280.7888 582.16,-69.0719 168.1052,291.1653 -529.2461,-9.6996 272.0682,451.9037 h -334.334 L 855.954,2864.9972 596.1251,2976.5404 779.5049,3403.7005 H 487.9782 v 279.3971 h 291.5232 l -183.3763,427.1572 259.8289,111.5426 231.2608,-538.6998 h 335.6095 l -273.3408,454.0202 528.0096,-9.678 -166.8687,289.0229 -582.16,-69.0722 -33.315,280.7886 461.6194,54.7716 -145.7615,252.4682 241.9658,139.695 145.7599,-252.4643 278.2432,372.3883 226.5134,-169.2456 -350.8993,-469.6295 167.1867,-289.5766 256.223,463.1904 256.2235,-463.1904 167.1883,289.5735 -350.8989,469.6326 226.5114,169.2456 278.2432,-372.3883 145.7616,252.4643 241.9661,-139.695 -145.7635,-252.4682 461.6194,-54.7716 -33.315,-280.7886 -582.16,69.0722 -166.8669,-289.0229 528.0078,9.678 -273.3408,-454.0202 h 335.6095 l 231.2608,538.6998 259.8287,-111.5426 -183.3762,-427.1572 h 291.5233 v -279.3971 h -291.5269 l 183.3798,-427.1601 -259.8287,-111.5432 -231.2638,538.7033 h -334.3341 l 272.0684,-451.9037 -529.2442,9.6996 168.1051,-291.1653 582.1582,69.0719 33.315,-280.7888 -461.6194,-54.7699 145.7635,-252.4667 -241.9661,-139.6984 -145.7616,252.4662 -278.2432,-372.3883 -226.5114,169.2456 350.8973,469.6292 -167.7867,290.6136 L 2176,2359.1366 1920.377,2821.2455 1752.5903,2530.6319 2103.4896,2061.0027 Z M 2176,2800.668 2306.8913,3037.2894 2176,3264 2045.1096,3037.2894 Z m -643.2217,371.3643 270.3652,4.9555 130.8926,226.7127 h -261.7819 z m 1286.4439,0 -139.4759,231.6682 h -261.7789 l 130.8928,-226.7127 z m -1146.9697,511.0653 h 261.7836 l -130.8911,226.7095 -270.3667,4.9552 z m 745.7149,0 h 261.7806 l 139.4742,231.6647 -270.3655,-4.9552 z M 2176,3822.7945 2306.8928,4049.5041 2176,4286.127 2045.1096,4049.5073 Z"
     style="opacity:1;fill:#ffffff;fill-opacity:1;stroke:none;stroke-width:182.17520142;stroke-miterlimit:4;stroke-dasharray:none"
     inkscape:connector-curvature="0" />
  <text
     xml:space="preserve"
     style="font-style:normal;font-variant:normal;font-weight:normal;font-stretch:normal;font-size:192px;line-height:1.25;font-family:'Avenir Next LT Pro';-inkscape-font-specification:'Avenir Next LT Pro';letter-spacing:0px;word-spacing:0px;fill:#ffffff;fill-opacity:1;stroke:none"
     x="448"
     y="2624"
     id="text3809"><tspan
       sodipodi:role="line"
       id="tspan3807"
       x="448"
       y="2793.1519" /></text>
  <path
     id="text3831-0"
     style="font-style:normal;font-variant:normal;font-weight:normal;font-stretch:normal;font-size:400px;line-height:1.25;font-family:'Avenir Next LT Pro';-inkscape-font-specification:'Avenir Next LT Pro';letter-spacing:0px;word-spacing:0px;fill:none;fill-opacity:1;stroke:none"
     d="m 734.73828,741.84766 c -1.71646,0 -3.42255,0.0323 -5.12109,0.084 13.9993,4.65159 27.70133,10.25655 41.34961,15.81055 21.16435,8.61258 14.02996,5.64224 31.05273,12.89062 16.83111,8.26859 33.49031,16.97945 49.66406,26.49805 -26.5077,-34.29732 -68.17672,-55.2832 -116.94531,-55.2832 z m 595.25782,0 c -41.6,0 -90.4004,23.2 -90.4004,78 0,51.2 38.4,67.60117 76,79.20117 36,11.2 69.1992,21.19883 69.1992,60.79883 0,36.4 -33.5988,54.80074 -62.7988,54.80074 -29.6,0 -52.4008,-15.59957 -64.8008,-35.59957 l -24.8008,18.39844 c 15.1091,20.73803 37.9007,33.78743 62.6817,39.16603 3.8373,-2e-4 7.6744,-7e-4 11.5117,0 4.5688,0 9.1364,-0.01 13.7051,0 4.4917,0.01 8.9831,0.017 13.4746,-0.035 0.971,0 9.2662,-0.08 8.8125,0.1875 2.1894,-0.2342 4.3204,-0.4064 6.4277,-0.5117 34.868,-8.311 64.9883,-33.2267 64.9883,-78.40624 0,-56.8 -44,-69.59883 -84,-82.79883 -31.6,-10.4 -61.6016,-19.60156 -61.6016,-55.60156 0,-36.4 32.4004,-53.19922 60.4004,-53.19922 26.8,0 46.4004,11.20039 58.4004,28.40039 l 22.8008,-18.40039 c -13.6,-18.4 -42,-34.40039 -80,-34.40039 z m 331.3809,0 -121.2012,290.00004 23.2012,7.5996 120.7988,-289.59964 z m 147.6562,0 -121.2012,290.00004 23.2012,7.5996 120.7988,-289.59964 z m -866.84961,7.20117 v 74.68359 c 6.44709,1.65703 12.77325,3.80132 18.89453,6.76953 3.31476,1.49228 6.61056,3.02683 9.9043,4.56446 v -86.01758 z m 203.90621,0 V 1032.248 h 28.7989 V 749.04883 Z m -749.89449,58.63281 c -9.71891,0.0178 -19.49909,0.31083 -29.22265,0.33594 -0.52925,3.76863 -0.81446,7.70663 -0.81446,11.83008 0,51.2 38.4,67.60117 76,79.20117 0.6819,0.21214 1.35352,0.42327 2.03321,0.63476 0.25896,-0.57305 0.50008,-1.12573 0.77343,-1.71679 -1.17309,0.85881 -0.17771,-0.77839 1.52539,-3.22852 0.20683,-0.43249 0.39349,-0.83682 0.60743,-1.2793 1.62069,-3.35207 6.68607,-9.81673 9.79882,-12.98632 1.06973,-1.41837 2.13726,-2.83818 3.20508,-4.25782 -1.18114,-0.38833 -2.36751,-0.77811 -3.54297,-1.16601 -31.6,-10.4 -61.60156,-19.60156 -61.60156,-55.60156 0,-4.1817 0.43681,-8.09884 1.23828,-11.76563 z m 233.50196,170.09375 c -4.17821,0.96376 -8.29365,2.17966 -12.44141,3.26758 0.21402,-0.0895 0.86814,-0.31483 0.64062,-0.26953 -0.76813,0.1529 -1.53032,0.33372 -2.29492,0.5039 11.22985,15.33621 25.41071,28.15886 41.86524,37.82816 -0.001,-1.4967 0.0283,-2.9942 0.1289,-4.4961 -0.40977,-2.2132 -0.9645,-4.4056 -1.22851,-6.6406 -0.0233,-0.1971 0.53421,0.536 0.48633,0.3437 -1.12555,-4.521 -2.74739,-8.9042 -4.13282,-13.35352 -0.60294,-1.48669 -0.9174,-3.11278 -1.45898,-4.6289 0.18136,0.38673 0.18857,0.40222 0.32031,0.68359 -0.0257,-0.0979 -0.0548,-0.19493 -0.0801,-0.29297 -0.008,-0.032 -0.008,-0.0366 -0.0137,-0.0625 -0.53146,-1.22506 -1.21461,-2.81315 -2.0664,-4.88086 -0.29945,-0.72679 -1.35567,-2.78993 -0.82618,-2.20898 0.0421,0.0462 0.0933,0.12225 0.13868,0.17969 -0.96498,-1.73666 -1.67163,-3.03444 -2.00782,-3.66797 -6.59974,0.0314 -13.1924,-0.17368 -19.77734,-0.72852 0.0203,-0.78688 1.92008,-1.36511 2.74805,-1.57617 z m 366.63085,28.87301 c 0.20565,1.7536 0.41032,3.5079 0.61719,5.2598 2.92066,24.7335 -0.0474,-3.6653 2.24414,18.9805 0.004,0.4524 0.002,0.9067 0.006,1.3593 h 14.56249 c -0.9471,-2.9481 -1.9178,-5.8871 -3.0664,-8.7578 -0.579,-1.447 -2.2106,-3.7565 -2.9082,-5.1464 -1.3123,-2.6146 -2.523,-5.2784 -3.7754,-7.9219 -1.2751,-0.9351 -2.1121,-2.3139 -2.873,-3.7735 z m -216.75781,10.7188 c 0.0516,1.1952 0.0763,1.9875 0.15039,3.5058 0.0139,0.2844 0.0577,-0.9073 0.31836,-0.7929 0.33199,0.1456 0.22172,0.6939 0.27344,1.0527 0.36089,2.5041 0.78987,5.0052 0.96289,7.5293 0.0887,1.2943 0.13615,2.5901 0.17383,3.8867 2.07319,-0.6406 4.12364,-1.3238 6.15039,-2.0488 -0.0655,-0.1076 -0.13174,-0.2147 -0.19727,-0.3223 -1.46489,-2.6052 -2.75759,-5.3137 -4.39453,-7.8144 -1.10764,-1.6921 -2.26486,-3.3507 -3.4375,-4.9961 z m -227.83789,67.4336 c -37.50774,0 -65.59375,27.9081 -65.59375,66.1269 0,38.2188 28.08601,66.1289 65.59375,66.1289 37.50774,0 65.59375,-27.9101 65.59375,-66.1289 0,-38.2188 -28.08601,-66.1269 -65.59375,-66.1269 z m -111.50976,1.6074 c -3.60419,3.2277 -7.20169,6.4637 -10.75196,9.748 14.28254,1.1306 25.4349,8.8214 30.36133,16.375 l 10.66602,-7.8203 c -6.37451,-8.9763 -17.51599,-15.4613 -30.27539,-18.3027 z M 643.92188,1088 v 100.3828 c 0.5742,-0.205 1.15492,-0.3989 1.73046,-0.6016 2.66282,-11.9094 3.99326,-24.0189 6.54493,-35.9433 1.21323,-7.9741 2.10538,-15.7619 4.1582,-23.5508 0.12371,-0.4693 0.051,0.9703 0.0762,1.4551 0.0964,-0.7311 0.19272,-1.4622 0.28906,-2.1934 v -23.0176 h 0.35547 l 1.87891,4.5118 c 0.007,-7.0144 0.006,-14.0287 0.004,-21.043 z m 157.625,0 v 56.4062 c 1.18709,-0.2842 2.37873,-0.5464 3.56835,-0.8183 0.0736,-0.5135 0.14104,-1.0282 0.21875,-1.541 0.21527,-1.4207 0.70597,-2.807 0.77735,-4.2422 0.14526,-2.9206 -0.0901,-5.8476 -0.12891,-8.7715 -0.0334,-2.5228 -0.0587,-5.0456 -0.0879,-7.5684 0.45822,-11.1736 2.10385,-22.253 1.02735,-33.4648 z m 216.68752,1.0059 c -10.3166,3.8031 -19.22666,10.0536 -26.11721,18.1757 -1.01284,3.809 -2.08893,7.6026 -3.08203,11.4161 -0.42141,1.4991 -0.85169,2.9933 -1.28711,4.4843 2.09431,-0.1796 4.19172,-0.3292 6.29297,-0.4179 1.04356,-0.064 2.08858,-0.096 3.13476,-0.1153 4.47762,-8.3092 11.01952,-15.2606 19.31442,-19.9648 0.2538,-1.7202 0.5275,-3.4383 0.7657,-5.1602 0.092,-1.3606 0.092,-2.7295 0.2773,-4.08 0.1996,-1.4506 0.447,-2.8951 0.7012,-4.3379 z M 551.73242,1096 c 32.35264,0 52.08399,25.597 52.08399,54.9277 0,29.3307 -19.73135,54.752 -52.08399,54.752 -32.35265,0 -52.08398,-25.4213 -52.08398,-54.752 0,-29.3307 19.73133,-54.9277 52.08398,-54.9277 z m -177.87304,60.4453 c -3.75872,4.4911 -7.52235,8.9787 -11.30469,13.4492 7.51014,28.1352 31.74707,47.1621 63.14843,47.1621 22.57577,0 38.75066,-10.8438 47.10547,-23.4648 l -9.95312,-6.4004 c -8.71032,12.9766 -22.5759,18.666 -36.97461,18.666 -30.30554,0 -49.68942,-22.4617 -52.02148,-49.4121 z" />
  <path
     style="font-style:normal;font-variant:normal;font-weight:normal;font-stretch:normal;font-size:400px;line-height:1.25;font-family:'Futura PT';-inkscape-font-specification:'Futura PT';letter-spacing:0px;word-spacing:0px;fill:#ffffff;fill-opacity:1;stroke:none"
     d="M 506.08499,772 339.6846,1003.1992 h 136.79883 v 50.4004 h 29.60156 v -50.4004 h 32.79883 V 976 h -32.79883 z m 444.53122,0 -166.4004,231.1992 h 136.7989 v 50.4004 h 29.6015 v -50.4004 h 32.79887 V 976 h -32.79887 z m -277.9882,10.40039 c -10.6667,0 -22.2675,3.06589 -34.8008,9.19922 -12.2667,5.86667 -23.4663,16.13411 -33.5996,30.80078 -8.8,12.8 -15.4667,27.59844 -20,44.39844 -4.5334,16.53337 -6.7989,34.40157 -6.7989,53.60157 0,19.2 2.2655,37.2 6.7989,54 4.5333,16.5333 11.2,31.2 20,44 5.0666,7.4666 10.4,13.7321 16,18.7988 5.8666,5.0667 11.7329,9.2004 17.5996,12.4004 6.1333,3.2 12.1333,5.4674 18,6.8008 5.8666,1.3333 11.4674,2 16.8008,2 5.3333,0 10.9341,-0.6667 16.8007,-2 5.8667,-1.3334 11.733,-3.6008 17.5996,-6.8008 6.1334,-3.2 11.9996,-7.3337 17.5997,-12.4004 5.8666,-5.0667 11.3337,-11.3322 16.4003,-18.7988 8.8,-12.8 15.4667,-27.4667 20,-44 4.5334,-16.8 6.7989,-34.8 6.7989,-54 0,-19.2 -2.2655,-37.0682 -6.7989,-53.60157 -4.5333,-16.8 -11.2,-31.59844 -20,-44.39844 -10.1333,-14.66667 -21.4666,-24.93411 -34,-30.80078 -12.2666,-6.13333 -23.7337,-9.19922 -34.4003,-9.19922 z m 0,27.19922 c 6.9333,0 14.5341,2.13372 22.8007,6.40039 8.5334,4.26667 16.2659,11.99922 23.1993,23.19922 7.2,11.46667 12.2658,24.40078 15.1992,38.80078 2.9333,14.1333 4.4004,28.2671 4.4004,42.4004 0,14.1333 -1.4671,28.3988 -4.4004,42.7988 -2.9334,14.1333 -7.9992,26.9337 -15.1992,38.4004 -6.9334,11.2 -14.6659,18.9326 -23.1993,23.1992 -8.2666,4.2667 -15.8674,6.4004 -22.8007,6.4004 -6.9334,0 -14.6659,-2.1337 -23.1993,-6.4004 -8.2666,-4.2666 -15.8674,-11.9992 -22.8007,-23.1992 -7.2,-11.4667 -12.2659,-24.2671 -15.1993,-38.4004 -2.9333,-14.4 -4.4004,-28.6655 -4.4004,-42.7988 0,-14.1333 1.4671,-28.2671 4.4004,-42.4004 2.9334,-14.4 7.9993,-27.33411 15.1993,-38.80078 6.9333,-11.2 14.5341,-18.93255 22.8007,-23.19922 8.5334,-4.26667 16.2659,-6.40039 23.1993,-6.40039 z M 476.48343,858 v 118 h -84.39844 z m 444.53128,0 v 118 h -84.3985 z m 128.14449,160.4004 a 20,20 0 0 0 -20,20 20,20 0 0 0 20,20 20,20 0 0 0 20,-20 20,20 0 0 0 -20,-20 z m -588.43163,96.9922 -58.94531,134.207 h 15.74414 l 15.36133,-36.0957 h 54.52734 l 14.97656,36.0957 h 15.74414 z m 354.28124,0.7675 v 133.4395 h 14.207 v -98.8809 l 99.8418,104.6407 v -133.8243 h -14.209 v 99.2637 z m 779.24999,0 v 133.4395 h 14.207 v -98.8809 l 99.8418,104.6407 v -133.8243 h -14.2089 v 99.2637 z m -1002.09569,3.2637 c -9.6,0 -18.4955,1.7276 -26.6875,5.1836 -8.064,3.328 -15.1051,7.9996 -21.12109,14.0156 -5.888,5.888 -10.55962,12.8638 -14.01562,20.9278 -3.328,8.064 -4.99219,16.7693 -4.99219,26.1133 0,9.344 1.66419,18.0473 4.99219,26.1113 3.328,8.064 7.93622,15.1051 13.82422,21.1211 6.01599,5.888 13.05509,10.5596 21.11909,14.0156 8.1921,3.328 17.0241,4.9922 26.4961,4.9922 7.296,0 13.6972,-0.9609 19.2012,-2.8809 5.632,-1.92 10.367,-4.1607 14.207,-6.7207 3.84,-2.56 6.9128,-5.1197 9.2168,-7.6797 2.304,-2.56 3.9682,-4.4797 4.9922,-5.7597 4.096,-5.504 7.1669,-11.8398 9.2149,-19.0078 2.048,-7.168 3.0722,-14.3359 3.0722,-21.5039 v -3.0723 h -53.375 v 13.4394 h 38.0157 c -0.256,4.096 -0.896,7.68 -1.92,10.752 -1.024,2.944 -2.1116,5.4403 -3.2636,7.4883 -3.712,6.528 -9.0255,11.7761 -15.9375,15.7441 -6.912,3.84 -14.6545,5.7598 -23.2305,5.7598 -6.016,0 -12.1616,-1.0877 -18.4336,-3.2637 -6.144,-2.176 -11.7111,-5.439 -16.7031,-9.791 -4.992,-4.48 -9.08908,-9.9837 -12.28908,-16.5117 -3.072,-6.656 -4.60742,-14.337 -4.60742,-23.041 0,-7.424 1.27984,-14.3364 3.83984,-20.7364 2.56,-6.528 6.14396,-12.1605 10.75196,-16.8965 4.608,-4.736 10.1117,-8.4467 16.5117,-11.1347 6.528,-2.816 13.6325,-4.2246 21.3125,-4.2246 7.68,0 14.0158,1.153 19.0078,3.457 4.992,2.304 9.0237,4.7349 12.0957,7.2949 4.352,3.584 8.3857,8.0001 12.0977,13.2481 l 10.5586,-9.5996 c -1.792,-2.56 -3.9674,-5.1831 -6.5274,-7.8711 -2.56,-2.688 -5.3118,-5.1209 -8.2558,-7.2969 -6.272,-4.864 -12.8634,-8.1924 -19.7754,-9.9844 -6.784,-1.792 -13.2486,-2.6875 -19.3926,-2.6875 z m 429.55859,0 c -9.216,0 -17.8559,1.6642 -25.91992,4.9922 -8.064,3.328 -15.1685,7.9362 -21.3125,13.8242 -6.01597,5.888 -10.75297,12.8638 -14.20897,20.9278 -3.456,8.064 -5.1836,16.8961 -5.1836,26.4961 0,9.472 1.7276,18.304 5.1836,26.496 3.456,8.064 8.193,15.0398 14.20897,20.9278 6.016,5.888 13.0551,10.4962 21.1191,13.8242 8.19202,3.328 16.89732,4.9922 26.11332,4.9922 9.216,0 17.8559,-1.6642 25.9199,-4.9922 8.192,-3.328 15.2946,-7.9362 21.3106,-13.8242 6.016,-5.888 10.753,-12.8638 14.209,-20.9278 3.456,-8.192 5.1835,-17.024 5.1835,-26.496 0,-9.6 -1.7275,-18.4321 -5.1835,-26.4961 -3.456,-8.064 -8.2564,-15.0398 -14.4004,-20.9278 -6.016,-5.888 -13.0552,-10.4962 -21.1192,-13.8242 -8.064,-3.328 -16.7039,-4.9922 -25.9199,-4.9922 z m 355.5,0 c -9.216,0 -17.8559,1.6642 -25.9199,4.9922 -8.064,3.328 -15.1685,7.9362 -21.3125,13.8242 -6.016,5.888 -10.753,12.8638 -14.209,20.9278 -3.456,8.064 -5.1836,16.8961 -5.1836,26.4961 0,9.472 1.7276,18.304 5.1836,26.496 3.456,8.064 8.193,15.0398 14.209,20.9278 6.016,5.888 13.0551,10.4962 21.1191,13.8242 8.192,3.328 16.8973,4.9922 26.1133,4.9922 9.216,0 17.8559,-1.6642 25.9199,-4.9922 8.192,-3.328 15.2946,-7.9362 21.3106,-13.8242 6.016,-5.888 10.753,-12.8638 14.209,-20.9278 3.456,-8.192 5.1835,-17.024 5.1835,-26.496 0,-9.6 -1.7275,-18.4321 -5.1835,-26.4961 -3.456,-8.064 -8.2564,-15.0398 -14.4004,-20.9278 -6.016,-5.888 -13.0552,-10.4962 -21.1192,-13.8242 -8.064,-3.328 -16.7039,-4.9922 -25.9199,-4.9922 z m -1037.71288,2.1113 v 128.0645 h 14.20703 v -55.6797 h 12.48047 c 7.296,0 13.505,-1.0243 18.625,-3.0723 5.12,-2.048 9.28047,-4.7364 12.48047,-8.0644 3.328,-3.328 5.69551,-7.1675 7.10351,-11.5195 1.536,-4.352 2.30274,-8.7681 2.30274,-13.2481 0,-4.096 -0.76674,-8.6408 -2.30274,-13.6328 -1.536,-5.12 -4.6722,-9.7263 -9.4082,-13.8223 -4.352,-3.712 -9.2158,-6.1448 -14.5918,-7.2968 -5.248,-1.152 -11.13606,-1.7286 -17.66406,-1.7286 z m 338.24999,0 v 128.0645 h 66.4317 v -13.4395 h -52.2247 v -49.7285 h 50.6895 v -13.4394 h -50.6895 v -38.0156 h 52.2247 v -13.4415 z m 416.30079,0 v 13.4415 h 31.1035 v 114.623 h 14.209 v -114.623 h 31.1035 v -13.4415 z m 140.1992,0 v 128.0645 h 14.207 v -63.3594 h 42.625 v -13.4414 h -42.625 v -37.8222 h 44.1602 v -13.4415 z m 235.875,0 v 82.3692 c 0,5.376 0.4478,10.6241 1.3438,15.7441 1.024,5.12 3.2647,10.1106 6.7207,14.9746 3.84,5.376 8.9593,9.5999 15.3593,12.6719 6.528,3.072 13.8881,4.6094 22.0801,4.6094 8.192,0 15.4887,-1.5374 21.8887,-4.6094 6.528,-3.072 11.7108,-7.2959 15.5508,-12.6719 3.456,-4.864 5.6333,-9.8546 6.5293,-14.9746 1.024,-5.12 1.5351,-10.3681 1.5351,-15.7441 v -82.3692 h -14.207 v 78.5293 c 0,2.688 -0.065,5.4399 -0.1934,8.2559 -0.128,2.688 -0.5123,5.3745 -1.1523,8.0625 -0.64,2.688 -1.6623,5.3131 -3.0703,7.873 -1.28,2.4321 -3.2017,4.7362 -5.7617,6.9122 -2.56,2.176 -5.8231,3.967 -9.7911,5.375 -3.968,1.28 -7.7441,1.9199 -11.3281,1.9199 -3.584,0 -7.3601,-0.6399 -11.3281,-1.9199 -3.968,-1.408 -7.231,-3.199 -9.791,-5.375 -2.56,-2.176 -4.5452,-4.4801 -5.9532,-6.9122 -1.28,-2.5599 -2.2389,-5.185 -2.8789,-7.873 -0.64,-2.688 -1.0243,-5.3745 -1.1523,-8.0625 -0.128,-2.816 -0.1934,-5.5679 -0.1934,-8.2559 v -78.5293 z m 271.125,0 v 128.0645 h 25.9199 c 5.76,0 10.8794,-0.2556 15.3594,-0.7676 4.48,-0.64 8.5771,-1.6008 12.2891,-2.8808 3.712,-1.28 7.1037,-2.8155 10.1758,-4.6075 3.072,-1.792 6.0794,-3.9673 9.0234,-6.5273 2.304,-1.92 4.7369,-4.2895 7.2969,-7.1055 2.688,-2.944 5.1189,-6.3992 7.2949,-10.3672 2.304,-3.968 4.1603,-8.5128 5.5683,-13.6328 1.536,-5.248 2.3047,-11.2628 2.3047,-18.0468 0,-5.76 -0.5765,-11.0716 -1.7285,-15.9356 -1.152,-4.992 -2.7528,-9.5368 -4.8008,-13.6328 -2.048,-4.096 -4.4155,-7.7434 -7.1035,-10.9434 -2.56,-3.328 -5.3118,-6.2086 -8.2558,-8.6406 -4.096,-3.456 -8.2565,-6.1444 -12.4805,-8.0644 -4.096,-2.048 -8.1911,-3.5835 -12.2871,-4.6075 -4.096,-1.024 -8.0643,-1.6639 -11.9043,-1.9199 -3.84,-0.256 -7.3606,-0.3848 -10.5606,-0.3848 z m -719.5371,11.3282 c 7.168,0 13.8862,1.4086 20.1582,4.2246 6.4,2.688 11.9057,6.3987 16.5137,11.1347 4.736,4.736 8.4467,10.3685 11.1347,16.8965 2.816,6.4 4.2247,13.249 4.2247,20.545 0,7.296 -1.4087,14.2083 -4.2247,20.7363 -2.688,6.4 -6.3987,11.9671 -11.1347,16.7031 -4.608,4.736 -10.1137,8.5121 -16.5137,11.3281 -6.272,2.688 -12.9902,4.0313 -20.1582,4.0313 -7.168,0 -13.9535,-1.3433 -20.3535,-4.0313 -6.27202,-2.816 -11.77572,-6.5921 -16.51172,-11.3281 -4.736,-4.736 -8.4468,-10.3031 -11.1348,-16.7031 -2.688,-6.528 -4.0332,-13.4403 -4.0332,-20.7363 0,-7.296 1.3452,-14.145 4.0332,-20.545 2.688,-6.528 6.3988,-12.1605 11.1348,-16.8965 4.736,-4.736 10.2397,-8.4467 16.51172,-11.1347 6.4,-2.816 13.1855,-4.2246 20.3535,-4.2246 z m 355.5,0 c 7.168,0 13.8862,1.4086 20.1582,4.2246 6.4,2.688 11.9057,6.3987 16.5137,11.1347 4.736,4.736 8.4467,10.3685 11.1347,16.8965 2.816,6.4 4.2247,13.249 4.2247,20.545 0,7.296 -1.4087,14.2083 -4.2247,20.7363 -2.688,6.4 -6.3987,11.9671 -11.1347,16.7031 -4.608,4.736 -10.1137,8.5121 -16.5137,11.3281 -6.272,2.688 -12.9902,4.0313 -20.1582,4.0313 -7.168,0 -13.9535,-1.3433 -20.3535,-4.0313 -6.272,-2.816 -11.7757,-6.5921 -16.5117,-11.3281 -4.736,-4.736 -8.4468,-10.3031 -11.1348,-16.7031 -2.688,-6.528 -4.0332,-13.4403 -4.0332,-20.7363 0,-7.296 1.3452,-14.145 4.0332,-20.545 2.688,-6.528 6.3988,-12.1605 11.1348,-16.8965 4.736,-4.736 10.2397,-8.4467 16.5117,-11.1347 6.4,-2.816 13.1855,-4.2246 20.3535,-4.2246 z m -1023.50585,2.1133 h 10.56055 c 2.304,0 5.05586,0.1902 8.25586,0.5742 3.2,0.384 6.27279,1.3448 9.21679,2.8808 3.072,1.536 5.63169,3.7767 7.67969,6.7207 2.048,2.944 3.07227,6.9757 3.07227,12.0957 0,7.424 -2.43288,13.1833 -7.29688,17.2793 -4.736,3.968 -11.32739,5.9532 -19.77539,5.9532 h -11.71289 z m 1401.74995,0 h 12.4805 c 8.064,0 15.4241,1.2144 22.0801,3.6464 6.656,2.432 12.3519,5.8892 17.0879,10.3692 4.736,4.352 8.3853,9.6635 10.9453,15.9355 2.56,6.144 3.8398,13.0564 3.8398,20.7364 0,9.216 -1.6642,17.0238 -4.9922,23.4238 -3.328,6.272 -7.425,11.4548 -12.289,15.5508 -3.072,2.56 -6.2716,4.6085 -9.5996,6.1445 -3.2,1.536 -6.3996,2.689 -9.5996,3.457 -3.2,0.768 -6.2728,1.2792 -9.2168,1.5352 -2.944,0.256 -5.6959,0.3847 -8.2559,0.3847 h -12.4805 z m -1295.123,13.8222 21.50391,51.2656 h -43.39258 z"
     id="text3807"
     inkscape:connector-curvature="0" />
</svg>
