<?xml version="1.0" encoding="UTF-8" standalone="no"?>
<svg
   xmlns:dc="http://purl.org/dc/elements/1.1/"
   xmlns:cc="http://creativecommons.org/ns#"
   xmlns:rdf="http://www.w3.org/1999/02/22-rdf-syntax-ns#"
   xmlns:svg="http://www.w3.org/2000/svg"
   xmlns="http://www.w3.org/2000/svg"
   xmlns:sodipodi="http://sodipodi.sourceforge.net/DTD/sodipodi-0.dtd"
   xmlns:inkscape="http://www.inkscape.org/namespaces/inkscape"
   viewBox="0 0 3840 2160"
   height="2160"
   width="3840"
   id="svg3803"
   version="1.1"
   sodipodi:docname="404 Desktop.svg"
   inkscape:version="0.92.1 r15371">
  <title
     id="title4347">[White] SOLIS Snowflake Website Landing</title>
  <sodipodi:namedview
     pagecolor="#888888"
     bordercolor="#666666"
     borderopacity="1"
     objecttolerance="10"
     gridtolerance="10"
     guidetolerance="10"
     inkscape:pageopacity="0"
     inkscape:pageshadow="2"
     inkscape:window-width="1920"
     inkscape:window-height="1017"
     id="namedview3802"
     showgrid="true"
     inkscape:zoom="0.1767767"
     inkscape:cx="2282.3447"
     inkscape:cy="494.18901"
     inkscape:window-x="877"
     inkscape:window-y="2152"
     inkscape:window-maximized="1"
     inkscape:current-layer="svg3803">
    <inkscape:grid
       type="xygrid"
       id="grid3788"
       empspacing="8"
       dotted="true" />
  </sodipodi:namedview>
  <metadata
     id="metadata3809">
    <rdf:RDF>
      <cc:Work
         rdf:about="">
        <dc:format>image/svg+xml</dc:format>
        <dc:type
           rdf:resource="http://purl.org/dc/dcmitype/StillImage" />
        <dc:title>[White] SOLIS Snowflake Website Landing</dc:title>
        <dc:date>04.19.17</dc:date>
        <dc:creator>
          <cc:Agent>
            <dc:title>Trevor Kerney</dc:title>
          </cc:Agent>
        </dc:creator>
      </cc:Work>
    </rdf:RDF>
  </metadata>
  <defs
     id="defs3807" />
  <rect
     style="opacity:1;fill:#000000;fill-opacity:1;stroke:none;stroke-width:4.99178553;stroke-miterlimit:4;stroke-dasharray:none"
     id="rect3790"
     width="3840"
     height="2176"
     x="0"
     y="-16" />
  <rect
     style="opacity:1;fill:none;fill-opacity:1;stroke:none;stroke-width:2.30904651;stroke-miterlimit:4;stroke-dasharray:none"
     id="rect3805"
     width="4.8676796"
     height="2177.9749"
     x="3840"
     y="-16" />
  <path
     id="rect3815"
     d="m 3540.9762,244.96261 -278.24,372.3883 -145.7631,-252.46617 -241.9658,139.69839 145.7615,252.46668 -461.6194,54.76992 33.315,280.78877 582.16,-69.0719 168.1052,291.1653 -529.2461,-9.6996 272.0682,451.9037 h -334.334 l -231.2637,-538.7033 -259.8289,111.5432 183.3798,427.1601 h -291.5267 v 279.3971 h 291.5232 l -183.3763,427.1572 259.8289,111.5426 231.2608,-538.6998 h 335.6095 l -273.3408,454.0202 528.0096,-9.678 -166.8687,289.0229 -582.16,-69.0722 -33.315,280.7886 461.6194,54.7716 -145.7615,252.4682 241.9658,139.695 145.7599,-252.4643 278.2432,372.3883 226.5134,-169.2456 -350.8993,-469.6295 167.1867,-289.5766 256.223,463.1904 256.2235,-463.1904 167.1883,289.5735 -350.8989,469.6326 226.5114,169.2456 278.2432,-372.3883 145.7616,252.4643 241.9661,-139.695 -145.7635,-252.4682 461.6194,-54.7716 -33.315,-280.7886 -582.16,69.0722 -166.8669,-289.0229 528.0078,9.678 -273.3408,-454.0202 h 335.6095 l 231.2608,538.6998 259.8287,-111.5426 -183.3762,-427.1572 h 291.5233 V 1756.906 h -291.5269 l 183.3798,-427.1601 -259.8287,-111.5432 -231.2638,538.7033 h -334.3341 l 272.0684,-451.9037 -529.2442,9.6996 168.1051,-291.1653 582.1582,69.0719 33.315,-280.78877 L 4659.2317,757.04981 4804.9952,504.58313 4563.0291,364.88474 4417.2675,617.35091 4139.0243,244.96261 3912.5129,414.20819 4263.4102,883.8374 4095.6235,1174.451 3840,712.34205 3584.377,1174.451 3416.5903,883.8374 3767.4896,414.20819 Z M 3840,1153.8735 3970.8913,1390.4949 3840,1617.2055 3709.1096,1390.4949 Z m -643.2217,371.3643 270.3652,4.9555 130.8926,226.7127 h -261.7819 z m 1286.4439,0 -139.4759,231.6682 h -261.7789 l 130.8928,-226.7127 z m -1146.9697,511.0653 h 261.7836 l -130.8911,226.7095 -270.3667,4.9552 z m 745.7149,0 h 261.7806 l 139.4742,231.6647 -270.3655,-4.9552 z M 3840,2176 3970.8928,2402.7096 3840,2639.3325 3709.1096,2402.7128 Z"
     style="opacity:1;fill:#ffffff;fill-opacity:1;stroke:none;stroke-width:182.17520142;stroke-miterlimit:4;stroke-dasharray:none"
     inkscape:connector-curvature="0" />
  <text
     xml:space="preserve"
     style="font-style:normal;font-variant:normal;font-weight:normal;font-stretch:normal;font-size:192px;line-height:1.25;font-family:'Avenir Next LT Pro';-inkscape-font-specification:'Avenir Next LT Pro';letter-spacing:0px;word-spacing:0px;fill:#ffffff;fill-opacity:1;stroke:none;"
     x="448"
     y="944"
     id="text3809"><tspan
       sodipodi:role="line"
       id="tspan3807"
       x="448"
       y="1113.152" /></text>
  <rect
     style="opacity:1;fill:none;fill-opacity:1;stroke:none;stroke-width:70;stroke-miterlimit:4;stroke-dasharray:none"
     id="rect3806"
     width="560"
     height="152"
     x="1128"
     y="1240" />
  <rect
     style="opacity:1;fill:none;fill-opacity:1;stroke:none;stroke-width:70;stroke-miterlimit:4;stroke-dasharray:none"
     id="rect3810"
     width="608"
     height="176"
     x="1104"
     y="1216" />
  <rect
     style="opacity:1;fill:none;fill-opacity:1;stroke:none;stroke-width:70;stroke-miterlimit:4;stroke-dasharray:none"
     id="rect3816"
     width="640"
     height="176"
     x="1104"
     y="1216" />
  <path
     style="font-style:normal;font-variant:normal;font-weight:normal;font-stretch:normal;font-size:400px;line-height:1.25;font-family:'Futura PT';-inkscape-font-specification:'Futura PT';letter-spacing:0px;word-spacing:0px;fill:#ffffff;fill-opacity:1;stroke:none"
     d="M 510.17578,830.32029 343.77539,1061.5195 h 136.79883 v 50.4004 h 29.60156 v -50.4004 h 32.79883 v -27.1992 h -32.79883 z m 444.53125,0 -166.40039,231.19921 h 136.79883 v 50.4004 h 29.60156 v -50.4004 h 32.79883 v -27.1992 h -32.79883 z m -277.98828,10.40039 c -10.66667,0 -22.26745,3.06589 -34.80078,9.19922 -12.26667,5.86667 -23.46628,16.13411 -33.59961,30.80078 -8.8,12.8 -15.46667,27.59844 -20,44.39844 -4.53333,16.53333 -6.79883,34.40156 -6.79883,53.60156 0,19.20002 2.2655,37.20002 6.79883,54.00002 4.53333,16.5333 11.2,31.2 20,44 5.06667,7.4666 10.4,13.7321 16,18.7988 5.86667,5.0667 11.73294,9.2004 17.59961,12.4004 6.13333,3.2 12.13333,5.4674 18,6.8008 5.86667,1.3333 11.46745,2 16.80078,2 5.33333,0 10.93411,-0.6667 16.80078,-2 5.86667,-1.3334 11.73294,-3.6008 17.59961,-6.8008 6.13333,-3.2 11.99961,-7.3337 17.59961,-12.4004 5.86667,-5.0667 11.33372,-11.3322 16.40039,-18.7988 8.8,-12.8 15.46667,-27.4667 20,-44 4.53333,-16.8 6.79883,-34.8 6.79883,-54.00002 0,-19.2 -2.2655,-37.06823 -6.79883,-53.60156 -4.53333,-16.8 -11.2,-31.59844 -20,-44.39844 -10.13333,-14.66667 -21.46667,-24.93411 -34,-30.80078 -12.26667,-6.13333 -23.73372,-9.19922 -34.40039,-9.19922 z m 0,27.19922 c 6.93333,0 14.53411,2.13372 22.80078,6.40039 8.53333,4.26667 16.26589,11.99922 23.19922,23.19922 7.2,11.46667 12.26589,24.40078 15.19922,38.80078 2.93333,14.13333 4.40039,28.26706 4.40039,42.40039 0,14.13333 -1.46706,28.39882 -4.40039,42.79882 -2.93333,14.1333 -7.99922,26.9337 -15.19922,38.4004 -6.93333,11.2 -14.66589,18.9326 -23.19922,23.1992 -8.26667,4.2667 -15.86745,6.4004 -22.80078,6.4004 -6.93333,0 -14.66589,-2.1337 -23.19922,-6.4004 -8.26667,-4.2666 -15.86745,-11.9992 -22.80078,-23.1992 -7.2,-11.4667 -12.26589,-24.2671 -15.19922,-38.4004 -2.93333,-14.4 -4.40039,-28.66549 -4.40039,-42.79882 0,-14.13333 1.46706,-28.26706 4.40039,-42.40039 2.93333,-14.4 7.99922,-27.33411 15.19922,-38.80078 6.93333,-11.2 14.53411,-18.93255 22.80078,-23.19922 8.53333,-4.26667 16.26589,-6.40039 23.19922,-6.40039 z m -196.14453,48.40039 v 118.00001 h -84.39844 z m 444.53125,0 V 1034.3203 H 840.70703 Z M 1053.25,1076.7207 a 20,20 0 0 0 -20,20 20,20 0 0 0 20,20 20,20 0 0 0 20,-20 20,20 0 0 0 -20,-20 z m -588.43164,96.9922 -58.94531,134.207 h 15.74414 l 15.36133,-36.0957 h 54.52734 l 14.97656,36.0957 h 15.74414 z m 354.28125,0.7675 v 133.4395 h 14.20703 v -98.8809 l 99.8418,104.6407 v -133.8243 h -14.20899 v 99.2637 z m 779.24999,0 v 133.4395 h 14.207 v -98.8809 l 99.8418,104.6407 v -133.8243 h -14.2089 v 99.2637 z m -1002.09569,3.2637 c -9.6,0 -18.4955,1.7276 -26.6875,5.1836 -8.064,3.328 -15.1051,7.9996 -21.1211,14.0156 -5.888,5.888 -10.55962,12.8638 -14.01562,20.9278 -3.328,8.064 -4.99219,16.7693 -4.99219,26.1133 0,9.344 1.66419,18.0473 4.99219,26.1113 3.328,8.064 7.93622,15.1051 13.82422,21.1211 6.016,5.888 13.05514,10.5596 21.11914,14.0156 8.192,3.328 17.02409,4.9922 26.49609,4.9922 7.296,0 13.69717,-0.9609 19.20117,-2.8809 5.632,-1.92 10.36703,-4.1607 14.20703,-6.7207 3.84,-2.56 6.9128,-5.1197 9.2168,-7.6797 2.304,-2.56 3.96819,-4.4797 4.99219,-5.7597 4.096,-5.504 7.16684,-11.8398 9.21484,-19.0078 2.048,-7.168 3.07227,-14.3359 3.07227,-21.5039 v -3.0723 h -53.375 v 13.4394 h 38.01562 c -0.256,4.096 -0.89592,7.68 -1.91992,10.752 -1.024,2.944 -2.11167,5.4403 -3.26367,7.4883 -3.712,6.528 -9.0255,11.7761 -15.9375,15.7441 -6.912,3.84 -14.65447,5.7598 -23.23047,5.7598 -6.016,0 -12.16159,-1.0877 -18.43359,-3.2637 -6.144,-2.176 -11.71113,-5.439 -16.70313,-9.791 -4.992,-4.48 -9.08906,-9.9837 -12.28906,-16.5117 -3.072,-6.656 -4.60742,-14.337 -4.60742,-23.041 0,-7.424 1.27984,-14.3364 3.83984,-20.7364 2.56,-6.528 6.14395,-12.1605 10.75195,-16.8965 4.608,-4.736 10.11172,-8.4467 16.51172,-11.1347 6.528,-2.816 13.6325,-4.2246 21.3125,-4.2246 7.68,0 14.01582,1.153 19.00781,3.457 4.99201,2.304 9.02371,4.7349 12.09571,7.2949 4.352,3.584 8.38565,8.0001 12.09765,13.2481 l 10.5586,-9.5996 c -1.792,-2.56 -3.96735,-5.1831 -6.52735,-7.8711 -2.56,-2.688 -5.31185,-5.1209 -8.25585,-7.2969 -6.27201,-4.864 -12.8634,-8.1924 -19.7754,-9.9844 -6.784,-1.792 -13.24857,-2.6875 -19.39257,-2.6875 z m 429.55859,0 c -9.216,0 -17.8559,1.6642 -25.91992,4.9922 -8.064,3.328 -15.1685,7.9362 -21.3125,13.8242 -6.016,5.888 -10.75299,12.8638 -14.20899,20.9278 -3.456,8.064 -5.18359,16.8961 -5.18359,26.4961 0,9.472 1.72759,18.304 5.18359,26.496 3.456,8.064 8.19299,15.0398 14.20899,20.9278 6.016,5.888 13.05514,10.4962 21.11914,13.8242 8.19198,3.328 16.89728,4.9922 26.11328,4.9922 9.216,0 17.8559,-1.6642 25.9199,-4.9922 8.192,-3.328 15.2946,-7.9362 21.3106,-13.8242 6.016,-5.888 10.753,-12.8638 14.209,-20.9278 3.456,-8.192 5.1835,-17.024 5.1835,-26.496 0,-9.6 -1.7275,-18.4321 -5.1835,-26.4961 -3.456,-8.064 -8.2564,-15.0398 -14.4004,-20.9278 -6.016,-5.888 -13.0552,-10.4962 -21.1192,-13.8242 -8.064,-3.328 -16.7039,-4.9922 -25.9199,-4.9922 z m 355.5,0 c -9.216,0 -17.8559,1.6642 -25.9199,4.9922 -8.064,3.328 -15.1685,7.9362 -21.3125,13.8242 -6.016,5.888 -10.753,12.8638 -14.209,20.9278 -3.456,8.064 -5.1836,16.8961 -5.1836,26.4961 0,9.472 1.7276,18.304 5.1836,26.496 3.456,8.064 8.193,15.0398 14.209,20.9278 6.016,5.888 13.0551,10.4962 21.1191,13.8242 8.192,3.328 16.8973,4.9922 26.1133,4.9922 9.216,0 17.8559,-1.6642 25.9199,-4.9922 8.192,-3.328 15.2946,-7.9362 21.3106,-13.8242 6.016,-5.888 10.753,-12.8638 14.209,-20.9278 3.456,-8.192 5.1835,-17.024 5.1835,-26.496 0,-9.6 -1.7275,-18.4321 -5.1835,-26.4961 -3.456,-8.064 -8.2564,-15.0398 -14.4004,-20.9278 -6.016,-5.888 -13.0552,-10.4962 -21.1192,-13.8242 -8.064,-3.328 -16.7039,-4.9922 -25.9199,-4.9922 z m -1037.71289,2.1113 v 128.0645 h 14.20703 v -55.6797 h 12.48047 c 7.296,0 13.505,-1.0243 18.625,-3.0723 5.12,-2.048 9.28047,-4.7364 12.48047,-8.0644 3.328,-3.328 5.69551,-7.1675 7.10351,-11.5195 1.536,-4.352 2.30274,-8.7681 2.30274,-13.2481 0,-4.096 -0.76674,-8.6408 -2.30274,-13.6328 -1.536,-5.12 -4.6722,-9.7263 -9.4082,-13.8223 -4.352,-3.712 -9.2158,-6.1448 -14.5918,-7.2968 -5.248,-1.152 -11.13606,-1.7286 -17.66406,-1.7286 z m 338.25,0 v 128.0645 h 66.43164 v -13.4395 h -52.22461 v -49.7285 h 50.68945 v -13.4394 h -50.68945 v -38.0156 h 52.22461 v -13.4415 z m 416.30079,0 v 13.4415 h 31.1035 v 114.623 h 14.209 v -114.623 h 31.1035 v -13.4415 z m 140.1992,0 v 128.0645 h 14.207 v -63.3594 h 42.625 v -13.4414 h -42.625 v -37.8222 h 44.1602 v -13.4415 z m 235.875,0 v 82.3692 c 0,5.376 0.4478,10.6241 1.3438,15.7441 1.024,5.12 3.2647,10.1106 6.7207,14.9746 3.84,5.376 8.9593,9.5999 15.3593,12.6719 6.528,3.072 13.8881,4.6094 22.0801,4.6094 8.192,0 15.4887,-1.5374 21.8887,-4.6094 6.528,-3.072 11.7108,-7.2959 15.5508,-12.6719 3.456,-4.864 5.6333,-9.8546 6.5293,-14.9746 1.024,-5.12 1.5351,-10.3681 1.5351,-15.7441 v -82.3692 h -14.207 v 78.5293 c 0,2.688 -0.065,5.4399 -0.1934,8.2559 -0.128,2.688 -0.5123,5.3745 -1.1523,8.0625 -0.64,2.688 -1.6623,5.3131 -3.0703,7.873 -1.28,2.4321 -3.2017,4.7362 -5.7617,6.9122 -2.56,2.176 -5.8231,3.967 -9.7911,5.375 -3.968,1.28 -7.7441,1.9199 -11.3281,1.9199 -3.584,0 -7.3601,-0.6399 -11.3281,-1.9199 -3.968,-1.408 -7.231,-3.199 -9.791,-5.375 -2.56,-2.176 -4.5452,-4.4801 -5.9532,-6.9122 -1.28,-2.5599 -2.2389,-5.185 -2.8789,-7.873 -0.64,-2.688 -1.0243,-5.3745 -1.1523,-8.0625 -0.128,-2.816 -0.1934,-5.5679 -0.1934,-8.2559 v -78.5293 z m 271.125,0 v 128.0645 h 25.9199 c 5.76,0 10.8794,-0.2556 15.3594,-0.7676 4.48,-0.64 8.5771,-1.6008 12.2891,-2.8808 3.712,-1.28 7.1037,-2.8155 10.1758,-4.6075 3.072,-1.792 6.0794,-3.9673 9.0234,-6.5273 2.304,-1.92 4.7369,-4.2895 7.2969,-7.1055 2.688,-2.944 5.1189,-6.3992 7.2949,-10.3672 2.304,-3.968 4.1603,-8.5128 5.5683,-13.6328 1.536,-5.248 2.3047,-11.2628 2.3047,-18.0468 0,-5.76 -0.5765,-11.0716 -1.7285,-15.9356 -1.152,-4.992 -2.7528,-9.5368 -4.8008,-13.6328 -2.048,-4.096 -4.4155,-7.7434 -7.1035,-10.9434 -2.56,-3.328 -5.3118,-6.2086 -8.2558,-8.6406 -4.096,-3.456 -8.2565,-6.1444 -12.4805,-8.0644 -4.096,-2.048 -8.1911,-3.5835 -12.2871,-4.6075 -4.096,-1.024 -8.0643,-1.6639 -11.9043,-1.9199 -3.84,-0.256 -7.3606,-0.3848 -10.5606,-0.3848 z m -719.5371,11.3282 c 7.168,0 13.8862,1.4086 20.1582,4.2246 6.4,2.688 11.9057,6.3987 16.5137,11.1347 4.736,4.736 8.4467,10.3685 11.1347,16.8965 2.816,6.4 4.2247,13.249 4.2247,20.545 0,7.296 -1.4087,14.2083 -4.2247,20.7363 -2.688,6.4 -6.3987,11.9671 -11.1347,16.7031 -4.608,4.736 -10.1137,8.5121 -16.5137,11.3281 -6.272,2.688 -12.9902,4.0313 -20.1582,4.0313 -7.168,0 -13.9535,-1.3433 -20.3535,-4.0313 -6.27202,-2.816 -11.77573,-6.5921 -16.51173,-11.3281 -4.736,-4.736 -8.44677,-10.3031 -11.13477,-16.7031 -2.688,-6.528 -4.0332,-13.4403 -4.0332,-20.7363 0,-7.296 1.3452,-14.145 4.0332,-20.545 2.688,-6.528 6.39877,-12.1605 11.13477,-16.8965 4.736,-4.736 10.23971,-8.4467 16.51173,-11.1347 6.4,-2.816 13.1855,-4.2246 20.3535,-4.2246 z m 355.5,0 c 7.168,0 13.8862,1.4086 20.1582,4.2246 6.4,2.688 11.9057,6.3987 16.5137,11.1347 4.736,4.736 8.4467,10.3685 11.1347,16.8965 2.816,6.4 4.2247,13.249 4.2247,20.545 0,7.296 -1.4087,14.2083 -4.2247,20.7363 -2.688,6.4 -6.3987,11.9671 -11.1347,16.7031 -4.608,4.736 -10.1137,8.5121 -16.5137,11.3281 -6.272,2.688 -12.9902,4.0313 -20.1582,4.0313 -7.168,0 -13.9535,-1.3433 -20.3535,-4.0313 -6.272,-2.816 -11.7757,-6.5921 -16.5117,-11.3281 -4.736,-4.736 -8.4468,-10.3031 -11.1348,-16.7031 -2.688,-6.528 -4.0332,-13.4403 -4.0332,-20.7363 0,-7.296 1.3452,-14.145 4.0332,-20.545 2.688,-6.528 6.3988,-12.1605 11.1348,-16.8965 4.736,-4.736 10.2397,-8.4467 16.5117,-11.1347 6.4,-2.816 13.1855,-4.2246 20.3535,-4.2246 z m -1023.50586,2.1133 h 10.56055 c 2.304,0 5.05586,0.1902 8.25586,0.5742 3.2,0.384 6.27279,1.3448 9.21679,2.8808 3.072,1.536 5.63169,3.7767 7.67969,6.7207 2.048,2.944 3.07227,6.9757 3.07227,12.0957 0,7.424 -2.43288,13.1833 -7.29688,17.2793 -4.736,3.968 -11.32739,5.9532 -19.77539,5.9532 h -11.71289 z m 1401.74996,0 h 12.4805 c 8.064,0 15.4241,1.2144 22.0801,3.6464 6.656,2.432 12.3519,5.8892 17.0879,10.3692 4.736,4.352 8.3853,9.6635 10.9453,15.9355 2.56,6.144 3.8398,13.0564 3.8398,20.7364 0,9.216 -1.6642,17.0238 -4.9922,23.4238 -3.328,6.272 -7.425,11.4548 -12.289,15.5508 -3.072,2.56 -6.2716,4.6085 -9.5996,6.1445 -3.2,1.536 -6.3996,2.689 -9.5996,3.457 -3.2,0.768 -6.2728,1.2792 -9.2168,1.5352 -2.944,0.256 -5.6959,0.3847 -8.2559,0.3847 h -12.4805 z m -1295.12301,13.8222 21.50391,51.2656 h -43.39258 z"
     id="text3807"
     inkscape:connector-curvature="0" />
</svg>
