<?xml version="1.0" encoding="UTF-8" standalone="no"?>
<svg
   xmlns:dc="http://purl.org/dc/elements/1.1/"
   xmlns:cc="http://creativecommons.org/ns#"
   xmlns:rdf="http://www.w3.org/1999/02/22-rdf-syntax-ns#"
   xmlns:svg="http://www.w3.org/2000/svg"
   xmlns="http://www.w3.org/2000/svg"
   xmlns:sodipodi="http://sodipodi.sourceforge.net/DTD/sodipodi-0.dtd"
   xmlns:inkscape="http://www.inkscape.org/namespaces/inkscape"
   viewBox="0 0 2160 3840"
   height="3840"
   width="2160"
   id="svg3803"
   version="1.1"
   sodipodi:docname="[White] SOLIS Snowflake Mobile Website Landing.svg"
   inkscape:version="0.92.1 r15371">
  <title
     id="title4347">[White] SOLIS Snowflake Mobile Website Landing</title>
  <sodipodi:namedview
     pagecolor="#888888"
     bordercolor="#666666"
     borderopacity="1"
     objecttolerance="10"
     gridtolerance="10"
     guidetolerance="10"
     inkscape:pageopacity="0"
     inkscape:pageshadow="2"
     inkscape:window-width="1920"
     inkscape:window-height="1017"
     id="namedview3802"
     showgrid="true"
     inkscape:zoom="0.15613216"
     inkscape:cx="1952.2139"
     inkscape:cy="1411.4178"
     inkscape:window-x="877"
     inkscape:window-y="2152"
     inkscape:window-maximized="1"
     inkscape:current-layer="svg3803">
    <inkscape:grid
       type="xygrid"
       id="grid3788"
       empspacing="16"
       dotted="true" />
  </sodipodi:namedview>
  <metadata
     id="metadata3809">
    <rdf:RDF>
      <cc:Work
         rdf:about="">
        <dc:format>image/svg+xml</dc:format>
        <dc:type
           rdf:resource="http://purl.org/dc/dcmitype/StillImage" />
        <dc:title>[White] SOLIS Snowflake Mobile Website Landing</dc:title>
        <dc:date>04.19.17</dc:date>
        <dc:creator>
          <cc:Agent>
            <dc:title>Trevor Kerney</dc:title>
          </cc:Agent>
        </dc:creator>
      </cc:Work>
    </rdf:RDF>
  </metadata>
  <defs
     id="defs3807" />
  <rect
     style="opacity:1;fill:#000000;fill-opacity:1;stroke:none;stroke-width:4.99178553;stroke-miterlimit:4;stroke-dasharray:none"
     id="rect3790"
     width="2176"
     height="3840"
     x="0"
     y="4.5474735e-013" />
  <rect
     style="opacity:1;fill:none;fill-opacity:1;stroke:none;stroke-width:2.30904651;stroke-miterlimit:4;stroke-dasharray:none"
     id="rect3805"
     width="4.8676796"
     height="2177.9749"
     x="3840"
     y="1664" />
  <path
     id="rect3815"
     d="m 1876.9762,1891.7571 -278.24,372.3883 -145.7631,-252.4662 -241.9658,139.6984 145.7615,252.4667 -461.6194,54.7699 33.315,280.7888 582.16,-69.0719 168.1052,291.1653 -529.2461,-9.6996 272.0682,451.9037 h -334.334 L 855.954,2864.9972 596.1251,2976.5404 779.5049,3403.7005 H 487.9782 v 279.3971 h 291.5232 l -183.3763,427.1572 259.8289,111.5426 231.2608,-538.6998 h 335.6095 l -273.3408,454.0202 528.0096,-9.678 -166.8687,289.0229 -582.16,-69.0722 -33.315,280.7886 461.6194,54.7716 -145.7615,252.4682 241.9658,139.695 145.7599,-252.4643 278.2432,372.3883 226.5134,-169.2456 -350.8993,-469.6295 167.1867,-289.5766 256.223,463.1904 256.2235,-463.1904 167.1883,289.5735 -350.8989,469.6326 226.5114,169.2456 278.2432,-372.3883 145.7616,252.4643 241.9661,-139.695 -145.7635,-252.4682 461.6194,-54.7716 -33.315,-280.7886 -582.16,69.0722 -166.8669,-289.0229 528.0078,9.678 -273.3408,-454.0202 h 335.6095 l 231.2608,538.6998 259.8287,-111.5426 -183.3762,-427.1572 h 291.5233 v -279.3971 h -291.5269 l 183.3798,-427.1601 -259.8287,-111.5432 -231.2638,538.7033 h -334.3341 l 272.0684,-451.9037 -529.2442,9.6996 168.1051,-291.1653 582.1582,69.0719 33.315,-280.7888 -461.6194,-54.7699 145.7635,-252.4667 -241.9661,-139.6984 -145.7616,252.4662 -278.2432,-372.3883 -226.5114,169.2456 350.8973,469.6292 -167.7867,290.6136 L 2176,2359.1366 1920.377,2821.2455 1752.5903,2530.6319 2103.4896,2061.0027 Z M 2176,2800.668 2306.8913,3037.2894 2176,3264 2045.1096,3037.2894 Z m -643.2217,371.3643 270.3652,4.9555 130.8926,226.7127 h -261.7819 z m 1286.4439,0 -139.4759,231.6682 h -261.7789 l 130.8928,-226.7127 z m -1146.9697,511.0653 h 261.7836 l -130.8911,226.7095 -270.3667,4.9552 z m 745.7149,0 h 261.7806 l 139.4742,231.6647 -270.3655,-4.9552 z M 2176,3822.7945 2306.8928,4049.5041 2176,4286.127 2045.1096,4049.5073 Z"
     style="opacity:1;fill:#ffffff;fill-opacity:1;stroke:none;stroke-width:182.17520142;stroke-miterlimit:4;stroke-dasharray:none"
     inkscape:connector-curvature="0" />
  <text
     xml:space="preserve"
     style="font-style:normal;font-variant:normal;font-weight:normal;font-stretch:normal;font-size:192px;line-height:1.25;font-family:'avenirnext';-inkscape-font-specification:'avenirnext';letter-spacing:0px;word-spacing:0px;fill:#ffffff;fill-opacity:1;stroke:none"
     x="448"
     y="2624"
     id="text3809"><tspan
       sodipodi:role="line"
       id="tspan3807"
       x="448"
       y="2793.1519" /></text>
  <path
     style="font-style:normal;font-variant:normal;font-weight:normal;font-stretch:normal;font-size:400px;line-height:1.25;font-family:'avenirnext';-inkscape-font-specification:'avenirnext';letter-spacing:0px;word-spacing:0px;fill:#ffffff;fill-opacity:1;stroke:none"
     d="m 456.55871,741.8476 c -41.6,0 -90.40039,23.2 -90.40039,78 0,51.2 38.4,67.6012 76,79.2012 36,11.2 69.19922,21.1988 69.19922,60.7988 0,36.4 -33.59883,54.8008 -62.79883,54.8008 -29.6,0 -52.40078,-15.5996 -64.80078,-35.5996 l -24.80078,18.3984 c 20.4,28 54.80117,42 89.20117,42 44.8,0 92.40039,-24.7996 92.40039,-81.5996 0,-56.8 -44,-69.5988 -84,-82.7988 -31.6,-10.4 -61.60156,-19.6016 -61.60156,-55.6016 0,-36.4 32.40039,-53.1992 60.40039,-53.1992 26.8,0 46.40039,11.2004 58.40039,28.4004 l 22.80078,-18.4004 c -13.6,-18.4 -42,-34.4004 -80,-34.4004 z m 278.17969,0 c -84.4,0 -147.59961,62.8008 -147.59961,148.8008 0,86 63.19961,148.7988 147.59961,148.7988 84.4,0 147.60156,-62.7988 147.60156,-148.7988 0,-86 -63.20156,-148.8008 -147.60156,-148.8008 z m 595.2578,0 c -41.6,0 -90.4004,23.2 -90.4004,78 0,51.2 38.4,67.6012 76,79.2012 36,11.2 69.1992,21.1988 69.1992,60.7988 0,36.4 -33.5988,54.8008 -62.7988,54.8008 -29.6,0 -52.4008,-15.5996 -64.8008,-35.5996 l -24.8007,18.3984 c 20.4,28 54.8011,42 89.2011,42 44.8,0 92.4004,-24.7996 92.4004,-81.5996 0,-56.8 -44,-69.5988 -84,-82.7988 -31.6,-10.4 -61.6015,-19.6016 -61.6015,-55.6016 0,-36.4 32.4003,-53.1992 60.4003,-53.1992 26.8,0 46.4004,11.2004 58.4004,28.4004 l 22.8008,-18.4004 c -13.6,-18.4 -42,-34.4004 -80,-34.4004 z m 331.3809,0 -121.2012,290 23.2012,7.5996 120.7988,-289.5996 z m 147.6562,0 -121.2011,290 23.2011,7.5996 120.7989,-289.5996 z m -866.84959,7.2012 v 283.1992 h 160.79879 v -25.5996 h -132 V 749.0488 Z m 203.90629,0 v 283.1992 h 28.7988 V 749.0488 Z m -411.3516,18 c 72.8,0 117.20117,57.5996 117.20117,123.5996 0,66 -44.40117,123.1992 -117.20117,123.1992 -72.8,0 -117.19922,-57.1992 -117.19922,-123.1992 0,-66 44.39922,-123.5996 117.19922,-123.5996 z m -309.03516,317.7519 c -37.50774,0 -65.59375,27.9082 -65.59375,66.127 0,38.2188 27.55273,66.1289 65.59375,66.1289 22.57575,0 38.75066,-10.8438 47.10547,-23.4648 l -9.95313,-6.4004 c -8.71032,12.9766 -22.5759,18.666 -36.97461,18.666 -32.35264,0 -52.26171,-25.599 -52.26171,-54.9297 0,-29.3307 19.73131,-54.9277 52.26171,-54.9277 15.99857,0 28.61832,8.3542 33.95118,16.5312 l 10.66601,-7.8203 c -8.71033,-12.2656 -26.30769,-19.9102 -44.79492,-19.9102 z m 126.0293,0 c -37.50774,0 -65.59375,27.9082 -65.59375,66.127 0,38.2188 28.08601,66.1289 65.59375,66.1289 37.50774,0 65.59375,-27.9101 65.59375,-66.1289 0,-38.2188 -28.08601,-66.127 -65.59375,-66.127 z m 490.58206,0 c -37.5078,0 -65.5957,27.9082 -65.5957,66.127 0,38.2188 27.5546,66.1289 65.5957,66.1289 17.0651,0 33.2401,-4.0886 46.9277,-12.2656 v -56.7071 h -42.1289 v 11.1993 h 29.3301 v 38.2187 c -7.2882,4.7996 -19.7302,8.1777 -33.9512,8.1777 -32.3526,0 -52.2617,-25.4212 -52.2617,-54.7519 0,-29.3307 19.9091,-54.9277 52.2617,-54.9277 15.6431,0 27.7311,5.3325 36.4414,14.5761 l 8.8867,-8.8886 c -10.6657,-10.488 -25.5965,-16.8868 -45.5058,-16.8868 z m 159.6816,0 c -18.4872,0 -40.1738,10.3107 -40.1738,34.6641 0,22.7535 17.0658,30.0422 33.7754,35.1973 15.9985,4.9773 30.7519,9.4211 30.7519,27.0195 0,16.1763 -14.9316,24.3535 -27.9082,24.3535 -13.1543,0 -23.2862,-6.9342 -28.7968,-15.8222 l -11.0215,8.1777 c 9.0658,12.4433 24.3531,18.666 39.6406,18.666 19.9093,0 41.0625,-11.0215 41.0625,-36.2637 0,-25.2421 -19.5539,-30.9307 -37.3301,-36.7968 -14.0432,-4.6219 -27.375,-8.7105 -27.375,-24.709 0,-16.1764 14.3985,-23.6426 26.8418,-23.6426 11.9101,0 20.6203,4.9773 25.9531,12.6211 l 10.1329,-8.1777 c -6.0439,-8.1771 -18.6654,-15.2872 -35.5528,-15.2872 z m 123.625,0 c -37.5077,0 -65.5937,27.9082 -65.5937,66.127 0,38.2188 28.086,66.1289 65.5937,66.1289 37.5078,0 65.5938,-27.9101 65.5938,-66.1289 0,-38.2188 -28.086,-66.127 -65.5938,-66.127 z m 151.0293,0 c -37.5077,0 -65.5957,27.9082 -65.5957,66.127 0,38.2188 28.088,66.1289 65.5957,66.1289 37.5078,0 65.5938,-27.9101 65.5938,-66.1289 0,-38.2188 -28.086,-66.127 -65.5938,-66.127 z M 643.92199,1088 v 125.8554 h 12.79883 v -109.3222 h 0.35547 l 45.50781,109.3222 h 6.75391 l 45.50781,-109.3222 h 0.35547 v 109.3222 h 12.79882 V 1088 h -19.55468 l -42.12891,104.1699 h -0.17773 L 663.47668,1088 Z m 157.625,0 v 125.8554 h 12.79883 V 1088 Z m 46.17578,0 v 125.8554 h 12.79883 v -108.2558 h 0.35547 l 73.23828,108.2558 H 950.1134 V 1088 h -12.79883 v 107.1914 H 936.9591 L 863.72082,1088 Z m 721.11523,0 v 125.8554 h 12.7988 v -108.2558 h 0.3555 l 73.2383,108.2558 h 15.998 V 1088 h -12.7988 v 107.1914 h -0.3555 L 1584.838,1088 Z m -1017.10546,8 c 32.35264,0 52.08398,25.597 52.08398,54.9277 0,29.3307 -19.73134,54.7519 -52.08398,54.7519 -32.35265,0 -52.08399,-25.4212 -52.08399,-54.7519 0,-29.3307 19.73134,-54.9277 52.08399,-54.9277 z m 773.88866,0 c 32.3527,0 52.084,25.597 52.084,54.9277 0,29.3307 -19.7313,54.7519 -52.084,54.7519 -32.3526,0 -52.084,-25.4212 -52.084,-54.7519 0,-29.3307 19.7314,-54.9277 52.084,-54.9277 z m 151.0293,0 c 32.3527,0 52.084,25.597 52.084,54.9277 0,29.3307 -19.7313,54.7519 -52.084,54.7519 -32.3526,0 -52.084,-25.4212 -52.084,-54.7519 0,-29.3307 19.7314,-54.9277 52.084,-54.9277 z m 234.3399,99.7246 c -5.6884,0 -9.5996,4.6222 -9.5997,9.5996 0,4.9773 3.9113,9.5976 9.5997,9.5976 5.6883,0 9.5996,-4.6203 9.5996,-9.5976 0,-4.9774 -3.9113,-9.5996 -9.5996,-9.5996 z"
     id="text3831"
     inkscape:connector-curvature="0" />
</svg>
