<?xml version="1.0" encoding="UTF-8" standalone="no"?>
<svg
   xmlns:dc="http://purl.org/dc/elements/1.1/"
   xmlns:cc="http://creativecommons.org/ns#"
   xmlns:rdf="http://www.w3.org/1999/02/22-rdf-syntax-ns#"
   xmlns:svg="http://www.w3.org/2000/svg"
   xmlns="http://www.w3.org/2000/svg"
   xmlns:sodipodi="http://sodipodi.sourceforge.net/DTD/sodipodi-0.dtd"
   xmlns:inkscape="http://www.inkscape.org/namespaces/inkscape"
   viewBox="0 0 2160 3840"
   height="3840"
   width="2160"
   id="svg3803"
   version="1.1"
   sodipodi:docname="[White] SOLIS Snowflake Mobile Website Landing.svg"
   inkscape:version="0.92.1 r15371">
  <title
     id="title4347">[White] SOLIS Snowflake Mobile Website Landing</title>
  <sodipodi:namedview
     pagecolor="#888888"
     bordercolor="#666666"
     borderopacity="1"
     objecttolerance="10"
     gridtolerance="10"
     guidetolerance="10"
     inkscape:pageopacity="0"
     inkscape:pageshadow="2"
     inkscape:window-width="1920"
     inkscape:window-height="1017"
     id="namedview3802"
     showgrid="true"
     inkscape:zoom="0.078066081"
     inkscape:cx="1522.4566"
     inkscape:cy="-128.02167"
     inkscape:window-x="877"
     inkscape:window-y="2152"
     inkscape:window-maximized="1"
     inkscape:current-layer="svg3803">
    <inkscape:grid
       type="xygrid"
       id="grid3788"
       empspacing="16"
       dotted="true" />
  </sodipodi:namedview>
  <metadata
     id="metadata3809">
    <rdf:RDF>
      <cc:Work
         rdf:about="">
        <dc:format>image/svg+xml</dc:format>
        <dc:type
           rdf:resource="http://purl.org/dc/dcmitype/StillImage" />
        <dc:title>[White] SOLIS Snowflake Mobile Website Landing</dc:title>
        <dc:date>04.19.17</dc:date>
        <dc:creator>
          <cc:Agent>
            <dc:title>Trevor Kerney</dc:title>
          </cc:Agent>
        </dc:creator>
      </cc:Work>
    </rdf:RDF>
  </metadata>
  <defs
     id="defs3807" />
  <rect
     style="opacity:1;fill:#000000;fill-opacity:1;stroke:none;stroke-width:70;stroke-miterlimit:4;stroke-dasharray:none"
     id="rect4787"
     width="2176"
     height="3840"
     x="0"
     y="0" />
  <path
     id="rect3815"
     d="m 1876.9762,1891.7571 -278.24,372.3883 -145.7631,-252.4662 -241.9658,139.6984 145.7615,252.4667 -461.6194,54.7699 33.315,280.7888 582.16,-69.0719 168.1052,291.1653 -529.2461,-9.6996 272.0682,451.9037 h -334.334 L 855.954,2864.9972 596.1251,2976.5404 779.5049,3403.7005 H 487.9782 v 279.3971 h 291.5232 l -183.3763,427.1572 259.8289,111.5426 231.2608,-538.6998 h 335.6095 l -273.3408,454.0202 528.0096,-9.678 -166.8687,289.0229 -582.16,-69.0722 -33.315,280.7886 461.6194,54.7716 -145.7615,252.4682 241.9658,139.695 145.7599,-252.4643 278.2432,372.3883 226.5134,-169.2456 -350.8993,-469.6295 167.1867,-289.5766 256.223,463.1904 256.2235,-463.1904 167.1883,289.5735 -350.8989,469.6326 226.5114,169.2456 278.2432,-372.3883 145.7616,252.4643 241.9661,-139.695 -145.7635,-252.4682 461.6194,-54.7716 -33.315,-280.7886 -582.16,69.0722 -166.8669,-289.0229 528.0078,9.678 -273.3408,-454.0202 h 335.6095 l 231.2608,538.6998 259.8287,-111.5426 -183.3762,-427.1572 h 291.5233 v -279.3971 h -291.5269 l 183.3798,-427.1601 -259.8287,-111.5432 -231.2638,538.7033 h -334.3341 l 272.0684,-451.9037 -529.2442,9.6996 168.1051,-291.1653 582.1582,69.0719 33.315,-280.7888 -461.6194,-54.7699 145.7635,-252.4667 -241.9661,-139.6984 -145.7616,252.4662 -278.2432,-372.3883 -226.5114,169.2456 350.8973,469.6292 -167.7867,290.6136 L 2176,2359.1366 1920.377,2821.2455 1752.5903,2530.6319 2103.4896,2061.0027 Z M 2176,2800.668 2306.8913,3037.2894 2176,3264 2045.1096,3037.2894 Z m -643.2217,371.3643 270.3652,4.9555 130.8926,226.7127 h -261.7819 z m 1286.4439,0 -139.4759,231.6682 h -261.7789 l 130.8928,-226.7127 z m -1146.9697,511.0653 h 261.7836 l -130.8911,226.7095 -270.3667,4.9552 z m 745.7149,0 h 261.7806 l 139.4742,231.6647 -270.3655,-4.9552 z M 2176,3822.7945 2306.8928,4049.5041 2176,4286.127 2045.1096,4049.5073 Z"
     style="opacity:1;fill:#ffffff;fill-opacity:1;stroke:none;stroke-width:182.17520142;stroke-miterlimit:4;stroke-dasharray:none"
     inkscape:connector-curvature="0" />
  <text
     xml:space="preserve"
     style="font-style:normal;font-variant:normal;font-weight:normal;font-stretch:normal;font-size:192px;line-height:1.25;font-family:'Avenir Next LT Pro';-inkscape-font-specification:'Avenir Next LT Pro';letter-spacing:0px;word-spacing:0px;fill:#ffffff;fill-opacity:1;stroke:none"
     x="448"
     y="2624"
     id="text3809"><tspan
       sodipodi:role="line"
       id="tspan3807"
       x="448"
       y="2793.1519" /></text>
  <path
     style="font-style:normal;font-variant:normal;font-weight:normal;font-stretch:normal;font-size:400px;line-height:1.25;font-family:'Avenir Next LT Pro';-inkscape-font-specification:'Avenir Next LT Pro';letter-spacing:0px;word-spacing:0px;fill:#ffffff;fill-opacity:1;stroke:none"
     d="m 427.26467,759.19917 c -41.6,0 -90.40039,23.2 -90.40039,78 0,51.2 38.4,67.60117 76,79.20117 36,11.2 69.19922,21.19883 69.19922,60.79883 0,36.40003 -33.59883,54.80083 -62.79883,54.80083 -29.6,0 -52.40078,-15.5996 -64.80078,-35.59966 l -24.80078,18.39846 c 20.4,28 54.80117,42 89.20117,42 44.8,0 92.40039,-24.7996 92.40039,-81.59963 0,-56.8 -44,-69.59883 -84,-82.79883 -31.6,-10.4 -61.60156,-19.60156 -61.60156,-55.60156 0,-36.4 32.40039,-53.19922 60.40039,-53.19922 26.8,0 46.40039,11.20039 58.40039,28.40039 l 22.80078,-18.40039 c -13.6,-18.4 -42,-34.40039 -80,-34.40039 z m 278.17969,0 c -84.4,0 -147.59961,62.80078 -147.59961,148.80078 0,86 63.19961,148.79885 147.59961,148.79885 84.4,0 147.60156,-62.79885 147.60156,-148.79885 0,-86 -63.20156,-148.80078 -147.60156,-148.80078 z m 595.25774,0 c -41.6,0 -90.4004,23.2 -90.4004,78 0,51.2 38.4,67.60117 76,79.20117 36,11.2 69.1992,21.19883 69.1992,60.79883 0,36.40003 -33.5988,54.80083 -62.7988,54.80083 -29.6,0 -52.4008,-15.5996 -64.8008,-35.59966 l -24.8008,18.39846 c 20.4001,28 54.8012,42 89.2012,42 44.8,0 92.4004,-24.7996 92.4004,-81.59963 0,-56.8 -44,-69.59883 -84,-82.79883 -31.6,-10.4 -61.6016,-19.60156 -61.6016,-55.60156 0,-36.4 32.4004,-53.19922 60.4004,-53.19922 26.8,0 46.4004,11.20039 58.4004,28.40039 l 22.8008,-18.40039 c -13.6,-18.4 -42,-34.40039 -80,-34.40039 z m 331.3809,0 -121.2012,290.00003 23.2012,7.5996 120.7988,-289.59963 z m 147.6562,0 -121.2011,290.00003 23.2011,7.5996 120.7989,-289.59963 z m -866.84954,7.20117 V 1049.5996 H 1073.6884 V 1024 H 941.6885 V 766.40034 Z m 203.90624,0 v 283.19926 h 28.7988 V 766.40034 Z m -411.35155,18 c 72.8,0 117.20118,57.59961 117.20118,123.59961 0,66 -44.40117,123.19925 -117.20118,123.19925 -72.79999,0 -117.19922,-57.19925 -117.19922,-123.19925 0,-66 44.39923,-123.59961 117.19922,-123.59961 z m 714.97655,307.16016 c -21.312,0 -37.8241,14.0148 -41.6641,33.2148 l 13.6309,2.6895 c 2.88,-14.016 13.4412,-24.1934 28.0332,-24.1934 14.592,0 26.8789,10.176 26.8789,25.92 0,12.48 -8.0643,22.6574 -16.3203,31.1054 l -55.6797,56.2559 v 14.3984 h 86.9765 v -12.2871 h -72 l 48.959,-48.5762 c 11.904,-11.904 22.0801,-23.6158 22.0801,-41.0878 0,-24.768 -19.0065,-37.4395 -40.8945,-37.4395 z m 112.1425,0 c -34.176,0 -44.5449,36.2872 -44.5449,71.6152 0,35.328 10.3689,71.2325 44.5449,71.2325 33.792,0 44.543,-35.9045 44.543,-71.2325 0,-35.328 -10.751,-71.6152 -44.543,-71.6152 z m 222.75,0 c -20.736,0 -38.4004,14.2071 -38.4003,36.2871 0,14.016 8.4489,26.6887 20.5449,30.7207 v 0.3828 c -14.784,4.416 -25.7285,18.0491 -25.7285,36.2891 0,23.808 20.3519,39.168 43.5839,39.168 23.232,0 43.584,-15.36 43.584,-39.168 0,-18.24 -10.9445,-32.0651 -25.7285,-36.2891 v -0.3828 c 12.096,-4.032 20.5449,-16.7047 20.5449,-30.7207 0,-22.08 -17.6644,-36.2871 -38.4004,-36.2871 z m -616.2578,3.4551 v 135.9355 h 13.8242 v -135.9355 z m 49.875,0 v 135.9355 h 13.8242 v -116.9277 h 0.3848 l 79.1035,116.9277 h 17.2793 v -135.9355 h -13.8222 v 115.7773 h -0.3848 l -79.1035,-115.7773 z m 455.7754,0 -34.5605,28.416 8.4492,9.5996 24.5762,-20.9277 v 118.8476 h 13.8242 v -135.9355 z m -1248.29681,7.1367 c -37.50774,0 -65.5938,27.9081 -65.59375,66.127 0,38.2188 27.55278,66.1289 65.59375,66.1289 22.57575,0 38.75066,-10.8439 47.10547,-23.4649 l -9.95312,-6.4004 c -8.71032,12.9766 -22.5759,18.666 -36.97461,18.666 -32.35264,0 -52.26172,-25.599 -52.26172,-54.9296 0,-29.3307 19.73132,-54.9278 52.26172,-54.9278 15.99857,0 28.61831,8.3543 33.95117,16.5313 l 10.66602,-7.8203 c -8.71033,-12.2656 -26.30765,-19.9102 -44.79493,-19.9102 z m 126.0293,0 c -37.50774,0 -65.59375,27.9081 -65.59375,66.127 0,38.2188 28.08601,66.1289 65.59375,66.1289 37.50774,0 65.59375,-27.9101 65.59375,-66.1289 0,-38.2189 -28.08601,-66.127 -65.59375,-66.127 z m 490.58201,0 c -37.50778,0 -65.59568,27.9081 -65.59568,66.127 0,38.2188 27.5546,66.1289 65.59568,66.1289 17.0651,0 33.2401,-4.0887 46.9277,-12.2657 v -56.707 h -42.1289 v 11.1992 h 29.3301 v 38.2188 c -7.2882,4.7996 -19.7302,8.1777 -33.9512,8.1777 -32.35255,0 -52.26166,-25.4212 -52.26166,-54.7519 0,-29.3307 19.90911,-54.9278 52.26166,-54.9278 15.6431,0 27.7311,5.3326 36.4414,14.5762 l 8.8867,-8.8887 c -10.6657,-10.488 -25.5965,-16.8867 -45.5058,-16.8867 z m 519.5429,1.1191 c 23.808,0 30.5274,32.8323 30.5274,59.9043 0,27.072 -6.7194,59.3282 -30.5274,59.3282 -24.192,0 -30.5273,-32.2562 -30.5273,-59.3282 0,-27.072 6.3353,-59.9043 30.5273,-59.9043 z m 222.75,0 c 14.208,0 24.959,10.7518 24.959,25.3438 0,14.208 -11.135,24.3848 -24.959,24.3848 -13.824,0 -24.9609,-10.1768 -24.9609,-24.3848 0,-14.592 10.7529,-25.3438 24.9609,-25.3438 z m -1140.68546,2.0801 v 125.8555 h 12.79883 v -109.3223 h 0.35547 l 45.50781,109.3223 h 6.75391 l 45.50781,-109.3223 h 0.35547 v 109.3223 h 12.79883 v -125.8555 h -19.55469 l -42.12891,104.1699 h -0.17773 l -42.66211,-104.1699 z m 157.625,0 v 125.8555 h 12.79883 v -125.8555 z m 46.17579,0 v 125.8555 h 12.79882 v -108.2559 h 0.35547 l 73.23828,108.2559 h 15.99805 v -125.8555 h -12.79882 v 107.1914 h -0.35547 l -73.23828,-107.1914 z m -295.99024,8 c 32.35264,0 52.08399,25.597 52.08398,54.9278 0,29.3306 -19.73134,54.7519 -52.08398,54.7519 -32.35265,0 -52.08398,-25.4213 -52.08398,-54.7519 0,-29.3307 19.73133,-54.9278 52.08398,-54.9278 z m 1232.87491,51.9375 c 17.856,0 29.7598,12.096 29.7598,28.416 0,16.512 -11.9038,28.9903 -29.7598,28.9903 -17.856,0 -29.7597,-12.4783 -29.7597,-28.9903 0,-16.32 11.9037,-28.416 29.7597,-28.416 z m 80.6543,46.0781 c -6.144,0 -10.3671,4.9932 -10.3672,10.3692 0,5.376 4.2232,10.3672 10.3672,10.3672 6.144,0 10.3692,-4.9912 10.3692,-10.3672 0,-5.376 -4.2252,-10.3692 -10.3692,-10.3692 z"
     id="text3831"
     inkscape:connector-curvature="0" />
  <path
     id="text3831-0"
     style="font-style:normal;font-variant:normal;font-weight:normal;font-stretch:normal;font-size:400px;line-height:1.25;font-family:'Avenir Next LT Pro';-inkscape-font-specification:'Avenir Next LT Pro';letter-spacing:0px;word-spacing:0px;fill:none;fill-opacity:1;stroke:none"
     d="m 734.73828,741.84766 c -1.71646,0 -3.42255,0.0323 -5.12109,0.084 13.9993,4.65159 27.70133,10.25655 41.34961,15.81055 21.16435,8.61258 14.02996,5.64224 31.05273,12.89062 16.83111,8.26859 33.49031,16.97945 49.66406,26.49805 -26.5077,-34.29732 -68.17672,-55.2832 -116.94531,-55.2832 z m 595.25782,0 c -41.6,0 -90.4004,23.2 -90.4004,78 0,51.2 38.4,67.60117 76,79.20117 36,11.2 69.1992,21.19883 69.1992,60.79883 0,36.4 -33.5988,54.80074 -62.7988,54.80074 -29.6,0 -52.4008,-15.59957 -64.8008,-35.59957 l -24.8008,18.39844 c 15.1091,20.73803 37.9007,33.78743 62.6817,39.16603 3.8373,-2e-4 7.6744,-7e-4 11.5117,0 4.5688,0 9.1364,-0.01 13.7051,0 4.4917,0.01 8.9831,0.017 13.4746,-0.035 0.971,0 9.2662,-0.08 8.8125,0.1875 2.1894,-0.2342 4.3204,-0.4064 6.4277,-0.5117 34.868,-8.311 64.9883,-33.2267 64.9883,-78.40624 0,-56.8 -44,-69.59883 -84,-82.79883 -31.6,-10.4 -61.6016,-19.60156 -61.6016,-55.60156 0,-36.4 32.4004,-53.19922 60.4004,-53.19922 26.8,0 46.4004,11.20039 58.4004,28.40039 l 22.8008,-18.40039 c -13.6,-18.4 -42,-34.40039 -80,-34.40039 z m 331.3809,0 -121.2012,290.00004 23.2012,7.5996 120.7988,-289.59964 z m 147.6562,0 -121.2012,290.00004 23.2012,7.5996 120.7988,-289.59964 z m -866.84961,7.20117 v 74.68359 c 6.44709,1.65703 12.77325,3.80132 18.89453,6.76953 3.31476,1.49228 6.61056,3.02683 9.9043,4.56446 v -86.01758 z m 203.90621,0 V 1032.248 h 28.7989 V 749.04883 Z m -749.89449,58.63281 c -9.71891,0.0178 -19.49909,0.31083 -29.22265,0.33594 -0.52925,3.76863 -0.81446,7.70663 -0.81446,11.83008 0,51.2 38.4,67.60117 76,79.20117 0.6819,0.21214 1.35352,0.42327 2.03321,0.63476 0.25896,-0.57305 0.50008,-1.12573 0.77343,-1.71679 -1.17309,0.85881 -0.17771,-0.77839 1.52539,-3.22852 0.20683,-0.43249 0.39349,-0.83682 0.60743,-1.2793 1.62069,-3.35207 6.68607,-9.81673 9.79882,-12.98632 1.06973,-1.41837 2.13726,-2.83818 3.20508,-4.25782 -1.18114,-0.38833 -2.36751,-0.77811 -3.54297,-1.16601 -31.6,-10.4 -61.60156,-19.60156 -61.60156,-55.60156 0,-4.1817 0.43681,-8.09884 1.23828,-11.76563 z m 233.50196,170.09375 c -4.17821,0.96376 -8.29365,2.17966 -12.44141,3.26758 0.21402,-0.0895 0.86814,-0.31483 0.64062,-0.26953 -0.76813,0.1529 -1.53032,0.33372 -2.29492,0.5039 11.22985,15.33621 25.41071,28.15886 41.86524,37.82816 -0.001,-1.4967 0.0283,-2.9942 0.1289,-4.4961 -0.40977,-2.2132 -0.9645,-4.4056 -1.22851,-6.6406 -0.0233,-0.1971 0.53421,0.536 0.48633,0.3437 -1.12555,-4.521 -2.74739,-8.9042 -4.13282,-13.35352 -0.60294,-1.48669 -0.9174,-3.11278 -1.45898,-4.6289 0.18136,0.38673 0.18857,0.40222 0.32031,0.68359 -0.0257,-0.0979 -0.0548,-0.19493 -0.0801,-0.29297 -0.008,-0.032 -0.008,-0.0366 -0.0137,-0.0625 -0.53146,-1.22506 -1.21461,-2.81315 -2.0664,-4.88086 -0.29945,-0.72679 -1.35567,-2.78993 -0.82618,-2.20898 0.0421,0.0462 0.0933,0.12225 0.13868,0.17969 -0.96498,-1.73666 -1.67163,-3.03444 -2.00782,-3.66797 -6.59974,0.0314 -13.1924,-0.17368 -19.77734,-0.72852 0.0203,-0.78688 1.92008,-1.36511 2.74805,-1.57617 z m 366.63085,28.87301 c 0.20565,1.7536 0.41032,3.5079 0.61719,5.2598 2.92066,24.7335 -0.0474,-3.6653 2.24414,18.9805 0.004,0.4524 0.002,0.9067 0.006,1.3593 h 14.56249 c -0.9471,-2.9481 -1.9178,-5.8871 -3.0664,-8.7578 -0.579,-1.447 -2.2106,-3.7565 -2.9082,-5.1464 -1.3123,-2.6146 -2.523,-5.2784 -3.7754,-7.9219 -1.2751,-0.9351 -2.1121,-2.3139 -2.873,-3.7735 z m -216.75781,10.7188 c 0.0516,1.1952 0.0763,1.9875 0.15039,3.5058 0.0139,0.2844 0.0577,-0.9073 0.31836,-0.7929 0.33199,0.1456 0.22172,0.6939 0.27344,1.0527 0.36089,2.5041 0.78987,5.0052 0.96289,7.5293 0.0887,1.2943 0.13615,2.5901 0.17383,3.8867 2.07319,-0.6406 4.12364,-1.3238 6.15039,-2.0488 -0.0655,-0.1076 -0.13174,-0.2147 -0.19727,-0.3223 -1.46489,-2.6052 -2.75759,-5.3137 -4.39453,-7.8144 -1.10764,-1.6921 -2.26486,-3.3507 -3.4375,-4.9961 z m -227.83789,67.4336 c -37.50774,0 -65.59375,27.9081 -65.59375,66.1269 0,38.2188 28.08601,66.1289 65.59375,66.1289 37.50774,0 65.59375,-27.9101 65.59375,-66.1289 0,-38.2188 -28.08601,-66.1269 -65.59375,-66.1269 z m -111.50976,1.6074 c -3.60419,3.2277 -7.20169,6.4637 -10.75196,9.748 14.28254,1.1306 25.4349,8.8214 30.36133,16.375 l 10.66602,-7.8203 c -6.37451,-8.9763 -17.51599,-15.4613 -30.27539,-18.3027 z M 643.92188,1088 v 100.3828 c 0.5742,-0.205 1.15492,-0.3989 1.73046,-0.6016 2.66282,-11.9094 3.99326,-24.0189 6.54493,-35.9433 1.21323,-7.9741 2.10538,-15.7619 4.1582,-23.5508 0.12371,-0.4693 0.051,0.9703 0.0762,1.4551 0.0964,-0.7311 0.19272,-1.4622 0.28906,-2.1934 v -23.0176 h 0.35547 l 1.87891,4.5118 c 0.007,-7.0144 0.006,-14.0287 0.004,-21.043 z m 157.625,0 v 56.4062 c 1.18709,-0.2842 2.37873,-0.5464 3.56835,-0.8183 0.0736,-0.5135 0.14104,-1.0282 0.21875,-1.541 0.21527,-1.4207 0.70597,-2.807 0.77735,-4.2422 0.14526,-2.9206 -0.0901,-5.8476 -0.12891,-8.7715 -0.0334,-2.5228 -0.0587,-5.0456 -0.0879,-7.5684 0.45822,-11.1736 2.10385,-22.253 1.02735,-33.4648 z m 216.68752,1.0059 c -10.3166,3.8031 -19.22666,10.0536 -26.11721,18.1757 -1.01284,3.809 -2.08893,7.6026 -3.08203,11.4161 -0.42141,1.4991 -0.85169,2.9933 -1.28711,4.4843 2.09431,-0.1796 4.19172,-0.3292 6.29297,-0.4179 1.04356,-0.064 2.08858,-0.096 3.13476,-0.1153 4.47762,-8.3092 11.01952,-15.2606 19.31442,-19.9648 0.2538,-1.7202 0.5275,-3.4383 0.7657,-5.1602 0.092,-1.3606 0.092,-2.7295 0.2773,-4.08 0.1996,-1.4506 0.447,-2.8951 0.7012,-4.3379 z M 551.73242,1096 c 32.35264,0 52.08399,25.597 52.08399,54.9277 0,29.3307 -19.73135,54.752 -52.08399,54.752 -32.35265,0 -52.08398,-25.4213 -52.08398,-54.752 0,-29.3307 19.73133,-54.9277 52.08398,-54.9277 z m -177.87304,60.4453 c -3.75872,4.4911 -7.52235,8.9787 -11.30469,13.4492 7.51014,28.1352 31.74707,47.1621 63.14843,47.1621 22.57577,0 38.75066,-10.8438 47.10547,-23.4648 l -9.95312,-6.4004 c -8.71032,12.9766 -22.5759,18.666 -36.97461,18.666 -30.30554,0 -49.68942,-22.4617 -52.02148,-49.4121 z" />
</svg>
