<?xml version="1.0" encoding="UTF-8" standalone="no"?>
<svg
   xmlns:dc="http://purl.org/dc/elements/1.1/"
   xmlns:cc="http://creativecommons.org/ns#"
   xmlns:rdf="http://www.w3.org/1999/02/22-rdf-syntax-ns#"
   xmlns:svg="http://www.w3.org/2000/svg"
   xmlns="http://www.w3.org/2000/svg"
   xmlns:sodipodi="http://sodipodi.sourceforge.net/DTD/sodipodi-0.dtd"
   xmlns:inkscape="http://www.inkscape.org/namespaces/inkscape"
   viewBox="0 0 3840 2160"
   height="2160"
   width="3840"
   id="svg3803"
   version="1.1"
   sodipodi:docname="[White] SOLIS Snowflake Website Landing.svg"
   inkscape:version="0.92.1 r15371">
  <title
     id="title4347">[White] SOLIS Snowflake Website Landing</title>
  <sodipodi:namedview
     pagecolor="#888888"
     bordercolor="#666666"
     borderopacity="1"
     objecttolerance="10"
     gridtolerance="10"
     guidetolerance="10"
     inkscape:pageopacity="0"
     inkscape:pageshadow="2"
     inkscape:window-width="1920"
     inkscape:window-height="1017"
     id="namedview3802"
     showgrid="true"
     inkscape:zoom="0.1668772"
     inkscape:cx="2711.6602"
     inkscape:cy="553.28446"
     inkscape:window-x="877"
     inkscape:window-y="2152"
     inkscape:window-maximized="1"
     inkscape:current-layer="svg3803">
    <inkscape:grid
       type="xygrid"
       id="grid3788"
       empspacing="16"
       dotted="true" />
  </sodipodi:namedview>
  <metadata
     id="metadata3809">
    <rdf:RDF>
      <cc:Work
         rdf:about="">
        <dc:format>image/svg+xml</dc:format>
        <dc:type
           rdf:resource="http://purl.org/dc/dcmitype/StillImage" />
        <dc:title>[White] SOLIS Snowflake Website Landing</dc:title>
        <dc:date>04.19.17</dc:date>
        <dc:creator>
          <cc:Agent>
            <dc:title>Trevor Kerney</dc:title>
          </cc:Agent>
        </dc:creator>
      </cc:Work>
    </rdf:RDF>
  </metadata>
  <defs
     id="defs3807" />
  <rect
     style="opacity:1;fill:#000000;fill-opacity:1;stroke:none;stroke-width:4.99178553;stroke-miterlimit:4;stroke-dasharray:none"
     id="rect3790"
     width="3840"
     height="2176"
     x="0"
     y="-16" />
  <rect
     style="opacity:1;fill:none;fill-opacity:1;stroke:none;stroke-width:2.30904651;stroke-miterlimit:4;stroke-dasharray:none"
     id="rect3805"
     width="4.8676796"
     height="2177.9749"
     x="3840"
     y="-16" />
  <path
     id="rect3815"
     d="m 3540.9762,244.96261 -278.24,372.3883 -145.7631,-252.46617 -241.9658,139.69839 145.7615,252.46668 -461.6194,54.76992 33.315,280.78877 582.16,-69.0719 168.1052,291.1653 -529.2461,-9.6996 272.0682,451.9037 h -334.334 l -231.2637,-538.7033 -259.8289,111.5432 183.3798,427.1601 h -291.5267 v 279.3971 h 291.5232 l -183.3763,427.1572 259.8289,111.5426 231.2608,-538.6998 h 335.6095 l -273.3408,454.0202 528.0096,-9.678 -166.8687,289.0229 -582.16,-69.0722 -33.315,280.7886 461.6194,54.7716 -145.7615,252.4682 241.9658,139.695 145.7599,-252.4643 278.2432,372.3883 226.5134,-169.2456 -350.8993,-469.6295 167.1867,-289.5766 256.223,463.1904 256.2235,-463.1904 167.1883,289.5735 -350.8989,469.6326 226.5114,169.2456 278.2432,-372.3883 145.7616,252.4643 241.9661,-139.695 -145.7635,-252.4682 461.6194,-54.7716 -33.315,-280.7886 -582.16,69.0722 -166.8669,-289.0229 528.0078,9.678 -273.3408,-454.0202 h 335.6095 l 231.2608,538.6998 259.8287,-111.5426 -183.3762,-427.1572 h 291.5233 V 1756.906 h -291.5269 l 183.3798,-427.1601 -259.8287,-111.5432 -231.2638,538.7033 h -334.3341 l 272.0684,-451.9037 -529.2442,9.6996 168.1051,-291.1653 582.1582,69.0719 33.315,-280.78877 L 4659.2317,757.04981 4804.9952,504.58313 4563.0291,364.88474 4417.2675,617.35091 4139.0243,244.96261 3912.5129,414.20819 4263.4102,883.8374 4095.6235,1174.451 3840,712.34205 3584.377,1174.451 3416.5903,883.8374 3767.4896,414.20819 Z M 3840,1153.8735 3970.8913,1390.4949 3840,1617.2055 3709.1096,1390.4949 Z m -643.2217,371.3643 270.3652,4.9555 130.8926,226.7127 h -261.7819 z m 1286.4439,0 -139.4759,231.6682 h -261.7789 l 130.8928,-226.7127 z m -1146.9697,511.0653 h 261.7836 l -130.8911,226.7095 -270.3667,4.9552 z m 745.7149,0 h 261.7806 l 139.4742,231.6647 -270.3655,-4.9552 z M 3840,2176 3970.8928,2402.7096 3840,2639.3325 3709.1096,2402.7128 Z"
     style="opacity:1;fill:#ffffff;fill-opacity:1;stroke:none;stroke-width:182.17520142;stroke-miterlimit:4;stroke-dasharray:none"
     inkscape:connector-curvature="0" />
  <text
     xml:space="preserve"
     style="font-style:normal;font-variant:normal;font-weight:normal;font-stretch:normal;font-size:192px;line-height:1.25;font-family:'Avenir Next LT Pro';-inkscape-font-specification:'Avenir Next LT Pro';letter-spacing:0px;word-spacing:0px;fill:#ffffff;fill-opacity:1;stroke:none;"
     x="448"
     y="944"
     id="text3809"><tspan
       sodipodi:role="line"
       id="tspan3807"
       x="448"
       y="1113.152" /></text>
  <text
     xml:space="preserve"
     style="font-style:normal;font-variant:normal;font-weight:normal;font-stretch:normal;font-size:192px;line-height:1.25;font-family:'Avenir Next LT Pro';-inkscape-font-specification:'Avenir Next LT Pro';letter-spacing:0px;word-spacing:0px;fill:#000000;fill-opacity:1;stroke:none"
     x="768"
     y="1008"
     id="text3813"><tspan
       sodipodi:role="line"
       id="tspan3811"
       x="768"
       y="1008">SOLIS</tspan></text>
  <path
     style="font-style:normal;font-variant:normal;font-weight:normal;font-stretch:normal;font-size:400px;line-height:1.25;font-family:'Avenir Next LT Pro';-inkscape-font-specification:'Avenir Next LT Pro';letter-spacing:0px;word-spacing:0px;fill:#ffffff;fill-opacity:1;stroke:none"
     d="M 426.57422 883.22852 C 384.97422 883.22852 336.17383 906.42852 336.17383 961.22852 C 336.17383 1012.4285 374.57383 1028.8297 412.17383 1040.4297 C 448.17383 1051.6297 481.37305 1061.6285 481.37305 1101.2285 C 481.37305 1137.6285 447.77422 1156.0293 418.57422 1156.0293 C 388.97422 1156.0293 366.17344 1140.4297 353.77344 1120.4297 L 328.97266 1138.8281 C 349.37266 1166.8281 383.77383 1180.8281 418.17383 1180.8281 C 462.97383 1180.8281 510.57422 1156.0285 510.57422 1099.2285 C 510.57422 1042.4285 466.57422 1029.6297 426.57422 1016.4297 C 394.97422 1006.0297 364.97266 996.82812 364.97266 960.82812 C 364.97266 924.42812 397.37305 907.62891 425.37305 907.62891 C 452.17305 907.62891 471.77344 918.8293 483.77344 936.0293 L 506.57422 917.62891 C 492.97422 899.22891 464.57422 883.22852 426.57422 883.22852 z M 704.75391 883.22852 C 620.35391 883.22852 557.1543 946.0293 557.1543 1032.0293 C 557.1543 1118.0293 620.35391 1180.8281 704.75391 1180.8281 C 789.15391 1180.8281 852.35547 1118.0293 852.35547 1032.0293 C 852.35547 946.0293 789.15391 883.22852 704.75391 883.22852 z M 1300.0117 883.22852 C 1258.4117 883.22852 1209.6113 906.42852 1209.6113 961.22852 C 1209.6113 1012.4285 1248.0113 1028.8297 1285.6113 1040.4297 C 1321.6113 1051.6297 1354.8105 1061.6285 1354.8105 1101.2285 C 1354.8105 1137.6285 1321.2117 1156.0293 1292.0117 1156.0293 C 1262.4117 1156.0293 1239.6109 1140.4297 1227.2109 1120.4297 L 1202.4102 1138.8281 C 1222.8102 1166.8281 1257.2113 1180.8281 1291.6113 1180.8281 C 1336.4113 1180.8281 1384.0117 1156.0285 1384.0117 1099.2285 C 1384.0117 1042.4285 1340.0117 1029.6297 1300.0117 1016.4297 C 1268.4117 1006.0297 1238.4102 996.82812 1238.4102 960.82812 C 1238.4102 924.42812 1270.8105 907.62891 1298.8105 907.62891 C 1325.6105 907.62891 1345.2109 918.8293 1357.2109 936.0293 L 1380.0117 917.62891 C 1366.4117 899.22891 1338.0117 883.22852 1300.0117 883.22852 z M 1631.3926 883.22852 L 1510.1914 1173.2285 L 1533.3926 1180.8281 L 1654.1914 891.22852 L 1631.3926 883.22852 z M 1779.0488 883.22852 L 1657.8477 1173.2285 L 1681.0488 1180.8281 L 1801.8477 891.22852 L 1779.0488 883.22852 z M 912.19922 890.42969 L 912.19922 1173.6289 L 1072.998 1173.6289 L 1072.998 1148.0293 L 940.99805 1148.0293 L 940.99805 890.42969 L 912.19922 890.42969 z M 1116.1055 890.42969 L 1116.1055 1173.6289 L 1144.9043 1173.6289 L 1144.9043 890.42969 L 1116.1055 890.42969 z M 704.75391 908.42969 C 777.55391 908.42969 821.95508 966.0293 821.95508 1032.0293 C 821.95508 1098.0293 777.55391 1155.2285 704.75391 1155.2285 C 631.95391 1155.2285 587.55469 1098.0293 587.55469 1032.0293 C 587.55469 966.0293 631.95391 908.42969 704.75391 908.42969 z M 395.71875 1226.1816 C 358.21101 1226.1816 330.125 1254.0898 330.125 1292.3086 C 330.125 1330.5274 357.67773 1358.4375 395.71875 1358.4375 C 418.2945 1358.4375 434.46941 1347.5937 442.82422 1334.9727 L 432.87109 1328.5723 C 424.16077 1341.5489 410.29519 1347.2383 395.89648 1347.2383 C 363.54384 1347.2383 343.63477 1321.6393 343.63477 1292.3086 C 343.63477 1262.9779 363.36608 1237.3809 395.89648 1237.3809 C 411.89505 1237.3809 424.5148 1245.7351 429.84766 1253.9121 L 440.51367 1246.0918 C 431.80334 1233.8262 414.20598 1226.1816 395.71875 1226.1816 z M 521.74805 1226.1816 C 484.24031 1226.1816 456.1543 1254.0898 456.1543 1292.3086 C 456.1543 1330.5274 484.24031 1358.4375 521.74805 1358.4375 C 559.25579 1358.4375 587.3418 1330.5274 587.3418 1292.3086 C 587.3418 1254.0898 559.25579 1226.1816 521.74805 1226.1816 z M 1012.3301 1226.1816 C 974.82234 1226.1816 946.73438 1254.0898 946.73438 1292.3086 C 946.73438 1330.5274 974.28905 1358.4375 1012.3301 1358.4375 C 1029.3952 1358.4375 1045.5702 1354.3489 1059.2578 1346.1719 L 1059.2578 1289.4648 L 1017.1289 1289.4648 L 1017.1289 1300.6641 L 1046.459 1300.6641 L 1046.459 1338.8828 C 1039.1708 1343.6824 1026.7288 1347.0605 1012.5078 1347.0605 C 980.15517 1347.0605 960.24609 1321.6393 960.24609 1292.3086 C 960.24609 1262.9779 980.15517 1237.3809 1012.5078 1237.3809 C 1028.1509 1237.3809 1040.2389 1242.7134 1048.9492 1251.957 L 1057.8359 1243.0684 C 1047.1702 1232.5804 1032.2394 1226.1816 1012.3301 1226.1816 z M 1172.0117 1226.1816 C 1153.5245 1226.1816 1131.8379 1236.4923 1131.8379 1260.8457 C 1131.8379 1283.5992 1148.9037 1290.8879 1165.6133 1296.043 C 1181.6118 1301.0203 1196.3652 1305.4641 1196.3652 1323.0625 C 1196.3652 1339.2388 1181.4336 1347.416 1168.457 1347.416 C 1155.3027 1347.416 1145.1708 1340.4818 1139.6602 1331.5938 L 1128.6387 1339.7715 C 1137.7045 1352.2148 1152.9918 1358.4375 1168.2793 1358.4375 C 1188.1886 1358.4375 1209.3418 1347.416 1209.3418 1322.1738 C 1209.3418 1296.9317 1189.7879 1291.2431 1172.0117 1285.377 C 1157.9685 1280.7551 1144.6367 1276.6665 1144.6367 1260.668 C 1144.6367 1244.4916 1159.0352 1237.0254 1171.4785 1237.0254 C 1183.3886 1237.0254 1192.0988 1242.0027 1197.4316 1249.6465 L 1207.5645 1241.4688 C 1201.5206 1233.2917 1188.8991 1226.1816 1172.0117 1226.1816 z M 1295.6367 1226.1816 C 1258.129 1226.1816 1230.043 1254.0898 1230.043 1292.3086 C 1230.043 1330.5274 1258.129 1358.4375 1295.6367 1358.4375 C 1333.1445 1358.4375 1361.2305 1330.5274 1361.2305 1292.3086 C 1361.2305 1254.0898 1333.1445 1226.1816 1295.6367 1226.1816 z M 1446.666 1226.1816 C 1409.1583 1226.1816 1381.0703 1254.0898 1381.0703 1292.3086 C 1381.0703 1330.5274 1409.1583 1358.4375 1446.666 1358.4375 C 1484.1738 1358.4375 1512.2598 1330.5274 1512.2598 1292.3086 C 1512.2598 1254.0898 1484.1738 1226.1816 1446.666 1226.1816 z M 613.9375 1229.3809 L 613.9375 1355.2363 L 626.73633 1355.2363 L 626.73633 1245.9141 L 627.0918 1245.9141 L 672.59961 1355.2363 L 679.35352 1355.2363 L 724.86133 1245.9141 L 725.2168 1245.9141 L 725.2168 1355.2363 L 738.01562 1355.2363 L 738.01562 1229.3809 L 718.46094 1229.3809 L 676.33203 1333.5508 L 676.1543 1333.5508 L 633.49219 1229.3809 L 613.9375 1229.3809 z M 771.5625 1229.3809 L 771.5625 1355.2363 L 784.36133 1355.2363 L 784.36133 1229.3809 L 771.5625 1229.3809 z M 817.73828 1229.3809 L 817.73828 1355.2363 L 830.53711 1355.2363 L 830.53711 1246.9805 L 830.89258 1246.9805 L 904.13086 1355.2363 L 920.12891 1355.2363 L 920.12891 1229.3809 L 907.33008 1229.3809 L 907.33008 1336.5723 L 906.97461 1336.5723 L 833.73633 1229.3809 L 817.73828 1229.3809 z M 1538.8535 1229.3809 L 1538.8535 1355.2363 L 1551.6523 1355.2363 L 1551.6523 1246.9805 L 1552.0078 1246.9805 L 1625.2461 1355.2363 L 1641.2441 1355.2363 L 1641.2441 1229.3809 L 1628.4453 1229.3809 L 1628.4453 1336.5723 L 1628.0898 1336.5723 L 1554.8535 1229.3809 L 1538.8535 1229.3809 z M 521.74805 1237.3809 C 554.10069 1237.3809 573.83203 1262.9779 573.83203 1292.3086 C 573.83203 1321.6393 554.10069 1347.0605 521.74805 1347.0605 C 489.3954 1347.0605 469.66406 1321.6393 469.66406 1292.3086 C 469.66406 1262.9779 489.3954 1237.3809 521.74805 1237.3809 z M 1295.6367 1237.3809 C 1327.9894 1237.3809 1347.7207 1262.9779 1347.7207 1292.3086 C 1347.7207 1321.6393 1327.9894 1347.0605 1295.6367 1347.0605 C 1263.2841 1347.0605 1243.5527 1321.6393 1243.5527 1292.3086 C 1243.5527 1262.9779 1263.2841 1237.3809 1295.6367 1237.3809 z M 1446.666 1237.3809 C 1479.0187 1237.3809 1498.75 1262.9779 1498.75 1292.3086 C 1498.75 1321.6393 1479.0187 1347.0605 1446.666 1347.0605 C 1414.3134 1347.0605 1394.582 1321.6393 1394.582 1292.3086 C 1394.582 1262.9779 1414.3134 1237.3809 1446.666 1237.3809 z M 1681.0059 1337.1055 C 1675.3175 1337.1055 1671.4063 1341.7277 1671.4062 1346.7051 C 1671.4062 1351.6824 1675.3175 1356.3027 1681.0059 1356.3027 C 1686.6942 1356.3027 1690.6055 1351.6824 1690.6055 1346.7051 C 1690.6055 1341.7277 1686.6942 1337.1055 1681.0059 1337.1055 z "
     id="text3831" />
</svg>
