<?xml version="1.0" encoding="UTF-8" standalone="no"?>
<svg
   xmlns:dc="http://purl.org/dc/elements/1.1/"
   xmlns:cc="http://creativecommons.org/ns#"
   xmlns:rdf="http://www.w3.org/1999/02/22-rdf-syntax-ns#"
   xmlns:svg="http://www.w3.org/2000/svg"
   xmlns="http://www.w3.org/2000/svg"
   xmlns:sodipodi="http://sodipodi.sourceforge.net/DTD/sodipodi-0.dtd"
   xmlns:inkscape="http://www.inkscape.org/namespaces/inkscape"
   viewBox="0 0 3840 2160"
   height="2160"
   width="3840"
   id="svg3803"
   version="1.1"
   sodipodi:docname="[White] SOLIS Snowflake Website Landing.svg"
   inkscape:version="0.92.1 r15371">
  <title
     id="title4347">[White] SOLIS Snowflake Website Landing</title>
  <sodipodi:namedview
     pagecolor="#888888"
     bordercolor="#666666"
     borderopacity="1"
     objecttolerance="10"
     gridtolerance="10"
     guidetolerance="10"
     inkscape:pageopacity="0"
     inkscape:pageshadow="2"
     inkscape:window-width="1920"
     inkscape:window-height="1017"
     id="namedview3802"
     showgrid="true"
     inkscape:zoom="0.125"
     inkscape:cx="3533.6055"
     inkscape:cy="-131.10088"
     inkscape:window-x="877"
     inkscape:window-y="2152"
     inkscape:window-maximized="1"
     inkscape:current-layer="svg3803">
    <inkscape:grid
       type="xygrid"
       id="grid3788"
       empspacing="8"
       dotted="true" />
  </sodipodi:namedview>
  <metadata
     id="metadata3809">
    <rdf:RDF>
      <cc:Work
         rdf:about="">
        <dc:format>image/svg+xml</dc:format>
        <dc:type
           rdf:resource="http://purl.org/dc/dcmitype/StillImage" />
        <dc:title>[White] SOLIS Snowflake Website Landing</dc:title>
        <dc:date>04.19.17</dc:date>
        <dc:creator>
          <cc:Agent>
            <dc:title>Trevor Kerney</dc:title>
          </cc:Agent>
        </dc:creator>
      </cc:Work>
    </rdf:RDF>
  </metadata>
  <defs
     id="defs3807" />
  <rect
     style="opacity:1;fill:#000000;fill-opacity:1;stroke:none;stroke-width:4.99178553;stroke-miterlimit:4;stroke-dasharray:none"
     id="rect3790"
     width="3840"
     height="2176"
     x="4.242641"
     y="-22.071068" />
  <rect
     style="opacity:1;fill:none;fill-opacity:1;stroke:none;stroke-width:2.30904651;stroke-miterlimit:4;stroke-dasharray:none"
     id="rect3805"
     width="4.8676796"
     height="2177.9749"
     x="3840"
     y="-16" />
  <path
     id="rect3815"
     d="m 3540.9762,244.96261 -278.24,372.3883 -145.7631,-252.46617 -241.9658,139.69839 145.7615,252.46668 -461.6194,54.76992 33.315,280.78877 582.16,-69.0719 168.1052,291.1653 -529.2461,-9.6996 272.0682,451.9037 h -334.334 l -231.2637,-538.7033 -259.8289,111.5432 183.3798,427.1601 h -291.5267 v 279.3971 h 291.5232 l -183.3763,427.1572 259.8289,111.5426 231.2608,-538.6998 h 335.6095 l -273.3408,454.0202 528.0096,-9.678 -166.8687,289.0229 -582.16,-69.0722 -33.315,280.7886 461.6194,54.7716 -145.7615,252.4682 241.9658,139.695 145.7599,-252.4643 278.2432,372.3883 226.5134,-169.2456 -350.8993,-469.6295 167.1867,-289.5766 256.223,463.1904 256.2235,-463.1904 167.1883,289.5735 -350.8989,469.6326 226.5114,169.2456 278.2432,-372.3883 145.7616,252.4643 241.9661,-139.695 -145.7635,-252.4682 461.6194,-54.7716 -33.315,-280.7886 -582.16,69.0722 -166.8669,-289.0229 528.0078,9.678 -273.3408,-454.0202 h 335.6095 l 231.2608,538.6998 259.8287,-111.5426 -183.3762,-427.1572 h 291.5233 V 1756.906 h -291.5269 l 183.3798,-427.1601 -259.8287,-111.5432 -231.2638,538.7033 h -334.3341 l 272.0684,-451.9037 -529.2442,9.6996 168.1051,-291.1653 582.1582,69.0719 33.315,-280.78877 L 4659.2317,757.04981 4804.9952,504.58313 4563.0291,364.88474 4417.2675,617.35091 4139.0243,244.96261 3912.5129,414.20819 4263.4102,883.8374 4095.6235,1174.451 3840,712.34205 3584.377,1174.451 3416.5903,883.8374 3767.4896,414.20819 Z M 3840,1153.8735 3970.8913,1390.4949 3840,1617.2055 3709.1096,1390.4949 Z m -643.2217,371.3643 270.3652,4.9555 130.8926,226.7127 h -261.7819 z m 1286.4439,0 -139.4759,231.6682 h -261.7789 l 130.8928,-226.7127 z m -1146.9697,511.0653 h 261.7836 l -130.8911,226.7095 -270.3667,4.9552 z m 745.7149,0 h 261.7806 l 139.4742,231.6647 -270.3655,-4.9552 z M 3840,2176 3970.8928,2402.7096 3840,2639.3325 3709.1096,2402.7128 Z"
     style="opacity:1;fill:#ffffff;fill-opacity:1;stroke:none;stroke-width:182.17520142;stroke-miterlimit:4;stroke-dasharray:none"
     inkscape:connector-curvature="0" />
  <text
     xml:space="preserve"
     style="font-style:normal;font-variant:normal;font-weight:normal;font-stretch:normal;font-size:192px;line-height:1.25;font-family:'Avenir Next LT Pro';-inkscape-font-specification:'Avenir Next LT Pro';letter-spacing:0px;word-spacing:0px;fill:#ffffff;fill-opacity:1;stroke:none;"
     x="448"
     y="944"
     id="text3809"><tspan
       sodipodi:role="line"
       id="tspan3807"
       x="448"
       y="1113.152" /></text>
  <path
     style="font-style:normal;font-variant:normal;font-weight:normal;font-stretch:normal;font-size:400px;line-height:1.25;font-family:'Avenir Next LT Pro';-inkscape-font-specification:'Avenir Next LT Pro';letter-spacing:0px;word-spacing:0px;fill:#ffffff;fill-opacity:1;stroke:none"
     d="M 426.57422 890.24805 C 384.97422 890.24805 336.17383 913.44805 336.17383 968.24805 C 336.17383 1019.448 374.57383 1035.8512 412.17383 1047.4512 C 448.17383 1058.6512 481.37305 1068.648 481.37305 1108.248 C 481.37305 1144.648 447.77422 1163.0488 418.57422 1163.0488 C 388.97422 1163.0488 366.17344 1147.4512 353.77344 1127.4512 L 328.97266 1145.8477 C 349.37266 1173.8477 383.77383 1187.8477 418.17383 1187.8477 C 462.97383 1187.8477 510.57422 1163.048 510.57422 1106.248 C 510.57422 1049.448 466.57422 1036.6512 426.57422 1023.4512 C 394.97422 1013.0512 364.97266 1003.8476 364.97266 967.84766 C 364.97266 931.44767 397.37305 914.64844 425.37305 914.64844 C 452.17305 914.64844 471.77344 925.84883 483.77344 943.04883 L 506.57422 924.64844 C 492.97422 906.24844 464.57422 890.24805 426.57422 890.24805 z M 704.75391 890.24805 C 620.35391 890.24805 557.1543 953.04883 557.1543 1039.0488 C 557.1543 1125.0488 620.35391 1187.8477 704.75391 1187.8477 C 787.76074 1187.8477 850.25998 1127.1056 852.30078 1043.2891 L 852.58203 1043.2188 L 852.31836 1042.1777 C 852.33696 1041.1379 852.35547 1040.0977 852.35547 1039.0508 C 852.35547 953.05078 789.15391 890.25 704.75391 890.25 L 704.75391 890.24805 z M 1300.0117 890.24805 C 1258.4117 890.24805 1209.6113 913.44805 1209.6113 968.24805 C 1209.6113 1019.448 1248.0113 1035.8512 1285.6113 1047.4512 C 1321.6113 1058.6512 1354.8105 1068.648 1354.8105 1108.248 C 1354.8105 1144.648 1321.2117 1163.0488 1292.0117 1163.0488 C 1262.4117 1163.0488 1239.6109 1147.4512 1227.2109 1127.4512 L 1202.4102 1145.8477 C 1222.8102 1173.8477 1257.2113 1187.8477 1291.6113 1187.8477 C 1336.4113 1187.8477 1384.0117 1163.048 1384.0117 1106.248 C 1384.0117 1049.448 1340.0117 1036.6512 1300.0117 1023.4512 C 1268.4117 1013.0512 1238.4102 1003.8476 1238.4102 967.84766 C 1238.4102 931.44767 1270.8105 914.64844 1298.8105 914.64844 C 1325.6105 914.64844 1345.2109 925.84883 1357.2109 943.04883 L 1380.0117 924.64844 C 1366.4117 906.24844 1338.0117 890.24805 1300.0117 890.24805 z M 1631.3926 890.24805 L 1510.1914 1180.248 L 1533.3926 1187.8477 L 1654.1914 898.24805 L 1631.3926 890.24805 z M 1779.0488 890.24805 L 1657.8477 1180.248 L 1681.0488 1187.8477 L 1801.8477 898.24805 L 1779.0488 890.24805 z M 912.19922 897.44922 L 912.19922 1180.6484 L 1072.998 1180.6484 L 1072.998 1155.0488 L 940.99805 1155.0488 L 940.99805 897.44922 L 912.19922 897.44922 z M 1116.1055 897.44922 L 1116.1055 1180.6484 L 1144.9043 1180.6484 L 1144.9043 897.44922 L 1116.1055 897.44922 z M 704.75391 915.44922 C 752.77204 915.44922 788.4307 940.51152 807.14648 976.51172 L 587.73047 1032.0059 C 590.7718 969.00529 634.5565 915.44922 704.75391 915.44922 z M 816.5918 1000.2734 C 818.8754 1008.2294 820.44089 1016.5068 821.26758 1024.9863 L 594.3418 1082.3809 C 591.76784 1074.5258 589.90316 1066.3263 588.78906 1057.8887 L 816.5918 1000.2734 z M 821.45508 1051.0898 C 816.39583 1111.8538 773.08572 1162.248 704.75391 1162.248 C 658.73066 1162.248 624.06486 1139.3828 604.78516 1105.8906 L 821.45508 1051.0898 z M 1417.4121 1222.6074 C 1396.1001 1222.6074 1379.588 1236.6242 1375.748 1255.8242 L 1389.3809 1258.5117 C 1392.2609 1244.4957 1402.8201 1234.3203 1417.4121 1234.3203 C 1432.0041 1234.3203 1444.293 1244.4962 1444.293 1260.2402 C 1444.293 1272.7202 1436.2287 1282.8958 1427.9727 1291.3438 L 1372.293 1347.5996 L 1372.293 1362 L 1459.2676 1362 L 1459.2676 1349.7129 L 1387.2676 1349.7129 L 1436.2285 1301.1367 C 1448.1325 1289.2327 1458.3086 1277.5208 1458.3086 1260.0488 C 1458.3086 1235.2808 1439.3001 1222.6074 1417.4121 1222.6074 z M 1529.5547 1222.6074 C 1495.3787 1222.6074 1485.0117 1258.8966 1485.0117 1294.2246 C 1485.0117 1329.5526 1495.3787 1365.4551 1529.5547 1365.4551 C 1563.3467 1365.4551 1574.0996 1329.5526 1574.0996 1294.2246 C 1574.0996 1258.8966 1563.3467 1222.6074 1529.5547 1222.6074 z M 1752.3047 1222.6074 C 1731.5687 1222.6074 1713.9043 1236.8165 1713.9043 1258.8965 C 1713.9043 1272.9125 1722.3532 1285.5832 1734.4492 1289.6152 L 1734.4492 1290 C 1719.6652 1294.416 1708.7207 1308.0471 1708.7207 1326.2871 C 1708.7207 1350.0951 1729.0727 1365.4551 1752.3047 1365.4551 C 1775.5367 1365.4551 1795.8887 1350.0951 1795.8887 1326.2871 C 1795.8887 1308.0471 1784.9442 1294.224 1770.1602 1290 L 1770.1602 1289.6152 C 1782.2562 1285.5832 1790.7051 1272.9125 1790.7051 1258.8965 C 1790.7051 1236.8165 1773.0407 1222.6074 1752.3047 1222.6074 z M 1136.0488 1226.0645 L 1136.0488 1362 L 1149.8711 1362 L 1149.8711 1226.0645 L 1136.0488 1226.0645 z M 1185.9238 1226.0645 L 1185.9238 1362 L 1199.7461 1362 L 1199.7461 1245.0723 L 1200.1309 1245.0723 L 1279.2344 1362 L 1296.5156 1362 L 1296.5156 1226.0645 L 1282.6914 1226.0645 L 1282.6914 1341.8398 L 1282.3066 1341.8398 L 1203.2031 1226.0645 L 1185.9238 1226.0645 z M 1641.6973 1226.0645 L 1607.1387 1254.4805 L 1615.5859 1264.0801 L 1640.1621 1243.1523 L 1640.1621 1362 L 1653.9863 1362 L 1653.9863 1226.0645 L 1641.6973 1226.0645 z M 395.71875 1233.2012 C 358.21101 1233.2012 330.125 1261.1074 330.125 1299.3262 C 330.125 1337.545 357.67773 1365.4551 395.71875 1365.4551 C 418.2945 1365.4551 434.46941 1354.6112 442.82422 1341.9902 L 432.87109 1335.5898 C 424.16077 1348.5664 410.29519 1354.2559 395.89648 1354.2559 C 363.54384 1354.2559 343.63477 1328.6569 343.63477 1299.3262 C 343.63477 1269.9955 363.36608 1244.3984 395.89648 1244.3984 C 411.89505 1244.3984 424.5148 1252.7546 429.84766 1260.9316 L 440.51367 1253.1094 C 431.80334 1240.8438 414.20598 1233.2012 395.71875 1233.2012 z M 521.74805 1233.2012 C 484.24031 1233.2012 456.1543 1261.1074 456.1543 1299.3262 C 456.1543 1337.545 484.24031 1365.4551 521.74805 1365.4551 C 559.25579 1365.4551 587.3418 1337.545 587.3418 1299.3262 C 587.3418 1261.1074 559.25579 1233.2012 521.74805 1233.2012 z M 1012.3301 1233.2012 C 974.82222 1233.2012 946.73434 1261.1074 946.73438 1299.3262 C 946.73438 1337.545 974.28893 1365.4551 1012.3301 1365.4551 C 1029.3952 1365.4551 1045.5702 1361.3665 1059.2578 1353.1895 L 1059.2578 1296.4844 L 1017.1289 1296.4844 L 1017.1289 1307.6816 L 1046.459 1307.6816 L 1046.459 1345.9023 C 1039.1708 1350.7019 1026.7288 1354.0781 1012.5078 1354.0781 C 980.15523 1354.0781 960.24609 1328.6569 960.24609 1299.3262 C 960.24609 1269.9955 980.15523 1244.3984 1012.5078 1244.3984 C 1028.1509 1244.3984 1040.2389 1249.733 1048.9492 1258.9766 L 1057.8359 1250.0859 C 1047.1702 1239.5979 1032.2394 1233.2012 1012.3301 1233.2012 z M 1529.5547 1234.3203 C 1553.3627 1234.3203 1560.082 1267.1526 1560.082 1294.2246 C 1560.082 1321.2966 1553.3627 1353.5527 1529.5547 1353.5527 C 1505.3627 1353.5527 1499.0273 1321.2966 1499.0273 1294.2246 C 1499.0273 1267.1526 1505.3627 1234.3203 1529.5547 1234.3203 z M 1752.3047 1234.3203 C 1766.5127 1234.3203 1777.2656 1245.0721 1777.2656 1259.6641 C 1777.2656 1273.8721 1766.1287 1284.0488 1752.3047 1284.0488 C 1738.4807 1284.0488 1727.3457 1273.8721 1727.3457 1259.6641 C 1727.3457 1245.0721 1738.0967 1234.3203 1752.3047 1234.3203 z M 613.9375 1236.3984 L 613.9375 1362.2559 L 626.73633 1362.2559 L 626.73633 1252.9316 L 627.0918 1252.9316 L 672.59961 1362.2559 L 679.35352 1362.2559 L 724.86133 1252.9316 L 725.2168 1252.9316 L 725.2168 1362.2559 L 738.01562 1362.2559 L 738.01562 1236.3984 L 718.46094 1236.3984 L 676.33203 1340.5684 L 676.1543 1340.5684 L 633.49219 1236.3984 L 613.9375 1236.3984 z M 771.5625 1236.3984 L 771.5625 1362.2559 L 784.36133 1362.2559 L 784.36133 1236.3984 L 771.5625 1236.3984 z M 817.73828 1236.3984 L 817.73828 1362.2559 L 830.53711 1362.2559 L 830.53711 1253.998 L 830.89258 1253.998 L 904.13086 1362.2559 L 920.12891 1362.2559 L 920.12891 1236.3984 L 907.33008 1236.3984 L 907.33008 1343.5898 L 906.97461 1343.5898 L 833.73633 1236.3984 L 817.73828 1236.3984 z M 521.74805 1244.3984 C 554.10069 1244.3984 573.83203 1269.9955 573.83203 1299.3262 C 573.83203 1328.6569 554.10069 1354.0781 521.74805 1354.0781 C 489.3954 1354.0781 469.66406 1328.6569 469.66406 1299.3262 C 469.66406 1269.9955 489.3954 1244.3984 521.74805 1244.3984 z M 1752.3047 1296.3359 C 1770.1607 1296.3359 1782.0645 1308.432 1782.0645 1324.752 C 1782.0645 1341.264 1770.1607 1353.7441 1752.3047 1353.7441 C 1734.4487 1353.7441 1722.5449 1341.264 1722.5449 1324.752 C 1722.5449 1308.432 1734.4487 1296.3359 1752.3047 1296.3359 z M 1832.9609 1342.416 C 1826.8169 1342.416 1822.5918 1347.4072 1822.5918 1352.7832 C 1822.5918 1358.1592 1826.8169 1363.1523 1832.9609 1363.1523 C 1839.1049 1363.1523 1843.3281 1358.1592 1843.3281 1352.7832 C 1843.3281 1347.4072 1839.1049 1342.416 1832.9609 1342.416 z "
     id="text3831" />
  <rect
     style="opacity:1;fill:none;fill-opacity:1;stroke:none;stroke-width:70;stroke-miterlimit:4;stroke-dasharray:none"
     id="rect3806"
     width="560"
     height="152"
     x="1128"
     y="1240" />
  <rect
     style="opacity:1;fill:none;fill-opacity:1;stroke:none;stroke-width:70;stroke-miterlimit:4;stroke-dasharray:none"
     id="rect3810"
     width="608"
     height="176"
     x="1104"
     y="1216" />
  <rect
     style="opacity:1;fill:none;fill-opacity:1;stroke:none;stroke-width:70;stroke-miterlimit:4;stroke-dasharray:none"
     id="rect3816"
     width="640"
     height="176"
     x="1104"
     y="1216" />
</svg>
