<?xml version="1.0" encoding="UTF-8" standalone="no"?>
<svg
   xmlns:dc="http://purl.org/dc/elements/1.1/"
   xmlns:cc="http://creativecommons.org/ns#"
   xmlns:rdf="http://www.w3.org/1999/02/22-rdf-syntax-ns#"
   xmlns:svg="http://www.w3.org/2000/svg"
   xmlns="http://www.w3.org/2000/svg"
   xmlns:sodipodi="http://sodipodi.sourceforge.net/DTD/sodipodi-0.dtd"
   xmlns:inkscape="http://www.inkscape.org/namespaces/inkscape"
   viewBox="0 0 3840 2160"
   height="2160"
   width="3840"
   id="svg3803"
   version="1.1"
   sodipodi:docname="[White] SOLIS Snowflake Website Landing.svg"
   inkscape:version="0.92.1 r15371">
  <title
     id="title4347">[White] SOLIS Snowflake Website Landing</title>
  <sodipodi:namedview
     pagecolor="#888888"
     bordercolor="#666666"
     borderopacity="1"
     objecttolerance="10"
     gridtolerance="10"
     guidetolerance="10"
     inkscape:pageopacity="0"
     inkscape:pageshadow="2"
     inkscape:window-width="1920"
     inkscape:window-height="1017"
     id="namedview3802"
     showgrid="true"
     inkscape:zoom="0.1767767"
     inkscape:cx="3065.4454"
     inkscape:cy="-204.04581"
     inkscape:window-x="877"
     inkscape:window-y="2152"
     inkscape:window-maximized="1"
     inkscape:current-layer="svg3803">
    <inkscape:grid
       type="xygrid"
       id="grid3788"
       empspacing="8"
       dotted="true" />
  </sodipodi:namedview>
  <metadata
     id="metadata3809">
    <rdf:RDF>
      <cc:Work
         rdf:about="">
        <dc:format>image/svg+xml</dc:format>
        <dc:type
           rdf:resource="http://purl.org/dc/dcmitype/StillImage" />
        <dc:title>[White] SOLIS Snowflake Website Landing</dc:title>
        <dc:date>04.19.17</dc:date>
        <dc:creator>
          <cc:Agent>
            <dc:title>Trevor Kerney</dc:title>
          </cc:Agent>
        </dc:creator>
      </cc:Work>
    </rdf:RDF>
  </metadata>
  <defs
     id="defs3807" />
  <rect
     style="opacity:1;fill:#000000;fill-opacity:1;stroke:none;stroke-width:4.99178553;stroke-miterlimit:4;stroke-dasharray:none"
     id="rect3790"
     width="3840"
     height="2176"
     x="0"
     y="-16" />
  <rect
     style="opacity:1;fill:none;fill-opacity:1;stroke:none;stroke-width:2.30904651;stroke-miterlimit:4;stroke-dasharray:none"
     id="rect3805"
     width="4.8676796"
     height="2177.9749"
     x="3840"
     y="-16" />
  <path
     id="rect3815"
     d="m 3540.9762,244.96261 -278.24,372.3883 -145.7631,-252.46617 -241.9658,139.69839 145.7615,252.46668 -461.6194,54.76992 33.315,280.78877 582.16,-69.0719 168.1052,291.1653 -529.2461,-9.6996 272.0682,451.9037 h -334.334 l -231.2637,-538.7033 -259.8289,111.5432 183.3798,427.1601 h -291.5267 v 279.3971 h 291.5232 l -183.3763,427.1572 259.8289,111.5426 231.2608,-538.6998 h 335.6095 l -273.3408,454.0202 528.0096,-9.678 -166.8687,289.0229 -582.16,-69.0722 -33.315,280.7886 461.6194,54.7716 -145.7615,252.4682 241.9658,139.695 145.7599,-252.4643 278.2432,372.3883 226.5134,-169.2456 -350.8993,-469.6295 167.1867,-289.5766 256.223,463.1904 256.2235,-463.1904 167.1883,289.5735 -350.8989,469.6326 226.5114,169.2456 278.2432,-372.3883 145.7616,252.4643 241.9661,-139.695 -145.7635,-252.4682 461.6194,-54.7716 -33.315,-280.7886 -582.16,69.0722 -166.8669,-289.0229 528.0078,9.678 -273.3408,-454.0202 h 335.6095 l 231.2608,538.6998 259.8287,-111.5426 -183.3762,-427.1572 h 291.5233 V 1756.906 h -291.5269 l 183.3798,-427.1601 -259.8287,-111.5432 -231.2638,538.7033 h -334.3341 l 272.0684,-451.9037 -529.2442,9.6996 168.1051,-291.1653 582.1582,69.0719 33.315,-280.78877 L 4659.2317,757.04981 4804.9952,504.58313 4563.0291,364.88474 4417.2675,617.35091 4139.0243,244.96261 3912.5129,414.20819 4263.4102,883.8374 4095.6235,1174.451 3840,712.34205 3584.377,1174.451 3416.5903,883.8374 3767.4896,414.20819 Z M 3840,1153.8735 3970.8913,1390.4949 3840,1617.2055 3709.1096,1390.4949 Z m -643.2217,371.3643 270.3652,4.9555 130.8926,226.7127 h -261.7819 z m 1286.4439,0 -139.4759,231.6682 h -261.7789 l 130.8928,-226.7127 z m -1146.9697,511.0653 h 261.7836 l -130.8911,226.7095 -270.3667,4.9552 z m 745.7149,0 h 261.7806 l 139.4742,231.6647 -270.3655,-4.9552 z M 3840,2176 3970.8928,2402.7096 3840,2639.3325 3709.1096,2402.7128 Z"
     style="opacity:1;fill:#ffffff;fill-opacity:1;stroke:none;stroke-width:182.17520142;stroke-miterlimit:4;stroke-dasharray:none"
     inkscape:connector-curvature="0" />
  <text
     xml:space="preserve"
     style="font-style:normal;font-variant:normal;font-weight:normal;font-stretch:normal;font-size:192px;line-height:1.25;font-family:'Avenir Next LT Pro';-inkscape-font-specification:'Avenir Next LT Pro';letter-spacing:0px;word-spacing:0px;fill:#ffffff;fill-opacity:1;stroke:none;"
     x="448"
     y="944"
     id="text3809"><tspan
       sodipodi:role="line"
       id="tspan3807"
       x="448"
       y="1113.152" /></text>
  <rect
     style="opacity:1;fill:none;fill-opacity:1;stroke:none;stroke-width:70;stroke-miterlimit:4;stroke-dasharray:none"
     id="rect3806"
     width="560"
     height="152"
     x="1128"
     y="1240" />
  <rect
     style="opacity:1;fill:none;fill-opacity:1;stroke:none;stroke-width:70;stroke-miterlimit:4;stroke-dasharray:none"
     id="rect3810"
     width="608"
     height="176"
     x="1104"
     y="1216" />
  <rect
     style="opacity:1;fill:none;fill-opacity:1;stroke:none;stroke-width:70;stroke-miterlimit:4;stroke-dasharray:none"
     id="rect3816"
     width="640"
     height="176"
     x="1104"
     y="1216" />
  <path
     style="font-style:normal;font-variant:normal;font-weight:normal;font-stretch:normal;font-size:266.66665649px;line-height:1.25;font-family:'Futura PT';-inkscape-font-specification:'Futura PT';letter-spacing:0px;word-spacing:0px;fill:#ffffff;fill-opacity:1;stroke:none"
     d="M 432 848.85938 C 421.06667 848.85938 411.06667 850.59193 402 854.05859 C 392.93334 857.25859 385.06706 861.92526 378.40039 868.05859 C 371.73373 873.92526 366.53217 881.12682 362.79883 889.66016 C 359.0655 897.92677 357.19922 907.26016 357.19922 917.66016 C 357.19922 927.79346 358.8 936.19267 362 942.85938 C 365.2 949.52607 369.73295 955.65977 375.59961 961.25977 C 381.73295 967.12647 387.86667 971.65936 394 974.85938 C 400.13334 978.05938 405.86589 980.85977 411.19922 983.25977 L 435.19922 994.45898 C 442.13256 997.65898 448.26628 1000.5931 453.59961 1003.2598 C 458.93295 1005.9265 463.46589 1009.1261 467.19922 1012.8594 C 471.99922 1017.3928 475.33256 1022.1931 477.19922 1027.2598 C 479.33256 1032.3265 480.40039 1037.9253 480.40039 1044.0586 C 480.40039 1050.7253 479.33256 1057.2602 477.19922 1063.6602 C 475.06589 1070.0602 471.73256 1075.7928 467.19922 1080.8594 C 462.93256 1085.6594 457.33373 1089.5257 450.40039 1092.459 C 443.73373 1095.3924 435.8655 1096.8594 426.79883 1096.8594 C 419.8655 1096.8594 413.19883 1095.9253 406.79883 1094.0586 C 400.39883 1091.9253 394.26706 1087.9253 388.40039 1082.0586 C 384.66706 1078.0586 381.33373 1073.1265 378.40039 1067.2598 C 375.46706 1061.3931 373.46706 1054.992 372.40039 1048.0586 L 343.59961 1056.0586 C 345.46628 1064.0586 348.40039 1072.3261 352.40039 1080.8594 C 356.40039 1089.3928 361.73373 1096.8598 368.40039 1103.2598 C 377.73373 1112.3265 387.46628 1118.1928 397.59961 1120.8594 C 407.99961 1123.5261 417.60039 1124.8594 426.40039 1124.8594 C 438.40039 1124.8594 449.46628 1122.9932 459.59961 1119.2598 C 469.99961 1115.2598 478.93373 1109.659 486.40039 1102.459 C 494.13373 1095.259 500.13373 1086.5924 504.40039 1076.459 C 508.66706 1066.3257 510.79883 1055.1261 510.79883 1042.8594 C 510.79883 1033.2594 509.33373 1024.5928 506.40039 1016.8594 C 503.46706 1008.8594 498.53295 1001.3923 491.59961 994.45898 C 485.99961 988.85898 479.60039 984.19238 472.40039 980.45898 C 465.46706 976.45898 458.13373 972.72647 450.40039 969.25977 L 424.79883 958.05859 C 419.73217 955.92529 414.8 953.65977 410 951.25977 C 405.2 948.59307 400.79883 945.25977 396.79883 941.25977 C 393.0655 937.79307 390.39883 934.45977 388.79883 931.25977 C 387.4655 927.79307 386.79883 923.39199 386.79883 918.05859 C 386.79883 905.52529 390.93256 895.52526 399.19922 888.05859 C 407.46589 880.59193 418.26628 876.85936 431.59961 876.85938 C 439.33295 876.85938 445.60039 877.92526 450.40039 880.05859 C 455.20039 881.92526 458.93295 883.92526 461.59961 886.05859 C 464.53295 888.45859 467.33334 891.52643 470 895.25977 C 472.93334 898.72647 475.33256 902.32529 477.19922 906.05859 L 500.79883 890.45898 C 497.8655 884.59232 494.13295 879.12526 489.59961 874.05859 C 485.06628 868.99193 480.13217 864.5927 474.79883 860.85938 C 468.13217 856.32605 461.33373 853.26016 454.40039 851.66016 C 447.73373 849.79349 440.26667 848.85938 432 848.85938 z M 689.43164 848.85938 C 670.23164 848.85938 652.23164 852.32643 635.43164 859.25977 C 618.63164 866.1931 603.83125 875.79193 591.03125 888.05859 C 578.49792 900.32527 568.63164 914.86016 561.43164 931.66016 C 554.23164 948.46016 550.63086 966.85938 550.63086 986.85938 C 550.63086 1006.5927 554.23164 1024.992 561.43164 1042.0586 C 568.63164 1058.8586 578.49792 1073.3935 591.03125 1085.6602 C 603.56459 1097.9269 618.23125 1107.5257 635.03125 1114.459 C 652.09792 1121.3924 670.23164 1124.8594 689.43164 1124.8594 C 708.63164 1124.8594 726.63164 1121.3924 743.43164 1114.459 C 760.49831 1107.5257 775.29675 1097.9269 787.83008 1085.6602 C 800.36342 1073.3935 810.23164 1058.8586 817.43164 1042.0586 C 824.63164 1024.992 828.23047 1006.5927 828.23047 986.85938 C 828.23047 966.85938 824.63164 948.46016 817.43164 931.66016 C 810.23164 914.86016 800.23164 900.32527 787.43164 888.05859 C 774.89831 875.79193 760.23164 866.1931 743.43164 859.25977 C 726.63164 852.32643 708.63164 848.85936 689.43164 848.85938 z M 1198.4062 848.85938 C 1187.4732 848.85938 1177.4729 850.59193 1168.4062 854.05859 C 1159.3398 857.25859 1151.4733 861.92526 1144.8066 868.05859 C 1138.14 873.92526 1132.9384 881.12682 1129.2051 889.66016 C 1125.4717 897.92677 1123.6055 907.26016 1123.6055 917.66016 C 1123.6055 927.79346 1125.2064 936.19267 1128.4062 942.85938 C 1131.6064 949.52607 1136.1392 955.65977 1142.0059 961.25977 C 1148.1392 967.12647 1154.2731 971.65936 1160.4062 974.85938 C 1166.5397 978.05938 1172.2721 980.85977 1177.6055 983.25977 L 1201.6055 994.45898 C 1208.5388 997.65898 1214.6725 1000.5931 1220.0059 1003.2598 C 1225.3392 1005.9265 1229.8721 1009.1261 1233.6055 1012.8594 C 1238.4055 1017.3928 1241.7388 1022.1931 1243.6055 1027.2598 C 1245.7388 1032.3265 1246.8066 1037.9253 1246.8066 1044.0586 C 1246.8066 1050.7253 1245.7388 1057.2602 1243.6055 1063.6602 C 1241.4721 1070.0602 1238.1388 1075.7928 1233.6055 1080.8594 C 1229.3388 1085.6594 1223.74 1089.5257 1216.8066 1092.459 C 1210.14 1095.3924 1202.2717 1096.8594 1193.2051 1096.8594 C 1186.2717 1096.8594 1179.6051 1095.9253 1173.2051 1094.0586 C 1166.8051 1091.9253 1160.6733 1087.9253 1154.8066 1082.0586 C 1151.0733 1078.0586 1147.74 1073.1265 1144.8066 1067.2598 C 1141.8733 1061.3931 1139.8733 1054.992 1138.8066 1048.0586 L 1110.0059 1056.0586 C 1111.8725 1064.0586 1114.8066 1072.3261 1118.8066 1080.8594 C 1122.8066 1089.3928 1128.14 1096.8598 1134.8066 1103.2598 C 1144.14 1112.3265 1153.8725 1118.1928 1164.0059 1120.8594 C 1174.4059 1123.5261 1184.0066 1124.8594 1192.8066 1124.8594 C 1204.8066 1124.8594 1215.8725 1122.9932 1226.0059 1119.2598 C 1236.4059 1115.2598 1245.34 1109.659 1252.8066 1102.459 C 1260.54 1095.259 1266.54 1086.5924 1270.8066 1076.459 C 1275.0733 1066.3257 1277.2051 1055.1261 1277.2051 1042.8594 C 1277.2051 1033.2594 1275.74 1024.5928 1272.8066 1016.8594 C 1269.8733 1008.8594 1264.9392 1001.3923 1258.0059 994.45898 C 1252.4059 988.85898 1246.0066 984.19238 1238.8066 980.45898 C 1231.8733 976.45898 1224.54 972.72647 1216.8066 969.25977 L 1191.2051 958.05859 C 1186.1384 955.92529 1181.2062 953.65977 1176.4062 951.25977 C 1171.6064 948.59307 1167.2051 945.25977 1163.2051 941.25977 C 1159.4717 937.79307 1156.8051 934.45977 1155.2051 931.25977 C 1153.8717 927.79307 1153.2051 923.39199 1153.2051 918.05859 C 1153.2051 905.52529 1157.3388 895.52526 1165.6055 888.05859 C 1173.8721 880.59193 1184.6725 876.85936 1198.0059 876.85938 C 1205.7392 876.85938 1212.0066 877.92526 1216.8066 880.05859 C 1221.6066 881.92526 1225.3392 883.92526 1228.0059 886.05859 C 1230.9392 888.45859 1233.7396 891.52643 1236.4062 895.25977 C 1239.3398 898.72647 1241.7388 902.32529 1243.6055 906.05859 L 1267.2051 890.45898 C 1264.2717 884.59232 1260.5392 879.12526 1256.0059 874.05859 C 1251.4725 868.99193 1246.5384 864.5927 1241.2051 860.85938 C 1234.5384 856.32605 1227.74 853.26016 1220.8066 851.66016 C 1214.14 849.79349 1206.673 848.85938 1198.4062 848.85938 z M 883 853.25977 L 883 1120.0586 L 986.19922 1120.0586 L 986.19922 1092.0586 L 912.59961 1092.0586 L 912.59961 853.25977 L 883 853.25977 z M 1025.9688 853.25977 L 1025.9688 1120.0586 L 1055.5684 1120.0586 L 1055.5684 853.25977 L 1025.9688 853.25977 z M 689.43164 876.85938 C 704.36498 876.85938 718.36498 879.79349 731.43164 885.66016 C 744.76498 891.26016 756.23008 898.99267 765.83008 908.85938 C 775.69675 918.72608 783.43125 930.45859 789.03125 944.05859 C 794.89792 957.39199 797.83008 971.65936 797.83008 986.85938 C 797.83008 1002.0593 794.89792 1016.4586 789.03125 1030.0586 C 783.43125 1043.392 775.69675 1054.9928 765.83008 1064.8594 C 756.23008 1074.7261 744.76498 1082.5924 731.43164 1088.459 C 718.36498 1094.059 704.36498 1096.8594 689.43164 1096.8594 C 674.49831 1096.8594 660.36459 1094.059 647.03125 1088.459 C 633.96459 1082.5924 622.49753 1074.7261 612.63086 1064.8594 C 602.7642 1054.9928 595.03164 1043.392 589.43164 1030.0586 C 583.83164 1016.4586 581.03125 1002.0593 581.03125 986.85938 C 581.03125 971.65936 583.83164 957.39199 589.43164 944.05859 C 595.03164 930.45859 602.7642 918.72605 612.63086 908.85938 C 622.49753 898.99266 633.96459 891.26016 647.03125 885.66016 C 660.36459 879.79349 674.49831 876.85934 689.43164 876.85938 z M 732.31641 1157.9414 L 683.5957 1263.2207 L 635.80859 1158.1289 L 615.08789 1289.541 L 629.27539 1289.541 L 641.5957 1202.9277 L 683.4082 1294.7676 L 725.78125 1202.9277 L 737.54297 1289.541 L 751.72852 1289.541 L 732.31641 1157.9414 z M 826.46484 1159.8086 L 826.46484 1289.541 L 840.2793 1289.541 L 840.2793 1193.4082 L 937.3457 1295.1406 L 937.3457 1165.0352 L 923.53125 1165.0352 L 923.53125 1261.541 L 826.46484 1159.8086 z M 1200.1641 1159.8086 L 1200.1641 1289.541 L 1213.9766 1289.541 L 1213.9766 1193.4082 L 1311.043 1295.1406 L 1311.043 1165.0352 L 1297.2305 1165.0352 L 1297.2305 1261.541 L 1200.1641 1159.8086 z M 408.74609 1162.9805 C 399.41275 1162.9805 390.76328 1164.5985 382.79883 1167.834 C 374.83439 1171.0696 367.92897 1175.612 362.08008 1181.4609 C 356.35564 1187.1853 351.81313 1194.0296 348.45312 1201.9941 C 345.21756 1209.8341 343.59961 1218.4205 343.59961 1227.7539 C 343.59961 1236.7139 345.21758 1245.1151 348.45312 1252.9551 C 351.68867 1260.7951 356.16814 1267.5764 361.89258 1273.3008 C 367.61703 1279.0254 374.40023 1283.5678 382.24023 1286.9277 C 390.20467 1290.1632 398.79111 1291.7812 408 1291.7812 C 412.72889 1291.7812 418.39078 1291.0343 424.98633 1289.541 C 431.70633 1287.9232 438.55065 1284.6261 445.51953 1279.6484 L 445.51953 1262.4746 C 444.39953 1263.5946 442.59436 1265.2126 440.10547 1267.3281 C 437.74103 1269.3192 434.75537 1271.1856 431.14648 1272.9277 C 427.91092 1274.6699 424.30253 1276.1007 420.32031 1277.2207 C 416.33808 1278.2163 412.23111 1278.7148 408 1278.7148 C 402.27556 1278.7148 396.42648 1277.6566 390.45312 1275.541 C 384.60424 1273.4254 379.25373 1270.2526 374.40039 1266.0215 C 369.54706 1261.7904 365.56425 1256.5009 362.45312 1250.1543 C 359.34202 1243.8076 357.78711 1236.4036 357.78711 1227.9414 C 357.78711 1220.7237 359.03065 1214.0036 361.51953 1207.7812 C 364.00842 1201.4346 367.49266 1195.96 371.97266 1191.3555 C 376.45266 1186.6266 381.74206 1182.892 387.83984 1180.1543 C 393.93762 1177.4165 400.59473 1176.0488 407.8125 1176.0488 C 411.42139 1176.0488 415.09283 1176.4845 418.82617 1177.3555 C 422.5595 1178.2266 426.04374 1179.4071 429.2793 1180.9004 C 432.51486 1182.3939 435.50245 1184.199 438.24023 1186.3145 C 441.10245 1188.4302 443.52842 1190.4835 445.51953 1192.4746 L 445.51953 1175.3008 C 441.7862 1172.4386 438.11475 1170.1998 434.50586 1168.582 C 430.89697 1166.9642 427.47578 1165.7188 424.24023 1164.8477 C 421.12912 1163.9765 418.20458 1163.48 415.4668 1163.3555 C 412.85347 1163.1066 410.61275 1162.9806 408.74609 1162.9805 z M 529.05078 1162.9805 C 520.09077 1162.9805 511.68961 1164.5985 503.84961 1167.834 C 496.00961 1171.0696 489.1042 1175.551 483.13086 1181.2754 C 477.28197 1186.9999 472.67641 1193.7811 469.31641 1201.6211 C 465.95641 1209.4611 464.27734 1218.0476 464.27734 1227.3809 C 464.27734 1236.5898 465.95641 1245.1761 469.31641 1253.1406 C 472.67641 1260.9806 477.28197 1267.7639 483.13086 1273.4883 C 488.97975 1279.2129 495.82406 1283.6921 503.66406 1286.9277 C 511.6285 1290.1632 520.09077 1291.7812 529.05078 1291.7812 C 538.01078 1291.7812 546.41 1290.1632 554.25 1286.9277 C 562.21445 1283.6921 569.12181 1279.2129 574.9707 1273.4883 C 580.81959 1267.7639 585.4232 1260.9807 588.7832 1253.1406 C 592.1432 1245.1761 593.82422 1236.5898 593.82422 1227.3809 C 593.82422 1218.0476 592.1432 1209.4611 588.7832 1201.6211 C 585.4232 1193.7811 580.75653 1186.9999 574.7832 1181.2754 C 568.93431 1175.551 562.09 1171.0696 554.25 1167.834 C 546.41 1164.5985 538.01078 1162.9805 529.05078 1162.9805 z M 1027.623 1162.9805 C 1018.2897 1162.9805 1009.6402 1164.6615 1001.6758 1168.0215 C 993.83574 1171.2571 986.9915 1175.7995 981.14258 1181.6484 C 975.41814 1187.3728 970.87563 1194.1541 967.51562 1201.9941 C 964.28008 1209.8341 962.66211 1218.2965 962.66211 1227.3809 C 962.66211 1236.4654 964.28006 1244.9276 967.51562 1252.7676 C 970.75117 1260.6076 975.23064 1267.4519 980.95508 1273.3008 C 986.804 1279.0254 993.64824 1283.5678 1001.4883 1286.9277 C 1009.4527 1290.1632 1018.0392 1291.7812 1027.248 1291.7812 C 1034.3414 1291.7812 1040.5649 1290.8472 1045.916 1288.9805 C 1051.3916 1287.1139 1055.9952 1284.9362 1059.7285 1282.4473 C 1063.4618 1279.9584 1066.4495 1277.4694 1068.6895 1274.9805 C 1070.9295 1272.4916 1072.5474 1270.6254 1073.543 1269.3809 C 1077.5252 1264.0298 1080.5109 1257.8693 1082.502 1250.9004 C 1084.4932 1243.9316 1085.4883 1236.9629 1085.4883 1229.9941 L 1085.4883 1227.0078 L 1033.5957 1227.0078 L 1033.5957 1240.0742 L 1070.5547 1240.0742 C 1070.3058 1244.0564 1069.6851 1247.5407 1068.6895 1250.5273 C 1067.694 1253.3895 1066.6356 1255.8175 1065.5156 1257.8086 C 1061.9067 1264.1553 1056.7415 1269.2574 1050.0215 1273.1152 C 1043.3015 1276.8486 1035.7733 1278.7148 1027.4355 1278.7148 C 1021.5867 1278.7148 1015.6134 1277.6566 1009.5156 1275.541 C 1003.5423 1273.4254 998.12869 1270.2526 993.27539 1266.0215 C 988.42209 1261.666 984.43921 1256.3153 981.32812 1249.9688 C 978.34145 1243.4976 976.84961 1236.0306 976.84961 1227.5684 C 976.84961 1220.3506 978.09315 1213.6305 980.58203 1207.4082 C 983.07092 1201.0616 986.55516 1195.585 991.03516 1190.9805 C 995.51516 1186.3761 1000.8657 1182.7676 1007.0879 1180.1543 C 1013.4346 1177.4165 1020.3419 1176.0488 1027.8086 1176.0488 C 1035.2753 1176.0488 1041.4357 1177.1683 1046.2891 1179.4082 C 1051.1424 1181.6483 1055.0622 1184.0131 1058.0488 1186.502 C 1062.2799 1189.9864 1066.1997 1194.2787 1069.8086 1199.3809 L 1080.0762 1190.0488 C 1078.3339 1187.5598 1076.2174 1185.0078 1073.7285 1182.3945 C 1071.2396 1179.7811 1068.5653 1177.4165 1065.7031 1175.3008 C 1059.6053 1170.5719 1053.1946 1167.3359 1046.4746 1165.5938 C 1039.879 1163.8515 1033.5964 1162.9805 1027.623 1162.9805 z M 1421.9316 1162.9805 C 1414.2161 1162.9805 1407.9945 1164.3502 1403.2656 1167.0879 C 1398.6612 1169.8258 1395.0529 1172.6871 1392.4395 1175.6738 C 1389.9507 1178.536 1387.834 1181.9592 1386.0918 1185.9414 C 1384.3496 1189.9236 1383.3544 1195.0888 1383.1055 1201.4355 L 1396.918 1201.4355 C 1397.0424 1198.1999 1397.4168 1195.3996 1398.0391 1193.0352 C 1398.7857 1190.6708 1399.7809 1188.5542 1401.0254 1186.6875 C 1405.8787 1179.3453 1412.7861 1175.6738 1421.7461 1175.6738 C 1429.2128 1175.6738 1435.186 1177.9775 1439.666 1182.582 C 1444.2705 1187.062 1446.5723 1192.848 1446.5723 1199.9414 C 1446.5723 1202.4302 1446.1367 1205.2306 1445.2656 1208.3418 C 1444.3945 1211.4529 1442.5282 1214.9983 1439.666 1218.9805 C 1438.9193 1220.1005 1437.8611 1221.5332 1436.4922 1223.2754 C 1435.2477 1224.8932 1433.8781 1226.5724 1432.3848 1228.3145 C 1431.0159 1230.0567 1429.6482 1231.7377 1428.2793 1233.3555 C 1426.9104 1234.9733 1425.8521 1236.2168 1425.1055 1237.0879 L 1379.7461 1289.541 L 1460.1992 1289.541 L 1460.1992 1276.8477 L 1407.5586 1276.8477 L 1433.5059 1247.541 C 1435.9947 1244.6787 1438.7954 1241.443 1441.9062 1237.834 C 1445.0177 1234.1007 1447.8788 1230.4312 1450.4922 1226.8223 C 1454.2255 1221.4712 1456.7776 1216.7415 1458.1465 1212.6348 C 1459.6398 1208.5281 1460.3848 1204.36 1460.3848 1200.1289 C 1460.3848 1194.7777 1459.3895 1189.8609 1457.3984 1185.3809 C 1455.5318 1180.7765 1452.8575 1176.8567 1449.373 1173.6211 C 1446.013 1170.2611 1441.9672 1167.648 1437.2383 1165.7812 C 1432.5094 1163.9146 1427.4072 1162.9805 1421.9316 1162.9805 z M 1524.7793 1162.9805 C 1519.8015 1162.9805 1514.3879 1164.4132 1508.5391 1167.2754 C 1502.8146 1170.0133 1497.5883 1174.8039 1492.8594 1181.6484 C 1488.7527 1187.6217 1485.6409 1194.5272 1483.5254 1202.3672 C 1481.4098 1210.0828 1480.3535 1218.4209 1480.3535 1227.3809 C 1480.3535 1236.3409 1481.4098 1244.742 1483.5254 1252.582 C 1485.6409 1260.2975 1488.7527 1267.1419 1492.8594 1273.1152 C 1495.2238 1276.5996 1497.7128 1279.5244 1500.3262 1281.8887 C 1503.0639 1284.2532 1505.8013 1286.1803 1508.5391 1287.6738 C 1511.4013 1289.1671 1514.2018 1290.2255 1516.9395 1290.8477 C 1519.6773 1291.4699 1522.2904 1291.7812 1524.7793 1291.7812 C 1527.2682 1291.7812 1529.8814 1291.4699 1532.6191 1290.8477 C 1535.3569 1290.2255 1538.0942 1289.1671 1540.832 1287.6738 C 1543.6942 1286.1803 1546.4335 1284.2533 1549.0469 1281.8887 C 1551.7846 1279.5244 1554.3348 1276.5996 1556.6992 1273.1152 C 1560.8059 1267.1419 1563.9176 1260.2975 1566.0332 1252.582 C 1568.1488 1244.742 1569.207 1236.3409 1569.207 1227.3809 C 1569.207 1218.4209 1568.1488 1210.0828 1566.0332 1202.3672 C 1563.9176 1194.5272 1560.8059 1187.6216 1556.6992 1181.6484 C 1551.9703 1174.8039 1546.6809 1170.0133 1540.832 1167.2754 C 1535.1076 1164.4132 1529.7571 1162.9805 1524.7793 1162.9805 z M 1695.041 1162.9805 C 1689.441 1162.9805 1684.463 1163.9776 1680.1074 1165.9688 C 1675.8763 1167.8353 1672.329 1170.3856 1669.4668 1173.6211 C 1666.6046 1176.8567 1664.4269 1180.5281 1662.9336 1184.6348 C 1661.4403 1188.7415 1660.6934 1193.0356 1660.6934 1197.5156 C 1660.6934 1203.3645 1661.9388 1208.652 1664.4277 1213.3809 C 1667.0411 1218.1098 1670.8368 1221.9054 1675.8145 1224.7676 C 1669.4679 1227.6299 1664.7382 1231.7368 1661.627 1237.0879 C 1658.5159 1242.4391 1656.9609 1248.4753 1656.9609 1255.1953 C 1656.9609 1260.0486 1657.7059 1264.7153 1659.1992 1269.1953 C 1660.817 1273.5507 1663.1819 1277.4076 1666.293 1280.7676 C 1669.5285 1284.1276 1673.5113 1286.8038 1678.2402 1288.7949 C 1683.0936 1290.786 1688.6943 1291.7814 1695.041 1291.7812 C 1701.3877 1291.7812 1706.9254 1290.786 1711.6543 1288.7949 C 1716.3832 1286.8038 1720.3029 1284.1276 1723.4141 1280.7676 C 1726.6496 1277.4076 1729.0756 1273.5508 1730.6934 1269.1953 C 1732.3111 1264.7153 1733.1211 1260.0486 1733.1211 1255.1953 C 1733.1211 1248.4753 1731.5642 1242.4391 1728.4531 1237.0879 C 1725.342 1231.7368 1720.6142 1227.6299 1714.2676 1224.7676 C 1719.2453 1221.9054 1722.9779 1218.1098 1725.4668 1213.3809 C 1728.0801 1208.652 1729.3867 1203.3645 1729.3867 1197.5156 C 1729.3867 1193.0356 1728.6398 1188.7415 1727.1465 1184.6348 C 1725.6531 1180.5281 1723.4755 1176.8567 1720.6133 1173.6211 C 1717.7511 1170.3856 1714.1427 1167.8352 1709.7871 1165.9688 C 1705.556 1163.9775 1700.641 1162.9805 1695.041 1162.9805 z M 780.52734 1165.0352 L 780.52734 1289.541 L 794.3418 1289.541 L 794.3418 1165.0352 L 780.52734 1165.0352 z M 1154.2266 1165.0352 L 1154.2266 1289.541 L 1168.0391 1289.541 L 1168.0391 1165.0352 L 1154.2266 1165.0352 z M 1595.293 1165.0352 L 1588.0137 1178.1016 L 1608.9199 1178.1016 L 1608.9199 1289.541 L 1622.7324 1289.541 L 1622.7324 1165.0352 L 1595.293 1165.0352 z M 1524.7793 1175.6738 C 1528.0148 1175.6738 1531.5621 1176.6709 1535.4199 1178.6621 C 1539.4021 1180.6532 1543.0105 1184.2617 1546.2461 1189.4883 C 1549.6061 1194.8394 1551.9709 1200.8735 1553.3398 1207.5938 C 1554.7087 1214.1891 1555.3926 1220.7853 1555.3926 1227.3809 C 1555.3926 1233.9765 1554.7087 1240.6355 1553.3398 1247.3555 C 1551.9709 1253.9511 1549.6061 1259.9243 1546.2461 1265.2754 C 1543.0105 1270.5021 1539.4021 1274.1105 1535.4199 1276.1016 C 1531.5621 1278.0927 1528.0148 1279.0879 1524.7793 1279.0879 C 1521.5437 1279.0879 1517.9353 1278.0927 1513.9531 1276.1016 C 1510.0953 1274.1105 1506.548 1270.5021 1503.3125 1265.2754 C 1499.9525 1259.9243 1497.5876 1253.9511 1496.2188 1247.3555 C 1494.8498 1240.6355 1494.166 1233.9765 1494.166 1227.3809 C 1494.166 1220.7853 1494.8499 1214.189 1496.2188 1207.5938 C 1497.5873 1200.8735 1499.9525 1194.8394 1503.3125 1189.4883 C 1506.548 1184.2617 1510.0953 1180.6532 1513.9531 1178.6621 C 1517.9353 1176.6709 1521.5437 1175.6738 1524.7793 1175.6738 z M 1695.041 1175.6738 C 1697.9032 1175.6738 1700.5775 1176.1725 1703.0664 1177.168 C 1705.6797 1178.1636 1707.9815 1179.6573 1709.9727 1181.6484 C 1711.9638 1183.5151 1713.5206 1185.817 1714.6406 1188.5547 C 1715.7606 1191.2925 1716.3203 1194.3412 1716.3203 1197.7012 C 1716.3203 1203.9234 1714.2669 1209.0886 1710.1602 1213.1953 C 1706.178 1217.1775 1701.1388 1219.168 1695.041 1219.168 C 1688.9432 1219.168 1683.841 1217.1775 1679.7344 1213.1953 C 1675.7521 1209.0886 1673.7598 1203.9234 1673.7598 1197.7012 C 1673.7598 1194.3412 1674.3195 1191.2925 1675.4395 1188.5547 C 1676.5595 1185.817 1678.1163 1183.5151 1680.1074 1181.6484 C 1682.0985 1179.6573 1684.3373 1178.1636 1686.8262 1177.168 C 1689.4395 1176.1725 1692.1788 1175.6738 1695.041 1175.6738 z M 529.05078 1176.0488 C 536.01966 1176.0488 542.55262 1177.4165 548.65039 1180.1543 C 554.87262 1182.7676 560.22315 1186.3761 564.70312 1190.9805 C 569.30756 1195.585 572.91597 1201.0616 575.5293 1207.4082 C 578.26708 1213.6305 579.63672 1220.2876 579.63672 1227.3809 C 579.63672 1234.4742 578.26708 1241.1943 575.5293 1247.541 C 572.91597 1253.7632 569.30759 1259.1769 564.70312 1263.7812 C 560.22312 1268.3858 554.87262 1272.0571 548.65039 1274.7949 C 542.55262 1277.4082 536.01966 1278.7148 529.05078 1278.7148 C 522.08189 1278.7148 515.48589 1277.4082 509.26367 1274.7949 C 503.16589 1272.0571 497.81539 1268.3857 493.21094 1263.7812 C 488.6065 1259.1772 484.99614 1253.7632 482.38281 1247.541 C 479.76947 1241.1943 478.46289 1234.4742 478.46289 1227.3809 C 478.46289 1220.2876 479.76947 1213.6305 482.38281 1207.4082 C 484.99614 1201.0616 488.6065 1195.585 493.21094 1190.9805 C 497.81539 1186.3761 503.16589 1182.7676 509.26367 1180.1543 C 515.48589 1177.4165 522.08189 1176.0488 529.05078 1176.0488 z M 1695.041 1231.1152 C 1698.5255 1231.1152 1701.7594 1231.7361 1704.7461 1232.9805 C 1707.7328 1234.1005 1710.2848 1235.7185 1712.4004 1237.834 C 1714.6404 1239.8251 1716.3195 1242.3142 1717.4395 1245.3008 C 1718.684 1248.163 1719.3066 1251.3379 1719.3066 1254.8223 C 1719.3066 1261.9156 1717.0659 1267.7628 1712.5859 1272.3672 C 1708.1059 1276.8472 1702.2588 1279.0879 1695.041 1279.0879 C 1687.8232 1279.0879 1681.9741 1276.8472 1677.4941 1272.3672 C 1673.0141 1267.7628 1670.7734 1261.9156 1670.7734 1254.8223 C 1670.7734 1251.3379 1671.3331 1248.163 1672.4531 1245.3008 C 1673.6976 1242.3142 1675.3786 1239.8251 1677.4941 1237.834 C 1679.7341 1235.7185 1682.2843 1234.1005 1685.1465 1232.9805 C 1688.1331 1231.7361 1691.4321 1231.1152 1695.041 1231.1152 z M 1766.457 1272.5996 A 9.5909901 9.5909901 0 0 0 1756.8672 1282.1895 A 9.5909901 9.5909901 0 0 0 1766.457 1291.7812 A 9.5909901 9.5909901 0 0 0 1776.0488 1282.1895 A 9.5909901 9.5909901 0 0 0 1766.457 1272.5996 z "
     id="path3851" />
</svg>
