<?xml version="1.0" encoding="UTF-8" standalone="no"?>
<svg
   xmlns:dc="http://purl.org/dc/elements/1.1/"
   xmlns:cc="http://creativecommons.org/ns#"
   xmlns:rdf="http://www.w3.org/1999/02/22-rdf-syntax-ns#"
   xmlns:svg="http://www.w3.org/2000/svg"
   xmlns="http://www.w3.org/2000/svg"
   xmlns:sodipodi="http://sodipodi.sourceforge.net/DTD/sodipodi-0.dtd"
   xmlns:inkscape="http://www.inkscape.org/namespaces/inkscape"
   viewBox="0 0 2160 3840"
   height="3840"
   width="2160"
   id="svg3803"
   version="1.1"
   sodipodi:docname="[White] SOLIS Snowflake Mobile Website Landing.svg"
   inkscape:version="0.92.1 r15371">
  <title
     id="title4347">[White] SOLIS Snowflake Mobile Website Landing</title>
  <sodipodi:namedview
     pagecolor="#888888"
     bordercolor="#666666"
     borderopacity="1"
     objecttolerance="10"
     gridtolerance="10"
     guidetolerance="10"
     inkscape:pageopacity="0"
     inkscape:pageshadow="2"
     inkscape:window-width="1920"
     inkscape:window-height="1017"
     id="namedview3802"
     showgrid="true"
     inkscape:zoom="0.07806608"
     inkscape:cx="-690.64962"
     inkscape:cy="2065.7104"
     inkscape:window-x="877"
     inkscape:window-y="2152"
     inkscape:window-maximized="1"
     inkscape:current-layer="svg3803"
     inkscape:snap-bbox="true"
     inkscape:bbox-nodes="true">
    <inkscape:grid
       type="xygrid"
       id="grid3788"
       empspacing="16"
       dotted="true" />
  </sodipodi:namedview>
  <metadata
     id="metadata3809">
    <rdf:RDF>
      <cc:Work
         rdf:about="">
        <dc:format>image/svg+xml</dc:format>
        <dc:type
           rdf:resource="http://purl.org/dc/dcmitype/StillImage" />
        <dc:title>[White] SOLIS Snowflake Mobile Website Landing</dc:title>
        <dc:date>04.19.17</dc:date>
        <dc:creator>
          <cc:Agent>
            <dc:title>Trevor Kerney</dc:title>
          </cc:Agent>
        </dc:creator>
      </cc:Work>
    </rdf:RDF>
  </metadata>
  <defs
     id="defs3807" />
  <rect
     style="opacity:1;fill:#000000;fill-opacity:1;stroke:none;stroke-width:70;stroke-miterlimit:4;stroke-dasharray:none"
     id="rect4787"
     width="2176"
     height="3840"
     x="0"
     y="0" />
  <path
     id="rect3815"
     d="m 1876.9762,1891.7571 -278.24,372.3883 -145.7631,-252.4662 -241.9658,139.6984 145.7615,252.4667 -461.6194,54.7699 33.315,280.7888 582.16,-69.0719 168.1052,291.1653 -529.2461,-9.6996 272.0682,451.9037 h -334.334 L 855.954,2864.9972 596.1251,2976.5404 779.5049,3403.7005 H 487.9782 v 279.3971 h 291.5232 l -183.3763,427.1572 259.8289,111.5426 231.2608,-538.6998 h 335.6095 l -273.3408,454.0202 528.0096,-9.678 -166.8687,289.0229 -582.16,-69.0722 -33.315,280.7886 461.6194,54.7716 -145.7615,252.4682 241.9658,139.695 145.7599,-252.4643 278.2432,372.3883 226.5134,-169.2456 -350.8993,-469.6295 167.1867,-289.5766 256.223,463.1904 256.2235,-463.1904 167.1883,289.5735 -350.8989,469.6326 226.5114,169.2456 278.2432,-372.3883 145.7616,252.4643 241.9661,-139.695 -145.7635,-252.4682 461.6194,-54.7716 -33.315,-280.7886 -582.16,69.0722 -166.8669,-289.0229 528.0078,9.678 -273.3408,-454.0202 h 335.6095 l 231.2608,538.6998 259.8287,-111.5426 -183.3762,-427.1572 h 291.5233 v -279.3971 h -291.5269 l 183.3798,-427.1601 -259.8287,-111.5432 -231.2638,538.7033 h -334.3341 l 272.0684,-451.9037 -529.2442,9.6996 168.1051,-291.1653 582.1582,69.0719 33.315,-280.7888 -461.6194,-54.7699 145.7635,-252.4667 -241.9661,-139.6984 -145.7616,252.4662 -278.2432,-372.3883 -226.5114,169.2456 350.8973,469.6292 -167.7867,290.6136 L 2176,2359.1366 1920.377,2821.2455 1752.5903,2530.6319 2103.4896,2061.0027 Z M 2176,2800.668 2306.8913,3037.2894 2176,3264 2045.1096,3037.2894 Z m -643.2217,371.3643 270.3652,4.9555 130.8926,226.7127 h -261.7819 z m 1286.4439,0 -139.4759,231.6682 h -261.7789 l 130.8928,-226.7127 z m -1146.9697,511.0653 h 261.7836 l -130.8911,226.7095 -270.3667,4.9552 z m 745.7149,0 h 261.7806 l 139.4742,231.6647 -270.3655,-4.9552 z M 2176,3822.7945 2306.8928,4049.5041 2176,4286.127 2045.1096,4049.5073 Z"
     style="opacity:1;fill:#ffffff;fill-opacity:1;stroke:none;stroke-width:182.17520142;stroke-miterlimit:4;stroke-dasharray:none"
     inkscape:connector-curvature="0" />
  <text
     xml:space="preserve"
     style="font-style:normal;font-variant:normal;font-weight:normal;font-stretch:normal;font-size:192px;line-height:1.25;font-family:'Avenir Next LT Pro';-inkscape-font-specification:'Avenir Next LT Pro';letter-spacing:0px;word-spacing:0px;fill:#ffffff;fill-opacity:1;stroke:none"
     x="448"
     y="2624"
     id="text3809"><tspan
       sodipodi:role="line"
       id="tspan3807"
       x="448"
       y="2793.1519" /></text>
  <path
     id="text3831-0"
     style="font-style:normal;font-variant:normal;font-weight:normal;font-stretch:normal;font-size:400px;line-height:1.25;font-family:'Avenir Next LT Pro';-inkscape-font-specification:'Avenir Next LT Pro';letter-spacing:0px;word-spacing:0px;fill:none;fill-opacity:1;stroke:none"
     d="m 734.73828,741.84766 c -1.71646,0 -3.42255,0.0323 -5.12109,0.084 13.9993,4.65159 27.70133,10.25655 41.34961,15.81055 21.16435,8.61258 14.02996,5.64224 31.05273,12.89062 16.83111,8.26859 33.49031,16.97945 49.66406,26.49805 -26.5077,-34.29732 -68.17672,-55.2832 -116.94531,-55.2832 z m 595.25782,0 c -41.6,0 -90.4004,23.2 -90.4004,78 0,51.2 38.4,67.60117 76,79.20117 36,11.2 69.1992,21.19883 69.1992,60.79883 0,36.4 -33.5988,54.80074 -62.7988,54.80074 -29.6,0 -52.4008,-15.59957 -64.8008,-35.59957 l -24.8008,18.39844 c 15.1091,20.73803 37.9007,33.78743 62.6817,39.16603 3.8373,-2e-4 7.6744,-7e-4 11.5117,0 4.5688,0 9.1364,-0.01 13.7051,0 4.4917,0.01 8.9831,0.017 13.4746,-0.035 0.971,0 9.2662,-0.08 8.8125,0.1875 2.1894,-0.2342 4.3204,-0.4064 6.4277,-0.5117 34.868,-8.311 64.9883,-33.2267 64.9883,-78.40624 0,-56.8 -44,-69.59883 -84,-82.79883 -31.6,-10.4 -61.6016,-19.60156 -61.6016,-55.60156 0,-36.4 32.4004,-53.19922 60.4004,-53.19922 26.8,0 46.4004,11.20039 58.4004,28.40039 l 22.8008,-18.40039 c -13.6,-18.4 -42,-34.40039 -80,-34.40039 z m 331.3809,0 -121.2012,290.00004 23.2012,7.5996 120.7988,-289.59964 z m 147.6562,0 -121.2012,290.00004 23.2012,7.5996 120.7988,-289.59964 z m -866.84961,7.20117 v 74.68359 c 6.44709,1.65703 12.77325,3.80132 18.89453,6.76953 3.31476,1.49228 6.61056,3.02683 9.9043,4.56446 v -86.01758 z m 203.90621,0 V 1032.248 h 28.7989 V 749.04883 Z m -749.89449,58.63281 c -9.71891,0.0178 -19.49909,0.31083 -29.22265,0.33594 -0.52925,3.76863 -0.81446,7.70663 -0.81446,11.83008 0,51.2 38.4,67.60117 76,79.20117 0.6819,0.21214 1.35352,0.42327 2.03321,0.63476 0.25896,-0.57305 0.50008,-1.12573 0.77343,-1.71679 -1.17309,0.85881 -0.17771,-0.77839 1.52539,-3.22852 0.20683,-0.43249 0.39349,-0.83682 0.60743,-1.2793 1.62069,-3.35207 6.68607,-9.81673 9.79882,-12.98632 1.06973,-1.41837 2.13726,-2.83818 3.20508,-4.25782 -1.18114,-0.38833 -2.36751,-0.77811 -3.54297,-1.16601 -31.6,-10.4 -61.60156,-19.60156 -61.60156,-55.60156 0,-4.1817 0.43681,-8.09884 1.23828,-11.76563 z m 233.50196,170.09375 c -4.17821,0.96376 -8.29365,2.17966 -12.44141,3.26758 0.21402,-0.0895 0.86814,-0.31483 0.64062,-0.26953 -0.76813,0.1529 -1.53032,0.33372 -2.29492,0.5039 11.22985,15.33621 25.41071,28.15886 41.86524,37.82816 -0.001,-1.4967 0.0283,-2.9942 0.1289,-4.4961 -0.40977,-2.2132 -0.9645,-4.4056 -1.22851,-6.6406 -0.0233,-0.1971 0.53421,0.536 0.48633,0.3437 -1.12555,-4.521 -2.74739,-8.9042 -4.13282,-13.35352 -0.60294,-1.48669 -0.9174,-3.11278 -1.45898,-4.6289 0.18136,0.38673 0.18857,0.40222 0.32031,0.68359 -0.0257,-0.0979 -0.0548,-0.19493 -0.0801,-0.29297 -0.008,-0.032 -0.008,-0.0366 -0.0137,-0.0625 -0.53146,-1.22506 -1.21461,-2.81315 -2.0664,-4.88086 -0.29945,-0.72679 -1.35567,-2.78993 -0.82618,-2.20898 0.0421,0.0462 0.0933,0.12225 0.13868,0.17969 -0.96498,-1.73666 -1.67163,-3.03444 -2.00782,-3.66797 -6.59974,0.0314 -13.1924,-0.17368 -19.77734,-0.72852 0.0203,-0.78688 1.92008,-1.36511 2.74805,-1.57617 z m 366.63085,28.87301 c 0.20565,1.7536 0.41032,3.5079 0.61719,5.2598 2.92066,24.7335 -0.0474,-3.6653 2.24414,18.9805 0.004,0.4524 0.002,0.9067 0.006,1.3593 h 14.56249 c -0.9471,-2.9481 -1.9178,-5.8871 -3.0664,-8.7578 -0.579,-1.447 -2.2106,-3.7565 -2.9082,-5.1464 -1.3123,-2.6146 -2.523,-5.2784 -3.7754,-7.9219 -1.2751,-0.9351 -2.1121,-2.3139 -2.873,-3.7735 z m -216.75781,10.7188 c 0.0516,1.1952 0.0763,1.9875 0.15039,3.5058 0.0139,0.2844 0.0577,-0.9073 0.31836,-0.7929 0.33199,0.1456 0.22172,0.6939 0.27344,1.0527 0.36089,2.5041 0.78987,5.0052 0.96289,7.5293 0.0887,1.2943 0.13615,2.5901 0.17383,3.8867 2.07319,-0.6406 4.12364,-1.3238 6.15039,-2.0488 -0.0655,-0.1076 -0.13174,-0.2147 -0.19727,-0.3223 -1.46489,-2.6052 -2.75759,-5.3137 -4.39453,-7.8144 -1.10764,-1.6921 -2.26486,-3.3507 -3.4375,-4.9961 z m -227.83789,67.4336 c -37.50774,0 -65.59375,27.9081 -65.59375,66.1269 0,38.2188 28.08601,66.1289 65.59375,66.1289 37.50774,0 65.59375,-27.9101 65.59375,-66.1289 0,-38.2188 -28.08601,-66.1269 -65.59375,-66.1269 z m -111.50976,1.6074 c -3.60419,3.2277 -7.20169,6.4637 -10.75196,9.748 14.28254,1.1306 25.4349,8.8214 30.36133,16.375 l 10.66602,-7.8203 c -6.37451,-8.9763 -17.51599,-15.4613 -30.27539,-18.3027 z M 643.92188,1088 v 100.3828 c 0.5742,-0.205 1.15492,-0.3989 1.73046,-0.6016 2.66282,-11.9094 3.99326,-24.0189 6.54493,-35.9433 1.21323,-7.9741 2.10538,-15.7619 4.1582,-23.5508 0.12371,-0.4693 0.051,0.9703 0.0762,1.4551 0.0964,-0.7311 0.19272,-1.4622 0.28906,-2.1934 v -23.0176 h 0.35547 l 1.87891,4.5118 c 0.007,-7.0144 0.006,-14.0287 0.004,-21.043 z m 157.625,0 v 56.4062 c 1.18709,-0.2842 2.37873,-0.5464 3.56835,-0.8183 0.0736,-0.5135 0.14104,-1.0282 0.21875,-1.541 0.21527,-1.4207 0.70597,-2.807 0.77735,-4.2422 0.14526,-2.9206 -0.0901,-5.8476 -0.12891,-8.7715 -0.0334,-2.5228 -0.0587,-5.0456 -0.0879,-7.5684 0.45822,-11.1736 2.10385,-22.253 1.02735,-33.4648 z m 216.68752,1.0059 c -10.3166,3.8031 -19.22666,10.0536 -26.11721,18.1757 -1.01284,3.809 -2.08893,7.6026 -3.08203,11.4161 -0.42141,1.4991 -0.85169,2.9933 -1.28711,4.4843 2.09431,-0.1796 4.19172,-0.3292 6.29297,-0.4179 1.04356,-0.064 2.08858,-0.096 3.13476,-0.1153 4.47762,-8.3092 11.01952,-15.2606 19.31442,-19.9648 0.2538,-1.7202 0.5275,-3.4383 0.7657,-5.1602 0.092,-1.3606 0.092,-2.7295 0.2773,-4.08 0.1996,-1.4506 0.447,-2.8951 0.7012,-4.3379 z M 551.73242,1096 c 32.35264,0 52.08399,25.597 52.08399,54.9277 0,29.3307 -19.73135,54.752 -52.08399,54.752 -32.35265,0 -52.08398,-25.4213 -52.08398,-54.752 0,-29.3307 19.73133,-54.9277 52.08398,-54.9277 z m -177.87304,60.4453 c -3.75872,4.4911 -7.52235,8.9787 -11.30469,13.4492 7.51014,28.1352 31.74707,47.1621 63.14843,47.1621 22.57577,0 38.75066,-10.8438 47.10547,-23.4648 l -9.95312,-6.4004 c -8.71032,12.9766 -22.5759,18.666 -36.97461,18.666 -30.30554,0 -49.68942,-22.4617 -52.02148,-49.4121 z" />
  <path
     style="font-style:normal;font-variant:normal;font-weight:normal;font-stretch:normal;font-size:266.66665649px;line-height:1.25;font-family:'Futura PT';-inkscape-font-specification:'Futura PT';letter-spacing:0px;word-spacing:0px;fill:#ffffff;fill-opacity:1;stroke:none"
     d="M 458.83203 772 C 447.8987 772 437.8987 773.73256 428.83203 777.19922 C 419.76537 780.39922 411.89909 785.06589 405.23242 791.19922 C 398.56576 797.06589 393.3642 804.26744 389.63086 812.80078 C 385.89753 821.06739 384.03125 830.40078 384.03125 840.80078 C 384.03125 850.93408 385.63203 859.3333 388.83203 866 C 392.03203 872.6667 396.56498 878.80039 402.43164 884.40039 C 408.56498 890.26709 414.6987 894.8 420.83203 898 C 426.96537 901.2 432.69792 904.00039 438.03125 906.40039 L 462.03125 917.59961 C 468.96459 920.79961 475.09831 923.73369 480.43164 926.40039 C 485.76498 929.06709 490.29792 932.2667 494.03125 936 C 498.83125 940.5334 502.16459 945.33369 504.03125 950.40039 C 506.16459 955.46709 507.23242 961.06592 507.23242 967.19922 C 507.23242 973.86592 506.16459 980.40078 504.03125 986.80078 C 501.89792 993.20078 498.56459 998.93345 494.03125 1004 C 489.76459 1008.8 484.16576 1012.6663 477.23242 1015.5996 C 470.56576 1018.533 462.69753 1020 453.63086 1020 C 446.69753 1020 440.03086 1019.0659 433.63086 1017.1992 C 427.23086 1015.0659 421.09909 1011.0659 415.23242 1005.1992 C 411.49909 1001.1992 408.16576 996.26709 405.23242 990.40039 C 402.29909 984.53369 400.29909 978.13262 399.23242 971.19922 L 370.43164 979.19922 C 372.29831 987.19922 375.23242 995.46675 379.23242 1004 C 383.23242 1012.5334 388.56576 1020.0004 395.23242 1026.4004 C 404.56576 1035.4671 414.29831 1041.3334 424.43164 1044 C 434.83164 1046.6667 444.43242 1048 453.23242 1048 C 465.23242 1048 476.29831 1046.1338 486.43164 1042.4004 C 496.83164 1038.4004 505.76576 1032.7996 513.23242 1025.5996 C 520.96576 1018.3996 526.96576 1009.733 531.23242 999.59961 C 535.49909 989.46631 537.63086 978.2667 537.63086 966 C 537.63086 956.4 536.16576 947.7334 533.23242 940 C 530.29909 932 525.36498 924.53296 518.43164 917.59961 C 512.83164 911.99961 506.43242 907.33301 499.23242 903.59961 C 492.29909 899.59961 484.96576 895.86709 477.23242 892.40039 L 451.63086 881.19922 C 446.5642 879.06592 441.63203 876.80039 436.83203 874.40039 C 432.03203 871.73369 427.63086 868.40039 423.63086 864.40039 C 419.89753 860.93369 417.23086 857.60039 415.63086 854.40039 C 414.29753 850.93369 413.63086 846.53262 413.63086 841.19922 C 413.63086 828.66592 417.76459 818.66589 426.03125 811.19922 C 434.29792 803.73256 445.09831 800 458.43164 800 C 466.16498 800 472.43242 801.06589 477.23242 803.19922 C 482.03242 805.06589 485.76498 807.06589 488.43164 809.19922 C 491.36498 811.59922 494.16537 814.66705 496.83203 818.40039 C 499.76537 821.86709 502.16459 825.46592 504.03125 829.19922 L 527.63086 813.59961 C 524.69753 807.73295 520.96498 802.26589 516.43164 797.19922 C 511.89831 792.13256 506.9642 787.73334 501.63086 784 C 494.9642 779.46667 488.16576 776.40078 481.23242 774.80078 C 474.56576 772.93411 467.0987 772 458.83203 772 z M 716.26367 772 C 697.06367 772 679.06367 775.46705 662.26367 782.40039 C 645.46367 789.33372 630.66328 798.93256 617.86328 811.19922 C 605.32995 823.4659 595.46367 838.00078 588.26367 854.80078 C 581.06367 871.60078 577.46289 890 577.46289 910 C 577.46289 929.73335 581.06367 948.13262 588.26367 965.19922 C 595.46367 981.99922 605.32995 996.53409 617.86328 1008.8008 C 630.39662 1021.0675 645.06328 1030.6663 661.86328 1037.5996 C 678.92995 1044.5329 697.06367 1048 716.26367 1048 C 735.46367 1048 753.46367 1044.5329 770.26367 1037.5996 C 787.33034 1030.6663 802.12878 1021.0675 814.66211 1008.8008 C 827.19545 996.53409 837.06367 981.99922 844.26367 965.19922 C 851.46367 948.13262 855.0625 929.73335 855.0625 910 C 855.0625 890 851.46367 871.60078 844.26367 854.80078 C 837.06367 838.00078 827.06367 823.4659 814.26367 811.19922 C 801.73034 798.93256 787.06367 789.33372 770.26367 782.40039 C 753.46367 775.46705 735.46367 772 716.26367 772 z M 1225.2383 772 C 1214.305 772 1204.305 773.73256 1195.2383 777.19922 C 1186.1717 780.39922 1178.3054 785.06589 1171.6387 791.19922 C 1164.9721 797.06589 1159.7724 804.26744 1156.0391 812.80078 C 1152.3057 821.06739 1150.4395 830.40078 1150.4395 840.80078 C 1150.4395 850.93408 1152.0383 859.3333 1155.2383 866 C 1158.4383 872.6667 1162.9731 878.80039 1168.8398 884.40039 C 1174.9731 890.26709 1181.105 894.8 1187.2383 898 C 1193.3717 901.2 1199.1061 904.00039 1204.4395 906.40039 L 1228.4395 917.59961 C 1235.3728 920.79961 1241.5064 923.73369 1246.8398 926.40039 C 1252.1731 929.06709 1256.7061 932.2667 1260.4395 936 C 1265.2395 940.5334 1268.5728 945.33369 1270.4395 950.40039 C 1272.5728 955.46709 1273.6387 961.06592 1273.6387 967.19922 C 1273.6387 973.86592 1272.5728 980.40078 1270.4395 986.80078 C 1268.3061 993.20078 1264.9728 998.93345 1260.4395 1004 C 1256.1728 1008.8 1250.5721 1012.6663 1243.6387 1015.5996 C 1236.9721 1018.533 1229.1057 1020 1220.0391 1020 C 1213.1057 1020 1206.4391 1019.0659 1200.0391 1017.1992 C 1193.6391 1015.0659 1187.5054 1011.0659 1181.6387 1005.1992 C 1177.9054 1001.1992 1174.5721 996.26709 1171.6387 990.40039 C 1168.7054 984.53369 1166.7054 978.13262 1165.6387 971.19922 L 1136.8398 979.19922 C 1138.7064 987.19922 1141.6387 995.46675 1145.6387 1004 C 1149.6387 1012.5334 1154.9721 1020.0004 1161.6387 1026.4004 C 1170.9721 1035.4671 1180.7064 1041.3334 1190.8398 1044 C 1201.2398 1046.6667 1210.8387 1048 1219.6387 1048 C 1231.6387 1048 1242.7064 1046.1338 1252.8398 1042.4004 C 1263.2398 1038.4004 1272.1721 1032.7996 1279.6387 1025.5996 C 1287.3721 1018.3996 1293.3721 1009.733 1297.6387 999.59961 C 1301.9054 989.46631 1304.0391 978.2667 1304.0391 966 C 1304.0391 956.4 1302.5721 947.7334 1299.6387 940 C 1296.7054 932 1291.7731 924.53296 1284.8398 917.59961 C 1279.2398 911.99961 1272.8387 907.33301 1265.6387 903.59961 C 1258.7054 899.59961 1251.3721 895.86709 1243.6387 892.40039 L 1218.0391 881.19922 C 1212.9724 879.06592 1208.0383 876.80039 1203.2383 874.40039 C 1198.4383 871.73369 1194.0391 868.40039 1190.0391 864.40039 C 1186.3057 860.93369 1183.6391 857.60039 1182.0391 854.40039 C 1180.7057 850.93369 1180.0391 846.53262 1180.0391 841.19922 C 1180.0391 828.66592 1184.1728 818.66589 1192.4395 811.19922 C 1200.7061 803.73256 1211.5064 800 1224.8398 800 C 1232.5731 800 1238.8387 801.06589 1243.6387 803.19922 C 1248.4387 805.06589 1252.1731 807.06589 1254.8398 809.19922 C 1257.7731 811.59922 1260.5717 814.66705 1263.2383 818.40039 C 1266.1717 821.86709 1268.5728 825.46592 1270.4395 829.19922 L 1294.0391 813.59961 C 1291.1057 807.73295 1287.3731 802.26589 1282.8398 797.19922 C 1278.3064 792.13256 1273.3724 787.73334 1268.0391 784 C 1261.3724 779.46667 1254.5721 776.40078 1247.6387 774.80078 C 1240.9721 772.93411 1233.505 772 1225.2383 772 z M 909.83203 776.40039 L 909.83203 1043.1992 L 1013.0312 1043.1992 L 1013.0312 1015.1992 L 939.43164 1015.1992 L 939.43164 776.40039 L 909.83203 776.40039 z M 1052.8008 776.40039 L 1052.8008 1043.1992 L 1082.4023 1043.1992 L 1082.4023 776.40039 L 1052.8008 776.40039 z M 716.26367 800 C 731.19701 800 745.19701 802.93411 758.26367 808.80078 C 771.59701 814.40078 783.06211 822.1333 792.66211 832 C 802.52878 841.8667 810.26328 853.59922 815.86328 867.19922 C 821.72995 880.53262 824.66211 894.8 824.66211 910 C 824.66211 925.19995 821.72995 939.59922 815.86328 953.19922 C 810.26328 966.53262 802.52878 978.1334 792.66211 988 C 783.06211 997.8667 771.59701 1005.733 758.26367 1011.5996 C 745.19701 1017.1996 731.19701 1020 716.26367 1020 C 701.33034 1020 687.19662 1017.1996 673.86328 1011.5996 C 660.79662 1005.733 649.32956 997.8667 639.46289 988 C 629.59623 978.1334 621.86367 966.53262 616.26367 953.19922 C 610.66367 939.59922 607.86328 925.19995 607.86328 910 C 607.86328 894.8 610.66367 880.53262 616.26367 867.19922 C 621.86367 853.59922 629.59623 841.8667 639.46289 832 C 649.32956 822.1333 660.79662 814.40078 673.86328 808.80078 C 687.19662 802.93411 701.33034 800 716.26367 800 z M 759.14844 1081.082 L 710.42773 1186.3613 L 662.64062 1081.2695 L 641.91992 1212.6816 L 656.10742 1212.6816 L 668.42773 1126.0684 L 710.24023 1217.9082 L 752.61328 1126.0684 L 764.375 1212.6816 L 778.56055 1212.6816 L 759.14844 1081.082 z M 853.29688 1082.9492 L 853.29688 1212.6816 L 867.11133 1212.6816 L 867.11133 1116.5488 L 964.17773 1218.2812 L 964.17773 1088.1758 L 950.36328 1088.1758 L 950.36328 1184.6816 L 853.29688 1082.9492 z M 1226.998 1082.9492 L 1226.998 1212.6816 L 1240.8105 1212.6816 L 1240.8105 1116.5488 L 1337.877 1218.2812 L 1337.877 1088.1758 L 1324.0645 1088.1758 L 1324.0645 1184.6816 L 1226.998 1082.9492 z M 435.57812 1086.1211 C 426.24478 1086.1211 417.59531 1087.7391 409.63086 1090.9746 C 401.66642 1094.2102 394.761 1098.7527 388.91211 1104.6016 C 383.18767 1110.326 378.64516 1117.1703 375.28516 1125.1348 C 372.0496 1132.9748 370.43164 1141.5611 370.43164 1150.8945 C 370.43164 1159.8545 372.0496 1168.2557 375.28516 1176.0957 C 378.52071 1183.9357 383.00017 1190.717 388.72461 1196.4414 C 394.44906 1202.166 401.23227 1206.7085 409.07227 1210.0684 C 417.03671 1213.3039 425.62314 1214.9219 434.83203 1214.9219 C 439.56092 1214.9219 445.22281 1214.1749 451.81836 1212.6816 C 458.53836 1211.0638 465.38268 1207.7668 472.35156 1202.7891 L 472.35156 1185.6152 C 471.23156 1186.7352 469.42639 1188.3532 466.9375 1190.4688 C 464.57306 1192.4597 461.58741 1194.3263 457.97852 1196.0684 C 454.74296 1197.8106 451.13456 1199.2413 447.15234 1200.3613 C 443.17011 1201.3569 439.06314 1201.8555 434.83203 1201.8555 C 429.10759 1201.8555 423.25849 1200.7972 417.28516 1198.6816 C 411.43627 1196.566 406.08576 1193.3932 401.23242 1189.1621 C 396.37909 1184.931 392.39627 1179.6415 389.28516 1173.2949 C 386.17405 1166.9482 384.61914 1159.5442 384.61914 1151.082 C 384.61914 1143.8643 385.86268 1137.1441 388.35156 1130.9219 C 390.84045 1124.5752 394.32469 1119.1006 398.80469 1114.4961 C 403.28469 1109.7672 408.57409 1106.0326 414.67188 1103.2949 C 420.76966 1100.5571 427.42676 1099.1895 434.64453 1099.1895 C 438.25342 1099.1895 441.92486 1099.6251 445.6582 1100.4961 C 449.39153 1101.3672 452.87577 1102.5477 456.11133 1104.041 C 459.34689 1105.5345 462.33449 1107.3397 465.07227 1109.4551 C 467.93449 1111.5708 470.36045 1113.6241 472.35156 1115.6152 L 472.35156 1098.4414 C 468.61823 1095.5792 464.94678 1093.3404 461.33789 1091.7227 C 457.729 1090.1049 454.30782 1088.8595 451.07227 1087.9883 C 447.96116 1087.1171 445.03661 1086.6205 442.29883 1086.4961 C 439.6855 1086.2471 437.44479 1086.1213 435.57812 1086.1211 z M 555.88281 1086.1211 C 546.9228 1086.1211 538.52164 1087.7391 530.68164 1090.9746 C 522.84164 1094.2102 515.93623 1098.6916 509.96289 1104.416 C 504.114 1110.1405 499.50844 1116.9217 496.14844 1124.7617 C 492.78844 1132.6017 491.10935 1141.1882 491.10938 1150.5215 C 491.10938 1159.7304 492.78844 1168.3169 496.14844 1176.2812 C 499.50844 1184.1213 504.114 1190.9045 509.96289 1196.6289 C 515.81178 1202.3535 522.65609 1206.8328 530.49609 1210.0684 C 538.46053 1213.3039 546.9228 1214.9219 555.88281 1214.9219 C 564.84281 1214.9219 573.24203 1213.3039 581.08203 1210.0684 C 589.04648 1206.8328 595.95384 1202.3535 601.80273 1196.6289 C 607.65162 1190.9045 612.25523 1184.1215 615.61523 1176.2812 C 618.97523 1168.3168 620.65625 1159.7304 620.65625 1150.5215 C 620.65625 1141.1882 618.97523 1132.6017 615.61523 1124.7617 C 612.25523 1116.9217 607.58856 1110.1405 601.61523 1104.416 C 595.76634 1098.6916 588.92203 1094.2102 581.08203 1090.9746 C 573.24203 1087.7391 564.84281 1086.1211 555.88281 1086.1211 z M 1054.4551 1086.1211 C 1045.1218 1086.1211 1036.4742 1087.8021 1028.5098 1091.1621 C 1020.6698 1094.3977 1013.8255 1098.9402 1007.9766 1104.7891 C 1002.2521 1110.5135 997.70766 1117.2948 994.34766 1125.1348 C 991.1121 1132.9748 989.49414 1141.4371 989.49414 1150.5215 C 989.49414 1159.606 991.1121 1168.0682 994.34766 1175.9082 C 997.58321 1183.7482 1002.0646 1190.5925 1007.7891 1196.4414 C 1013.638 1202.166 1020.4823 1206.7085 1028.3223 1210.0684 C 1036.2867 1213.3039 1044.8713 1214.9219 1054.0801 1214.9219 C 1061.1735 1214.9219 1067.3969 1213.9878 1072.748 1212.1211 C 1078.2236 1210.2545 1082.8272 1208.0768 1086.5605 1205.5879 C 1090.2938 1203.099 1093.2815 1200.61 1095.5215 1198.1211 C 1097.7615 1195.6322 1099.3814 1193.766 1100.377 1192.5215 C 1104.3592 1187.1704 1107.3429 1181.0099 1109.334 1174.041 C 1111.3252 1167.0722 1112.3223 1160.1035 1112.3223 1153.1348 L 1112.3223 1150.1484 L 1060.4277 1150.1484 L 1060.4277 1163.2148 L 1097.3887 1163.2148 C 1097.1398 1167.197 1096.5171 1170.6814 1095.5215 1173.668 C 1094.526 1176.5302 1093.4677 1178.9581 1092.3477 1180.9492 C 1088.7388 1187.2959 1083.5755 1192.3981 1076.8555 1196.2559 C 1070.1355 1199.9893 1062.6054 1201.8555 1054.2676 1201.8555 C 1048.4188 1201.8555 1042.4455 1200.7972 1036.3477 1198.6816 C 1030.3744 1196.566 1024.9627 1193.3932 1020.1094 1189.1621 C 1015.2561 1184.8066 1011.2713 1179.4561 1008.1602 1173.1094 C 1005.1735 1166.6383 1003.6816 1159.1712 1003.6816 1150.709 C 1003.6816 1143.4912 1004.9252 1136.7711 1007.4141 1130.5488 C 1009.903 1124.2022 1013.3891 1118.7256 1017.8691 1114.1211 C 1022.3491 1109.5167 1027.6997 1105.9082 1033.9219 1103.2949 C 1040.2686 1100.5571 1047.1739 1099.1895 1054.6406 1099.1895 C 1062.1073 1099.1895 1068.2696 1100.3088 1073.123 1102.5488 C 1077.9763 1104.7888 1081.8943 1107.1537 1084.8809 1109.6426 C 1089.112 1113.127 1093.0317 1117.4192 1096.6406 1122.5215 L 1106.9102 1113.1895 C 1105.1679 1110.7005 1103.0494 1108.1484 1100.5605 1105.5352 C 1098.0716 1102.9218 1095.3974 1100.5571 1092.5352 1098.4414 C 1086.4374 1093.7125 1080.0266 1090.4767 1073.3066 1088.7344 C 1066.711 1086.9922 1060.4285 1086.1211 1054.4551 1086.1211 z M 1448.7637 1086.1211 C 1441.0482 1086.1211 1434.8266 1087.4908 1430.0977 1090.2285 C 1425.4933 1092.9665 1421.8849 1095.8278 1419.2715 1098.8145 C 1416.7827 1101.6767 1414.666 1105.0998 1412.9238 1109.082 C 1411.1816 1113.0642 1410.1884 1118.2295 1409.9395 1124.5762 L 1423.752 1124.5762 C 1423.8764 1121.3406 1424.2507 1118.5402 1424.873 1116.1758 C 1425.6196 1113.8114 1426.6149 1111.6948 1427.8594 1109.8281 C 1432.7127 1102.4859 1439.6181 1098.8145 1448.5781 1098.8145 C 1456.0448 1098.8145 1462.018 1101.1182 1466.498 1105.7227 C 1471.1025 1110.2027 1473.4064 1115.9886 1473.4062 1123.082 C 1473.4062 1125.5708 1472.9688 1128.3712 1472.0977 1131.4824 C 1471.2266 1134.5935 1469.3602 1138.1389 1466.498 1142.1211 C 1465.7513 1143.2411 1464.6951 1144.6738 1463.3262 1146.416 C 1462.0817 1148.0338 1460.712 1149.713 1459.2188 1151.4551 C 1457.8499 1153.1973 1456.4802 1154.8783 1455.1113 1156.4961 C 1453.7424 1158.1139 1452.6861 1159.3574 1451.9395 1160.2285 L 1406.5781 1212.6816 L 1487.0312 1212.6816 L 1487.0312 1199.9883 L 1434.3906 1199.9883 L 1460.3398 1170.6816 C 1462.8286 1167.8193 1465.6272 1164.5836 1468.7383 1160.9746 C 1471.8495 1157.2413 1474.7128 1153.5718 1477.3262 1149.9629 C 1481.0595 1144.6118 1483.6116 1139.8821 1484.9805 1135.7754 C 1486.4738 1131.6687 1487.2188 1127.5006 1487.2188 1123.2695 C 1487.2188 1117.9183 1486.2216 1113.0015 1484.2305 1108.5215 C 1482.3639 1103.9171 1479.6896 1099.9973 1476.2051 1096.7617 C 1472.8451 1093.4017 1468.8012 1090.7886 1464.0723 1088.9219 C 1459.3434 1087.0552 1454.2393 1086.1211 1448.7637 1086.1211 z M 1551.6113 1086.1211 C 1546.6335 1086.1211 1541.2218 1087.5538 1535.373 1090.416 C 1529.6485 1093.154 1524.4223 1097.9447 1519.6934 1104.7891 C 1515.5867 1110.7625 1512.4749 1117.6678 1510.3594 1125.5078 C 1508.2438 1133.2234 1507.1855 1141.5615 1507.1855 1150.5215 C 1507.1855 1159.4815 1508.2438 1167.8827 1510.3594 1175.7227 C 1512.4749 1183.4382 1515.5867 1190.2826 1519.6934 1196.2559 C 1522.0578 1199.7403 1524.5468 1202.665 1527.1602 1205.0293 C 1529.8979 1207.3938 1532.6352 1209.321 1535.373 1210.8145 C 1538.2352 1212.3079 1541.0338 1213.3661 1543.7715 1213.9883 C 1546.5093 1214.6105 1549.1224 1214.9219 1551.6113 1214.9219 C 1554.1002 1214.9219 1556.7135 1214.6105 1559.4512 1213.9883 C 1562.189 1213.3661 1564.9263 1212.3079 1567.6641 1210.8145 C 1570.5263 1209.321 1573.2675 1207.394 1575.8809 1205.0293 C 1578.6186 1202.665 1581.1671 1199.7403 1583.5312 1196.2559 C 1587.6381 1190.2826 1590.7496 1183.4382 1592.8652 1175.7227 C 1594.9808 1167.8827 1596.0391 1159.4815 1596.0391 1150.5215 C 1596.0391 1141.5615 1594.9808 1133.2234 1592.8652 1125.5078 C 1590.7496 1117.6678 1587.638 1110.7623 1583.5312 1104.7891 C 1578.8024 1097.9447 1573.513 1093.154 1567.6641 1090.416 C 1561.9397 1087.5538 1556.5891 1086.1211 1551.6113 1086.1211 z M 1721.873 1086.1211 C 1716.273 1086.1211 1711.2951 1087.1183 1706.9395 1089.1094 C 1702.7084 1090.9761 1699.161 1093.5262 1696.2988 1096.7617 C 1693.4366 1099.9973 1691.2589 1103.6687 1689.7656 1107.7754 C 1688.2723 1111.8821 1687.5273 1116.1762 1687.5273 1120.6562 C 1687.5273 1126.5052 1688.7709 1131.7926 1691.2598 1136.5215 C 1693.8732 1141.2504 1697.6688 1145.046 1702.6465 1147.9082 C 1696.2999 1150.7705 1691.5702 1154.8774 1688.459 1160.2285 C 1685.3479 1165.5798 1683.793 1171.6159 1683.793 1178.3359 C 1683.793 1183.1892 1684.538 1187.8559 1686.0312 1192.3359 C 1687.649 1196.6913 1690.0159 1200.5481 1693.127 1203.9082 C 1696.3625 1207.2681 1700.3434 1209.9445 1705.0723 1211.9355 C 1709.9257 1213.9266 1715.5263 1214.9219 1721.873 1214.9219 C 1728.2197 1214.9219 1733.7574 1213.9266 1738.4863 1211.9355 C 1743.2152 1209.9445 1747.1368 1207.2681 1750.248 1203.9082 C 1753.4835 1200.5482 1755.9095 1196.6915 1757.5273 1192.3359 C 1759.145 1187.8559 1759.9531 1183.1892 1759.9531 1178.3359 C 1759.9531 1171.6159 1758.3963 1165.5798 1755.2852 1160.2285 C 1752.1741 1154.8774 1747.4482 1150.7705 1741.1016 1147.9082 C 1746.0793 1145.046 1749.8099 1141.2504 1752.2988 1136.5215 C 1754.9121 1131.7926 1756.2185 1126.5053 1756.2188 1120.6562 C 1756.2188 1116.1763 1755.4738 1111.8821 1753.9805 1107.7754 C 1752.4871 1103.6687 1750.3095 1099.9973 1747.4473 1096.7617 C 1744.5851 1093.5262 1740.9747 1090.9761 1736.6191 1089.1094 C 1732.388 1087.1183 1727.473 1086.1211 1721.873 1086.1211 z M 807.35938 1088.1758 L 807.35938 1212.6816 L 821.17383 1212.6816 L 821.17383 1088.1758 L 807.35938 1088.1758 z M 1181.0605 1088.1758 L 1181.0605 1212.6816 L 1194.873 1212.6816 L 1194.873 1088.1758 L 1181.0605 1088.1758 z M 1622.127 1088.1758 L 1614.8477 1101.2422 L 1635.752 1101.2422 L 1635.752 1212.6816 L 1649.5645 1212.6816 L 1649.5645 1088.1758 L 1622.127 1088.1758 z M 1551.6113 1098.8145 C 1554.8468 1098.8145 1558.3942 1099.8115 1562.252 1101.8027 C 1566.2342 1103.7938 1569.8425 1107.4023 1573.0781 1112.6289 C 1576.4381 1117.98 1578.803 1124.0144 1580.1719 1130.7344 C 1581.5408 1137.33 1582.2266 1143.9259 1582.2266 1150.5215 C 1582.2266 1157.1171 1581.5408 1163.7761 1580.1719 1170.4961 C 1578.803 1177.0917 1576.4381 1183.0649 1573.0781 1188.416 C 1569.8425 1193.6427 1566.2342 1197.2511 1562.252 1199.2422 C 1558.3942 1201.2333 1554.8468 1202.2285 1551.6113 1202.2285 C 1548.3757 1202.2285 1544.7674 1201.2333 1540.7852 1199.2422 C 1536.9274 1197.2511 1533.38 1193.6427 1530.1445 1188.416 C 1526.7845 1183.0649 1524.4197 1177.0917 1523.0508 1170.4961 C 1521.682 1163.7761 1520.998 1157.1171 1520.998 1150.5215 C 1520.998 1143.9259 1521.682 1137.33 1523.0508 1130.7344 C 1524.4197 1124.0144 1526.7845 1117.98 1530.1445 1112.6289 C 1533.38 1107.4023 1536.9274 1103.7938 1540.7852 1101.8027 C 1544.7674 1099.8115 1548.3757 1098.8145 1551.6113 1098.8145 z M 1721.873 1098.8145 C 1724.7352 1098.8145 1727.4095 1099.3131 1729.8984 1100.3086 C 1732.5117 1101.3042 1734.8154 1102.798 1736.8066 1104.7891 C 1738.7977 1106.6558 1740.3527 1108.9576 1741.4727 1111.6953 C 1742.5927 1114.4331 1743.1523 1117.4818 1743.1523 1120.8418 C 1743.1523 1127.064 1741.0989 1132.2292 1736.9922 1136.3359 C 1733.01 1140.3181 1727.9708 1142.3086 1721.873 1142.3086 C 1715.7752 1142.3086 1710.675 1140.3181 1706.5684 1136.3359 C 1702.5861 1132.2292 1700.5937 1127.064 1700.5938 1120.8418 C 1700.5938 1117.4818 1701.1515 1114.4331 1702.2715 1111.6953 C 1703.3915 1108.9576 1704.9484 1106.6558 1706.9395 1104.7891 C 1708.9306 1102.798 1711.1713 1101.3042 1713.6602 1100.3086 C 1716.2735 1099.3131 1719.0108 1098.8145 1721.873 1098.8145 z M 555.88281 1099.1895 C 562.85169 1099.1895 569.38465 1100.5571 575.48242 1103.2949 C 581.70465 1105.9082 587.05516 1109.5167 591.53516 1114.1211 C 596.1396 1118.7256 599.748 1124.2022 602.36133 1130.5488 C 605.09911 1136.7711 606.46875 1143.4282 606.46875 1150.5215 C 606.46875 1157.6148 605.09911 1164.3349 602.36133 1170.6816 C 599.748 1176.9038 596.1396 1182.3175 591.53516 1186.9219 C 587.05516 1191.5263 581.70465 1195.1977 575.48242 1197.9355 C 569.38465 1200.5488 562.85169 1201.8555 555.88281 1201.8555 C 548.91392 1201.8555 542.31792 1200.5488 536.0957 1197.9355 C 529.99792 1195.1977 524.64742 1191.5263 520.04297 1186.9219 C 515.43853 1182.3175 511.82817 1176.9038 509.21484 1170.6816 C 506.6015 1164.3349 505.29492 1157.6148 505.29492 1150.5215 C 505.29492 1143.4282 506.6015 1136.7711 509.21484 1130.5488 C 511.82817 1124.2022 515.43853 1118.7256 520.04297 1114.1211 C 524.64742 1109.5167 529.99792 1105.9082 536.0957 1103.2949 C 542.31792 1100.5571 548.91392 1099.1895 555.88281 1099.1895 z M 1721.873 1154.2559 C 1725.3575 1154.2559 1728.5914 1154.8767 1731.5781 1156.1211 C 1734.5648 1157.2411 1737.1188 1158.8591 1739.2344 1160.9746 C 1741.4744 1162.9657 1743.1515 1165.4548 1744.2715 1168.4414 C 1745.516 1171.3036 1746.1387 1174.4785 1746.1387 1177.9629 C 1746.1387 1185.0562 1743.898 1190.9034 1739.418 1195.5078 C 1734.938 1199.9878 1729.0908 1202.2285 1721.873 1202.2285 C 1714.6552 1202.2285 1708.8062 1199.9878 1704.3262 1195.5078 C 1699.8462 1190.9034 1697.6055 1185.0562 1697.6055 1177.9629 C 1697.6055 1174.4785 1698.1652 1171.3036 1699.2852 1168.4414 C 1700.5297 1165.4548 1702.2107 1162.9657 1704.3262 1160.9746 C 1706.5662 1158.8591 1709.1183 1157.2411 1711.9805 1156.1211 C 1714.9671 1154.8767 1718.2641 1154.2559 1721.873 1154.2559 z M 1799 1196.9219 A 8.9999752 8.9999752 0 0 0 1790 1205.9219 A 8.9999752 8.9999752 0 0 0 1799 1214.9219 A 8.9999752 8.9999752 0 0 0 1808 1205.9219 A 8.9999752 8.9999752 0 0 0 1799 1196.9219 z "
     id="path4466" />
</svg>
